<ttFont>
    <TTGlyph name="A" xMin="-143" yMin="-145" xMax="1282" yMax="1692">
      <contour>
        <pt x="1112" y="344" on="1"/>
        <pt x="1047" y="399" on="0"/>
        <pt x="1014" y="399" on="1"/>
        <pt x="997" y="399" on="1"/>
        <pt x="1008" y="297" on="1"/>
        <pt x="1058" y="275" on="0"/>
        <pt x="1078" y="226" on="1"/>
        <pt x="1096" y="182" on="0"/>
        <pt x="1143" y="182" on="1"/>
        <pt x="1145" y="182" on="0"/>
        <pt x="1263" y="274" on="0"/>
        <pt x="1282" y="274" on="1"/>
        <pt x="1271" y="260" on="0"/>
        <pt x="1244" y="234" on="1"/>
        <pt x="1178" y="167" on="0"/>
        <pt x="1178" y="157" on="0"/>
        <pt x="1182" y="147" on="1"/>
        <pt x="1182" y="145" on="1"/>
        <pt x="1189" y="134" on="0"/>
        <pt x="1249" y="123" on="1"/>
        <pt x="1270" y="119" on="1"/>
        <pt x="1270" y="114" on="0"/>
        <pt x="1222" y="110" on="0"/>
        <pt x="1204" y="104" on="0"/>
        <pt x="1198" y="98" on="0"/>
        <pt x="1192" y="91" on="0"/>
        <pt x="1165" y="80" on="0"/>
        <pt x="1140" y="42" on="0"/>
        <pt x="1138" y="26" on="1"/>
        <pt x="1135" y="-16" on="0"/>
        <pt x="1120" y="-16" on="1"/>
        <pt x="1101" y="-16" on="0"/>
        <pt x="1033" y="62" on="0"/>
        <pt x="1010" y="102" on="1"/>
        <pt x="961" y="74" on="1"/>
        <pt x="939" y="64" on="0"/>
        <pt x="932" y="-117" on="1"/>
        <pt x="932" y="-138" on="0"/>
        <pt x="913" y="-145" on="1"/>
        <pt x="913" y="-79" on="0"/>
        <pt x="833" y="62" on="0"/>
        <pt x="728" y="147" on="0"/>
        <pt x="670" y="147" on="0"/>
        <pt x="600" y="143" on="1"/>
        <pt x="567" y="129" on="1"/>
        <pt x="566" y="129" on="0"/>
        <pt x="491" y="68" on="0"/>
        <pt x="477" y="68" on="1"/>
        <pt x="485" y="76" on="1"/>
        <pt x="483" y="76" on="1"/>
        <pt x="479" y="76" on="0"/>
        <pt x="411" y="135" on="0"/>
        <pt x="399" y="135" on="1"/>
        <pt x="254" y="127" on="1"/>
        <pt x="223" y="101" on="0"/>
        <pt x="162" y="90" on="1"/>
        <pt x="147" y="64" on="0"/>
        <pt x="44" y="40" on="0"/>
        <pt x="-86" y="21" on="0"/>
        <pt x="-125" y="0" on="0"/>
        <pt x="-139" y="0" on="0"/>
        <pt x="-143" y="2" on="1"/>
        <pt x="-84" y="37" on="0"/>
        <pt x="-59" y="66" on="1"/>
        <pt x="-22" y="119" on="1"/>
        <pt x="-14" y="130" on="0"/>
        <pt x="-8" y="186" on="0"/>
        <pt x="-2" y="193" on="1"/>
        <pt x="-6" y="156" on="0"/>
        <pt x="-6" y="119" on="0"/>
        <pt x="-2" y="115" on="1"/>
        <pt x="-2" y="135" on="1"/>
        <pt x="-2" y="199" on="0"/>
        <pt x="43" y="201" on="1"/>
        <pt x="43" y="273" on="0"/>
        <pt x="123" y="297" on="1"/>
        <pt x="100" y="463" on="1"/>
        <pt x="97" y="481" on="0"/>
        <pt x="47" y="510" on="1"/>
        <pt x="53" y="541" on="1"/>
        <pt x="84" y="530" on="0"/>
        <pt x="88" y="530" on="1"/>
        <pt x="107" y="530" on="0"/>
        <pt x="170" y="635" on="0"/>
        <pt x="188" y="647" on="1"/>
        <pt x="186" y="668" on="0"/>
        <pt x="186" y="705" on="1"/>
        <pt x="197" y="840" on="1"/>
        <pt x="197" y="849" on="0"/>
        <pt x="138" y="891" on="0"/>
        <pt x="137" y="905" on="1"/>
        <pt x="137" y="909" on="1"/>
        <pt x="179" y="891" on="0"/>
        <pt x="219" y="891" on="0"/>
        <pt x="262" y="982" on="0"/>
        <pt x="262" y="1016" on="0"/>
        <pt x="238" y="1038" on="1"/>
        <pt x="207" y="1067" on="0"/>
        <pt x="215" y="1083" on="1"/>
        <pt x="265" y="1053" on="0"/>
        <pt x="291" y="1053" on="0"/>
        <pt x="305" y="1067" on="1"/>
        <pt x="303" y="1075" on="0"/>
        <pt x="303" y="1140" on="0"/>
        <pt x="373" y="1318" on="0"/>
        <pt x="373" y="1368" on="1"/>
        <pt x="371" y="1393" on="1"/>
        <pt x="371" y="1399" on="0"/>
        <pt x="338" y="1425" on="1"/>
        <pt x="348" y="1454" on="1"/>
        <pt x="378" y="1440" on="0"/>
        <pt x="381" y="1440" on="1"/>
        <pt x="418" y="1440" on="0"/>
        <pt x="536" y="1564" on="1"/>
        <pt x="585" y="1616" on="0"/>
        <pt x="606" y="1632" on="1"/>
        <pt x="606" y="1652" on="0"/>
        <pt x="621" y="1692" on="1"/>
        <pt x="645" y="1692" on="1"/>
        <pt x="643" y="1680" on="0"/>
        <pt x="643" y="1626" on="0"/>
        <pt x="667" y="1558" on="0"/>
        <pt x="742" y="1407" on="0"/>
        <pt x="774" y="1350" on="1"/>
        <pt x="854" y="1204" on="0"/>
        <pt x="873" y="1069" on="1"/>
        <pt x="884" y="987" on="0"/>
        <pt x="932" y="921" on="0"/>
        <pt x="945" y="904" on="1"/>
        <pt x="975" y="863" on="0"/>
        <pt x="975" y="799" on="1"/>
        <pt x="971" y="719" on="1"/>
        <pt x="971" y="655" on="1"/>
        <pt x="1032" y="571" on="0"/>
        <pt x="1051" y="446" on="1"/>
        <pt x="1057" y="416" on="0"/>
        <pt x="1098" y="377" on="1"/>
        <pt x="1110" y="365" on="0"/>
        <pt x="1110" y="350" on="1"/>
      </contour>
      <contour>
        <pt x="641" y="283" on="1"/>
        <pt x="653" y="285" on="1"/>
        <pt x="684" y="289" on="1"/>
        <pt x="741" y="352" on="1"/>
        <pt x="729" y="532" on="1"/>
        <pt x="694" y="558" on="0"/>
        <pt x="657" y="662" on="0"/>
        <pt x="657" y="713" on="0"/>
        <pt x="660" y="721" on="0"/>
        <pt x="660" y="723" on="1"/>
        <pt x="629" y="680" on="1"/>
        <pt x="621" y="669" on="0"/>
        <pt x="621" y="652" on="0"/>
        <pt x="639" y="609" on="0"/>
        <pt x="639" y="577" on="0"/>
        <pt x="633" y="571" on="1"/>
        <pt x="604" y="619" on="0"/>
        <pt x="577" y="643" on="0"/>
        <pt x="557" y="643" on="1"/>
        <pt x="334" y="643" on="1"/>
        <pt x="348" y="588" on="1"/>
        <pt x="351" y="575" on="0"/>
        <pt x="424" y="522" on="0"/>
        <pt x="426" y="506" on="1"/>
        <pt x="382" y="522" on="0"/>
        <pt x="344" y="522" on="0"/>
        <pt x="328" y="510" on="1"/>
        <pt x="309" y="483" on="1"/>
        <pt x="309" y="289" on="1"/>
        <pt x="385" y="293" on="1"/>
        <pt x="447" y="283" on="1"/>
        <pt x="451" y="283" on="0"/>
        <pt x="496" y="303" on="0"/>
        <pt x="524" y="303" on="0"/>
        <pt x="528" y="301" on="1"/>
        <pt x="489" y="277" on="0"/>
        <pt x="464" y="252" on="0"/>
        <pt x="461" y="238" on="1"/>
        <pt x="461" y="215" on="1"/>
        <pt x="459" y="209" on="1"/>
        <pt x="459" y="195" on="0"/>
        <pt x="474" y="194" on="1"/>
        <pt x="507" y="190" on="0"/>
        <pt x="520" y="162" on="1"/>
        <pt x="475" y="176" on="0"/>
        <pt x="449" y="176" on="0"/>
        <pt x="452" y="137" on="0"/>
        <pt x="494" y="84" on="1"/>
        <pt x="530" y="124" on="0"/>
        <pt x="547" y="165" on="0"/>
        <pt x="594" y="251" on="0"/>
        <pt x="594" y="267" on="0"/>
        <pt x="565" y="318" on="0"/>
        <pt x="565" y="339" on="0"/>
        <pt x="574" y="346" on="1"/>
        <pt x="616" y="283" on="0"/>
      </contour>
      <contour>
        <pt x="514" y="952" on="1"/>
        <pt x="455" y="963" on="1"/>
        <pt x="434" y="963" on="0"/>
        <pt x="416" y="938" on="1"/>
        <pt x="383" y="893" on="0"/>
        <pt x="383" y="825" on="0"/>
        <pt x="385" y="817" on="1"/>
        <pt x="430" y="801" on="1"/>
        <pt x="497" y="801" on="0"/>
        <pt x="573" y="830" on="0"/>
        <pt x="594" y="834" on="1"/>
        <pt x="627" y="844" on="1"/>
        <pt x="598" y="905" on="0"/>
        <pt x="598" y="966" on="0"/>
        <pt x="543" y="1244" on="0"/>
        <pt x="528" y="1292" on="1"/>
        <pt x="440" y="1092" on="1"/>
        <pt x="440" y="1071" on="1"/>
        <pt x="445" y="1066" on="0"/>
        <pt x="449" y="1030" on="1"/>
        <pt x="449" y="1022" on="1"/>
        <pt x="453" y="997" on="0"/>
        <pt x="496" y="979" on="1"/>
        <pt x="522" y="965" on="0"/>
        <pt x="522" y="956" on="1"/>
        <pt x="522" y="952" on="0"/>
      </contour>
    </TTGlyph>
    <TTGlyph name="AE" xMin="-189" yMin="-145" xMax="2008" yMax="1692">
      <contour>
        <pt x="1785" y="1305" on="1"/>
        <pt x="1760" y="1301" on="0"/>
        <pt x="1724" y="1239" on="1"/>
        <pt x="1709" y="1247" on="1"/>
        <pt x="1738" y="1299" on="0"/>
        <pt x="1738" y="1346" on="0"/>
        <pt x="1683" y="1399" on="1"/>
        <pt x="1695" y="1389" on="1"/>
        <pt x="1650" y="1454" on="0"/>
        <pt x="1609" y="1454" on="1"/>
        <pt x="1312" y="1452" on="1"/>
        <pt x="1297" y="1452" on="0"/>
        <pt x="1275" y="1376" on="0"/>
        <pt x="1275" y="1317" on="1"/>
        <pt x="1281" y="1294" on="1"/>
        <pt x="1281" y="1292" on="0"/>
        <pt x="1304" y="1263" on="0"/>
        <pt x="1304" y="1200" on="1"/>
        <pt x="1294" y="1055" on="1"/>
        <pt x="1294" y="1012" on="0"/>
        <pt x="1320" y="913" on="0"/>
        <pt x="1343" y="913" on="1"/>
        <pt x="1346" y="913" on="0"/>
        <pt x="1432" y="950" on="0"/>
        <pt x="1494" y="950" on="0"/>
        <pt x="1511" y="948" on="1"/>
        <pt x="1546" y="948" on="0"/>
        <pt x="1546" y="981" on="1"/>
        <pt x="1546" y="1118" on="1"/>
        <pt x="1546" y="1136" on="0"/>
        <pt x="1508" y="1160" on="0"/>
        <pt x="1476" y="1174" on="1"/>
        <pt x="1482" y="1186" on="1"/>
        <pt x="1521" y="1161" on="0"/>
        <pt x="1562" y="1161" on="0"/>
        <pt x="1584" y="1182" on="0"/>
        <pt x="1607" y="1260" on="1"/>
        <pt x="1615" y="1257" on="1"/>
        <pt x="1597" y="1197" on="0"/>
        <pt x="1597" y="1149" on="0"/>
        <pt x="1654" y="1087" on="0"/>
        <pt x="1696" y="1087" on="0"/>
        <pt x="1754" y="1114" on="1"/>
        <pt x="1765" y="1096" on="1"/>
        <pt x="1719" y="1069" on="0"/>
        <pt x="1695" y="1041" on="0"/>
        <pt x="1695" y="1018" on="1"/>
        <pt x="1695" y="1014" on="1"/>
        <pt x="1694" y="1005" on="0"/>
        <pt x="1751" y="939" on="0"/>
        <pt x="1750" y="909" on="1"/>
        <pt x="1748" y="854" on="1"/>
        <pt x="1748" y="840" on="0"/>
        <pt x="1769" y="825" on="0"/>
        <pt x="1826" y="803" on="1"/>
        <pt x="1818" y="774" on="1"/>
        <pt x="1760" y="799" on="0"/>
        <pt x="1739" y="799" on="0"/>
        <pt x="1720" y="780" on="1"/>
        <pt x="1699" y="752" on="1"/>
        <pt x="1695" y="744" on="0"/>
        <pt x="1695" y="737" on="1"/>
        <pt x="1699" y="698" on="1"/>
        <pt x="1699" y="624" on="0"/>
        <pt x="1638" y="563" on="0"/>
        <pt x="1636" y="481" on="1"/>
        <pt x="1619" y="481" on="1"/>
        <pt x="1619" y="502" on="1"/>
        <pt x="1619" y="566" on="0"/>
        <pt x="1595" y="592" on="1"/>
        <pt x="1528" y="660" on="0"/>
        <pt x="1521" y="803" on="1"/>
        <pt x="1521" y="827" on="0"/>
        <pt x="1500" y="827" on="1"/>
        <pt x="1410" y="813" on="1"/>
        <pt x="1351" y="817" on="1"/>
        <pt x="1329" y="817" on="0"/>
        <pt x="1294" y="727" on="0"/>
        <pt x="1294" y="694" on="1"/>
        <pt x="1294" y="653" on="1"/>
        <pt x="1294" y="496" on="0"/>
        <pt x="1298" y="496" on="1"/>
        <pt x="1318" y="496" on="0"/>
        <pt x="1349" y="504" on="1"/>
        <pt x="1357" y="475" on="1"/>
        <pt x="1306" y="463" on="0"/>
        <pt x="1281" y="436" on="0"/>
        <pt x="1281" y="410" on="1"/>
        <pt x="1281" y="369" on="1"/>
        <pt x="1281" y="338" on="0"/>
        <pt x="1312" y="338" on="1"/>
        <pt x="1468" y="338" on="1"/>
        <pt x="1494" y="338" on="0"/>
        <pt x="1520" y="364" on="0"/>
        <pt x="1531" y="414" on="1"/>
        <pt x="1560" y="408" on="1"/>
        <pt x="1552" y="377" on="0"/>
        <pt x="1552" y="356" on="1"/>
        <pt x="1552" y="323" on="0"/>
        <pt x="1674" y="274" on="0"/>
        <pt x="1703" y="274" on="1"/>
        <pt x="1750" y="274" on="0"/>
        <pt x="1752" y="303" on="1"/>
        <pt x="1761" y="350" on="1"/>
        <pt x="1773" y="424" on="0"/>
        <pt x="1902" y="438" on="1"/>
        <pt x="1934" y="441" on="0"/>
        <pt x="1998" y="498" on="1"/>
        <pt x="2008" y="487" on="1"/>
        <pt x="1944" y="430" on="0"/>
        <pt x="1930" y="361" on="0"/>
        <pt x="1894" y="149" on="0"/>
        <pt x="1875" y="84" on="0"/>
        <pt x="1875" y="69" on="0"/>
        <pt x="1904" y="-10" on="1"/>
        <pt x="1881" y="-16" on="1"/>
        <pt x="1853" y="63" on="0"/>
        <pt x="1853" y="66" on="1"/>
        <pt x="1853" y="95" on="0"/>
        <pt x="1777" y="102" on="1"/>
        <pt x="1745" y="102" on="0"/>
        <pt x="1722" y="45" on="1"/>
        <pt x="1703" y="53" on="1"/>
        <pt x="1721" y="95" on="0"/>
        <pt x="1719" y="125" on="0"/>
        <pt x="1723" y="125" on="0"/>
        <pt x="1725" y="124" on="0"/>
        <pt x="1728" y="123" on="1"/>
        <pt x="1695" y="138" on="0"/>
        <pt x="1579" y="171" on="0"/>
        <pt x="1548" y="188" on="0"/>
        <pt x="1539" y="188" on="1"/>
        <pt x="1083" y="188" on="1"/>
        <pt x="983" y="188" on="0"/>
        <pt x="972" y="139" on="1"/>
        <pt x="933" y="53" on="1"/>
        <pt x="931" y="47" on="0"/>
        <pt x="854" y="-91" on="0"/>
        <pt x="839" y="-139" on="0"/>
        <pt x="818" y="-145" on="1"/>
        <pt x="829" y="-116" on="0"/>
        <pt x="829" y="13" on="0"/>
        <pt x="738" y="147" on="0"/>
        <pt x="689" y="147" on="1"/>
        <pt x="667" y="147" on="0"/>
        <pt x="597" y="143" on="1"/>
        <pt x="560" y="129" on="1"/>
        <pt x="558" y="128" on="0"/>
        <pt x="463" y="68" on="0"/>
        <pt x="450" y="68" on="1"/>
        <pt x="460" y="76" on="1"/>
        <pt x="458" y="76" on="1"/>
        <pt x="454" y="76" on="0"/>
        <pt x="406" y="135" on="0"/>
        <pt x="395" y="135" on="1"/>
        <pt x="245" y="127" on="1"/>
        <pt x="207" y="101" on="0"/>
        <pt x="143" y="90" on="1"/>
        <pt x="119" y="64" on="0"/>
        <pt x="9" y="40" on="0"/>
        <pt x="-126" y="21" on="0"/>
        <pt x="-171" y="0" on="0"/>
        <pt x="-185" y="0" on="0"/>
        <pt x="-189" y="2" on="1"/>
        <pt x="-156" y="20" on="1"/>
        <pt x="-97" y="51" on="0"/>
        <pt x="-85" y="66" on="1"/>
        <pt x="-31" y="119" on="1"/>
        <pt x="-21" y="129" on="0"/>
        <pt x="4" y="186" on="0"/>
        <pt x="14" y="193" on="1"/>
        <pt x="-15" y="129" on="0"/>
        <pt x="-15" y="120" on="0"/>
        <pt x="-13" y="116" on="0"/>
        <pt x="-13" y="115" on="1"/>
        <pt x="-5" y="135" on="1"/>
        <pt x="14" y="199" on="0"/>
        <pt x="59" y="201" on="1"/>
        <pt x="81" y="274" on="0"/>
        <pt x="169" y="297" on="1"/>
        <pt x="198" y="463" on="1"/>
        <pt x="198" y="479" on="0"/>
        <pt x="161" y="510" on="1"/>
        <pt x="177" y="541" on="1"/>
        <pt x="204" y="530" on="0"/>
        <pt x="208" y="530" on="1"/>
        <pt x="227" y="530" on="0"/>
        <pt x="323" y="635" on="0"/>
        <pt x="345" y="647" on="1"/>
        <pt x="354" y="692" on="0"/>
        <pt x="415" y="819" on="0"/>
        <pt x="415" y="851" on="0"/>
        <pt x="376" y="891" on="0"/>
        <pt x="376" y="905" on="1"/>
        <pt x="378" y="909" on="1"/>
        <pt x="415" y="891" on="0"/>
        <pt x="455" y="891" on="0"/>
        <pt x="534" y="993" on="0"/>
        <pt x="534" y="1019" on="0"/>
        <pt x="505" y="1058" on="0"/>
        <pt x="505" y="1077" on="0"/>
        <pt x="511" y="1083" on="1"/>
        <pt x="551" y="1053" on="0"/>
        <pt x="578" y="1053" on="0"/>
        <pt x="593" y="1065" on="1"/>
        <pt x="601" y="1092" on="1"/>
        <pt x="616" y="1140" on="0"/>
        <pt x="742" y="1318" on="0"/>
        <pt x="759" y="1368" on="1"/>
        <pt x="765" y="1393" on="1"/>
        <pt x="765" y="1395" on="1"/>
        <pt x="765" y="1399" on="0"/>
        <pt x="743" y="1425" on="1"/>
        <pt x="761" y="1454" on="1"/>
        <pt x="786" y="1440" on="0"/>
        <pt x="813" y="1440" on="0"/>
        <pt x="920" y="1513" on="0"/>
        <pt x="1050" y="1616" on="0"/>
        <pt x="1077" y="1632" on="1"/>
        <pt x="1099" y="1675" on="0"/>
        <pt x="1109" y="1692" on="1"/>
        <pt x="1134" y="1692" on="1"/>
        <pt x="1111" y="1644" on="0"/>
        <pt x="1111" y="1588" on="0"/>
        <pt x="1120" y="1536" on="1"/>
        <pt x="1133" y="1544" on="0"/>
        <pt x="1156" y="1595" on="1"/>
        <pt x="1177" y="1587" on="1"/>
        <pt x="1156" y="1541" on="0"/>
        <pt x="1156" y="1526" on="1"/>
        <pt x="1161" y="1538" on="0"/>
        <pt x="1285" y="1556" on="0"/>
        <pt x="1345" y="1556" on="0"/>
        <pt x="1370" y="1583" on="0"/>
        <pt x="1388" y="1626" on="1"/>
        <pt x="1408" y="1616" on="1"/>
        <pt x="1388" y="1569" on="0"/>
        <pt x="1388" y="1530" on="0"/>
        <pt x="1404" y="1520" on="1"/>
        <pt x="1412" y="1511" on="1"/>
        <pt x="1422" y="1505" on="0"/>
        <pt x="1431" y="1505" on="1"/>
        <pt x="1656" y="1505" on="1"/>
        <pt x="1660" y="1509" on="1"/>
        <pt x="1664" y="1505" on="1"/>
        <pt x="1673" y="1505" on="0"/>
        <pt x="1701" y="1533" on="0"/>
        <pt x="1777" y="1563" on="0"/>
        <pt x="1848" y="1582" on="0"/>
        <pt x="1933" y="1643" on="0"/>
        <pt x="1963" y="1692" on="1"/>
        <pt x="1974" y="1683" on="1"/>
        <pt x="1928" y="1615" on="0"/>
        <pt x="1928" y="1581" on="1"/>
        <pt x="1928" y="1229" on="1"/>
        <pt x="1928" y="1195" on="0"/>
        <pt x="1963" y="1116" on="1"/>
        <pt x="1955" y="1112" on="1"/>
        <pt x="1922" y="1184" on="0"/>
        <pt x="1894" y="1212" on="1"/>
        <pt x="1795" y="1296" on="1"/>
        <pt x="1787" y="1300" on="0"/>
      </contour>
      <contour>
        <pt x="681" y="283" on="1"/>
        <pt x="726" y="289" on="1"/>
        <pt x="804" y="352" on="1"/>
        <pt x="849" y="532" on="1"/>
        <pt x="821" y="561" on="0"/>
        <pt x="821" y="683" on="0"/>
        <pt x="841" y="723" on="1"/>
        <pt x="796" y="680" on="1"/>
        <pt x="780" y="664" on="0"/>
        <pt x="780" y="649" on="1"/>
        <pt x="782" y="614" on="1"/>
        <pt x="782" y="583" on="0"/>
        <pt x="765" y="571" on="1"/>
        <pt x="752" y="619" on="0"/>
        <pt x="732" y="643" on="0"/>
        <pt x="712" y="643" on="1"/>
        <pt x="489" y="643" on="1"/>
        <pt x="487" y="588" on="1"/>
        <pt x="486" y="575" on="0"/>
        <pt x="538" y="522" on="0"/>
        <pt x="538" y="506" on="1"/>
        <pt x="499" y="522" on="0"/>
        <pt x="462" y="522" on="0"/>
        <pt x="442" y="510" on="1"/>
        <pt x="415" y="483" on="1"/>
        <pt x="352" y="289" on="1"/>
        <pt x="429" y="293" on="1"/>
        <pt x="487" y="283" on="1"/>
        <pt x="491" y="283" on="0"/>
        <pt x="545" y="303" on="0"/>
        <pt x="573" y="303" on="0"/>
        <pt x="575" y="301" on="1"/>
        <pt x="502" y="264" on="0"/>
        <pt x="489" y="238" on="1"/>
        <pt x="481" y="215" on="1"/>
        <pt x="474" y="203" on="1"/>
        <pt x="474" y="197" on="0"/>
        <pt x="484" y="195" on="1"/>
        <pt x="518" y="189" on="0"/>
        <pt x="524" y="162" on="1"/>
        <pt x="481" y="176" on="0"/>
        <pt x="450" y="176" on="0"/>
        <pt x="450" y="132" on="0"/>
        <pt x="472" y="84" on="1"/>
        <pt x="525" y="127" on="0"/>
        <pt x="542" y="154" on="1"/>
        <pt x="551" y="165" on="0"/>
        <pt x="573" y="190" on="1"/>
        <pt x="623" y="247" on="0"/>
        <pt x="630" y="264" on="1"/>
        <pt x="620" y="317" on="1"/>
        <pt x="620" y="332" on="0"/>
        <pt x="634" y="346" on="1"/>
        <pt x="658" y="283" on="0"/>
      </contour>
      <contour>
        <pt x="767" y="952" on="1"/>
        <pt x="712" y="963" on="1"/>
        <pt x="687" y="963" on="0"/>
        <pt x="615" y="883" on="0"/>
        <pt x="601" y="842" on="1"/>
        <pt x="595" y="817" on="1"/>
        <pt x="636" y="801" on="1"/>
        <pt x="703" y="801" on="0"/>
        <pt x="788" y="830" on="0"/>
        <pt x="810" y="834" on="1"/>
        <pt x="847" y="844" on="1"/>
        <pt x="841" y="879" on="0"/>
        <pt x="841" y="922" on="0"/>
        <pt x="853" y="958" on="0"/>
        <pt x="880" y="1148" on="0"/>
        <pt x="886" y="1225" on="1"/>
        <pt x="886" y="1255" on="1"/>
        <pt x="881" y="1276" on="0"/>
        <pt x="880" y="1278" on="1"/>
        <pt x="739" y="1092" on="1"/>
        <pt x="732" y="1071" on="1"/>
        <pt x="732" y="1038" on="0"/>
        <pt x="724" y="1022" on="1"/>
        <pt x="724" y="1004" on="0"/>
        <pt x="742" y="987" on="0"/>
        <pt x="762" y="977" on="0"/>
        <pt x="769" y="971" on="0"/>
        <pt x="773" y="968" on="0"/>
        <pt x="775" y="966" on="1"/>
        <pt x="778" y="964" on="0"/>
        <pt x="778" y="952" on="0"/>
      </contour>
    </TTGlyph>
    <TTGlyph name="Aacute" xMin="-143" yMin="-145" xMax="1350" yMax="2390">
      <component glyphName="acute" x="1" y="1632" flags="0x1004"/>
      <component glyphName="A" x="0" y="0" flags="0x1204"/>
    </TTGlyph>
    <TTGlyph name="Abreve" xMin="-143" yMin="-145" xMax="1282" yMax="2187">
      <component glyphName="breve" x="84" y="306" flags="0x1004"/>
      <component glyphName="A" x="0" y="0" flags="0x1204"/>
    </TTGlyph>
    <TTGlyph name="Acircumflex" xMin="-143" yMin="-145" xMax="1282" yMax="2298">
      <component glyphName="circumflex" x="272" y="742" flags="0x1004"/>
      <component glyphName="A" x="0" y="0" flags="0x1204"/>
    </TTGlyph>
    <TTGlyph name="Adieresis" xMin="-143" yMin="-145" xMax="1282" yMax="2127">
      <component glyphName="dieresis" x="92" y="669" flags="0x1004"/>
      <component glyphName="A" x="0" y="0" flags="0x1204"/>
    </TTGlyph>
    <TTGlyph name="Agrave" xMin="-348" yMin="-145" xMax="1282" yMax="2672">
      <component glyphName="grave" x="-470" y="1306" flags="0x1004"/>
      <component glyphName="A" x="0" y="0" flags="0x1204"/>
    </TTGlyph>
    <TTGlyph name="Amacron" xMin="-143" yMin="-145" xMax="1282" yMax="2011">
      <component glyphName="macron" x="58" y="633" flags="0x1004"/>
      <component glyphName="A" x="0" y="0" flags="0x1204"/>
    </TTGlyph>
    <TTGlyph name="Aogonek" xMin="-143" yMin="-593" xMax="1282" yMax="1692">
      <component glyphName="ogonek" x="293" y="-317" flags="0x1004"/>
      <component glyphName="A" x="0" y="0" flags="0x1004"/>
    </TTGlyph>
    <TTGlyph name="Aring" xMin="-143" yMin="-145" xMax="1282" yMax="2328">
      <component glyphName="ring" x="74" y="169" flags="0x1004"/>
      <component glyphName="A" x="0" y="0" flags="0x1204"/>
    </TTGlyph>
    <TTGlyph name="Atilde" xMin="-143" yMin="-145" xMax="1282" yMax="2164">
      <component glyphName="tilde" x="124" y="720" flags="0x1004"/>
      <component glyphName="A" x="0" y="0" flags="0x1204"/>
    </TTGlyph>
    <TTGlyph name="B" xMin="-15" yMin="115" xMax="1317" yMax="1737">
      <contour>
        <pt x="879" y="219" on="1"/>
        <pt x="879" y="272" on="0"/>
        <pt x="764" y="272" on="1"/>
        <pt x="714" y="272" on="0"/>
        <pt x="709" y="240" on="1"/>
        <pt x="703" y="206" on="0"/>
        <pt x="673" y="195" on="1"/>
        <pt x="657" y="188" on="0"/>
        <pt x="638" y="147" on="0"/>
        <pt x="610" y="115" on="0"/>
        <pt x="555" y="115" on="0"/>
        <pt x="523" y="177" on="0"/>
        <pt x="523" y="197" on="1"/>
        <pt x="523" y="229" on="1"/>
        <pt x="523" y="249" on="0"/>
        <pt x="502" y="260" on="0"/>
        <pt x="464" y="276" on="1"/>
        <pt x="472" y="301" on="1"/>
        <pt x="522" y="283" on="0"/>
        <pt x="525" y="283" on="1"/>
        <pt x="546" y="283" on="0"/>
        <pt x="597" y="363" on="0"/>
        <pt x="597" y="408" on="0"/>
        <pt x="564" y="491" on="0"/>
        <pt x="564" y="533" on="0"/>
        <pt x="554" y="543" on="1"/>
        <pt x="480" y="609" on="0"/>
        <pt x="480" y="944" on="1"/>
        <pt x="480" y="1024" on="1"/>
        <pt x="480" y="1051" on="0"/>
        <pt x="460" y="1096" on="1"/>
        <pt x="425" y="1179" on="0"/>
        <pt x="425" y="1257" on="1"/>
        <pt x="431" y="1423" on="1"/>
        <pt x="427" y="1450" on="0"/>
        <pt x="409" y="1450" on="1"/>
        <pt x="370" y="1442" on="1"/>
        <pt x="335" y="1442" on="0"/>
        <pt x="211" y="1503" on="0"/>
        <pt x="167" y="1503" on="0"/>
        <pt x="155" y="1499" on="1"/>
        <pt x="204" y="1440" on="1"/>
        <pt x="151" y="1495" on="1"/>
        <pt x="133" y="1488" on="0"/>
        <pt x="108" y="1452" on="1"/>
        <pt x="75" y="1475" on="1"/>
        <pt x="101" y="1511" on="0"/>
        <pt x="101" y="1540" on="1"/>
        <pt x="33" y="1595" on="0"/>
        <pt x="-15" y="1618" on="1"/>
        <pt x="3" y="1659" on="1"/>
        <pt x="59" y="1631" on="0"/>
        <pt x="222" y="1602" on="0"/>
        <pt x="336" y="1602" on="0"/>
        <pt x="532" y="1661" on="0"/>
        <pt x="614" y="1661" on="0"/>
        <pt x="713" y="1616" on="0"/>
        <pt x="761" y="1616" on="0"/>
        <pt x="785" y="1639" on="0"/>
        <pt x="785" y="1670" on="0"/>
        <pt x="760" y="1724" on="1"/>
        <pt x="773" y="1731" on="1"/>
        <pt x="795" y="1685" on="0"/>
        <pt x="818" y="1661" on="0"/>
        <pt x="832" y="1661" on="1"/>
        <pt x="838" y="1661" on="1"/>
        <pt x="866" y="1661" on="0"/>
        <pt x="895" y="1687" on="0"/>
        <pt x="910" y="1737" on="1"/>
        <pt x="938" y="1729" on="1"/>
        <pt x="930" y="1696" on="0"/>
        <pt x="930" y="1654" on="0"/>
        <pt x="960" y="1618" on="0"/>
        <pt x="987" y="1618" on="0"/>
        <pt x="990" y="1619" on="1"/>
        <pt x="1002" y="1622" on="0"/>
        <pt x="1002" y="1673" on="0"/>
        <pt x="986" y="1724" on="1"/>
        <pt x="1002" y="1729" on="1"/>
        <pt x="1021" y="1664" on="0"/>
        <pt x="1056" y="1633" on="0"/>
        <pt x="1068" y="1620" on="0"/>
        <pt x="1095" y="1611" on="0"/>
        <pt x="1100" y="1609" on="1"/>
        <pt x="1111" y="1604" on="0"/>
        <pt x="1134" y="1604" on="1"/>
        <pt x="1176" y="1604" on="1"/>
        <pt x="1192" y="1604" on="0"/>
        <pt x="1213" y="1616" on="1"/>
        <pt x="1252" y="1651" on="1"/>
        <pt x="1264" y="1628" on="1"/>
        <pt x="1221" y="1591" on="0"/>
        <pt x="1215" y="1565" on="1"/>
        <pt x="1221" y="1545" on="0"/>
        <pt x="1239" y="1542" on="1"/>
        <pt x="1278" y="1523" on="0"/>
        <pt x="1317" y="1295" on="0"/>
        <pt x="1317" y="1118" on="0"/>
        <pt x="1229" y="1030" on="1"/>
        <pt x="1224" y="1024" on="0"/>
        <pt x="1216" y="994" on="0"/>
        <pt x="1175" y="969" on="0"/>
        <pt x="1154" y="964" on="1"/>
        <pt x="1096" y="952" on="0"/>
        <pt x="1096" y="924" on="1"/>
        <pt x="1097" y="918" on="0"/>
        <pt x="1102" y="890" on="1"/>
        <pt x="1110" y="835" on="0"/>
        <pt x="1120" y="817" on="1"/>
        <pt x="1157" y="780" on="0"/>
        <pt x="1157" y="634" on="0"/>
        <pt x="1107" y="389" on="0"/>
        <pt x="1071" y="377" on="1"/>
        <pt x="1064" y="377" on="0"/>
        <pt x="989" y="197" on="0"/>
        <pt x="977" y="197" on="1"/>
        <pt x="920" y="201" on="1"/>
        <pt x="898" y="201" on="0"/>
        <pt x="859" y="139" on="1"/>
        <pt x="844" y="147" on="1"/>
        <pt x="879" y="198" on="0"/>
      </contour>
      <contour>
        <pt x="715" y="1102" on="1"/>
        <pt x="742" y="1042" on="0"/>
        <pt x="764" y="1042" on="1"/>
        <pt x="777" y="1042" on="1"/>
        <pt x="780" y="1042" on="0"/>
        <pt x="927" y="1116" on="0"/>
        <pt x="945" y="1116" on="0"/>
        <pt x="949" y="1112" on="1"/>
        <pt x="949" y="1131" on="0"/>
        <pt x="924" y="1160" on="0"/>
        <pt x="879" y="1186" on="1"/>
        <pt x="889" y="1202" on="1"/>
        <pt x="944" y="1171" on="0"/>
        <pt x="968" y="1171" on="0"/>
        <pt x="988" y="1180" on="1"/>
        <pt x="1008" y="1190" on="1"/>
        <pt x="1063" y="1278" on="1"/>
        <pt x="1063" y="1291" on="0"/>
        <pt x="1031" y="1309" on="0"/>
        <pt x="993" y="1309" on="0"/>
        <pt x="949" y="1260" on="1"/>
        <pt x="928" y="1278" on="1"/>
        <pt x="969" y="1322" on="0"/>
        <pt x="969" y="1359" on="0"/>
        <pt x="959" y="1376" on="1"/>
        <pt x="930" y="1430" on="1"/>
        <pt x="931" y="1428" on="0"/>
        <pt x="912" y="1442" on="1"/>
        <pt x="850" y="1489" on="0"/>
        <pt x="818" y="1499" on="1"/>
        <pt x="797" y="1499" on="0"/>
        <pt x="789" y="1485" on="1"/>
        <pt x="738" y="1255" on="1"/>
        <pt x="738" y="1148" on="0"/>
      </contour>
      <contour>
        <pt x="842" y="479" on="1"/>
        <pt x="949" y="479" on="0"/>
        <pt x="949" y="719" on="1"/>
        <pt x="949" y="744" on="0"/>
        <pt x="788" y="893" on="0"/>
        <pt x="766" y="893" on="1"/>
        <pt x="752" y="893" on="1"/>
        <pt x="734" y="893" on="0"/>
        <pt x="727" y="874" on="1"/>
        <pt x="707" y="825" on="1"/>
        <pt x="695" y="840" on="1"/>
        <pt x="714" y="811" on="0"/>
        <pt x="750" y="811" on="0"/>
        <pt x="799" y="829" on="1"/>
        <pt x="805" y="811" on="1"/>
        <pt x="758" y="793" on="0"/>
        <pt x="734" y="773" on="0"/>
        <pt x="734" y="756" on="1"/>
        <pt x="734" y="639" on="1"/>
        <pt x="734" y="623" on="0"/>
        <pt x="737" y="615" on="1"/>
        <pt x="744" y="597" on="0"/>
        <pt x="809" y="582" on="1"/>
        <pt x="803" y="557" on="1"/>
        <pt x="773" y="563" on="0"/>
        <pt x="750" y="563" on="1"/>
        <pt x="707" y="563" on="0"/>
        <pt x="707" y="492" on="1"/>
        <pt x="707" y="440" on="1"/>
        <pt x="707" y="427" on="0"/>
        <pt x="756" y="393" on="0"/>
        <pt x="785" y="393" on="0"/>
        <pt x="805" y="427" on="0"/>
        <pt x="805" y="464" on="0"/>
        <pt x="760" y="512" on="1"/>
        <pt x="775" y="526" on="1"/>
        <pt x="821" y="479" on="0"/>
      </contour>
    </TTGlyph>
    <TTGlyph name="C" xMin="6" yMin="-16" xMax="1200" yMax="1634">
      <contour>
        <pt x="416" y="147" on="1"/>
        <pt x="369" y="147" on="0"/>
        <pt x="367" y="27" on="1"/>
        <pt x="355" y="27" on="1"/>
        <pt x="355" y="51" on="1"/>
        <pt x="355" y="141" on="0"/>
        <pt x="311" y="141" on="1"/>
        <pt x="279" y="141" on="0"/>
        <pt x="244" y="123" on="1"/>
        <pt x="240" y="139" on="1"/>
        <pt x="288" y="156" on="0"/>
        <pt x="314" y="176" on="0"/>
        <pt x="314" y="190" on="1"/>
        <pt x="316" y="223" on="1"/>
        <pt x="316" y="227" on="0"/>
        <pt x="309" y="237" on="0"/>
        <pt x="307" y="240" on="1"/>
        <pt x="184" y="383" on="0"/>
        <pt x="70" y="827" on="0"/>
        <pt x="70" y="1085" on="1"/>
        <pt x="72" y="1143" on="1"/>
        <pt x="78" y="1243" on="1"/>
        <pt x="78" y="1257" on="0"/>
        <pt x="75" y="1264" on="1"/>
        <pt x="68" y="1281" on="0"/>
        <pt x="6" y="1303" on="1"/>
        <pt x="15" y="1321" on="1"/>
        <pt x="63" y="1305" on="0"/>
        <pt x="90" y="1305" on="0"/>
        <pt x="325" y="1545" on="0"/>
        <pt x="340" y="1552" on="0"/>
        <pt x="345" y="1557" on="1"/>
        <pt x="360" y="1572" on="0"/>
        <pt x="373" y="1634" on="1"/>
        <pt x="385" y="1632" on="1"/>
        <pt x="375" y="1577" on="0"/>
        <pt x="375" y="1565" on="1"/>
        <pt x="375" y="1519" on="0"/>
        <pt x="438" y="1513" on="1"/>
        <pt x="447" y="1529" on="0"/>
        <pt x="447" y="1560" on="0"/>
        <pt x="410" y="1614" on="1"/>
        <pt x="426" y="1624" on="1"/>
        <pt x="455" y="1581" on="0"/>
        <pt x="485" y="1556" on="0"/>
        <pt x="504" y="1556" on="1"/>
        <pt x="672" y="1556" on="1"/>
        <pt x="694" y="1556" on="0"/>
        <pt x="718" y="1581" on="0"/>
        <pt x="733" y="1630" on="1"/>
        <pt x="758" y="1622" on="1"/>
        <pt x="744" y="1581" on="0"/>
        <pt x="744" y="1537" on="0"/>
        <pt x="814" y="1491" on="0"/>
        <pt x="851" y="1491" on="0"/>
        <pt x="869" y="1511" on="0"/>
        <pt x="869" y="1524" on="1"/>
        <pt x="869" y="1532" on="1"/>
        <pt x="869" y="1562" on="0"/>
        <pt x="811" y="1622" on="1"/>
        <pt x="821" y="1632" on="1"/>
        <pt x="881" y="1575" on="0"/>
        <pt x="912" y="1575" on="1"/>
        <pt x="959" y="1575" on="1"/>
        <pt x="1001" y="1575" on="0"/>
        <pt x="1020" y="1464" on="1"/>
        <pt x="1027" y="1423" on="0"/>
        <pt x="1047" y="1398" on="0"/>
        <pt x="1079" y="1303" on="0"/>
        <pt x="1086" y="1296" on="1"/>
        <pt x="1108" y="1274" on="0"/>
        <pt x="1131" y="1270" on="0"/>
        <pt x="1159" y="1270" on="0"/>
        <pt x="1198" y="1276" on="1"/>
        <pt x="1200" y="1255" on="1"/>
        <pt x="1137" y="1247" on="0"/>
        <pt x="1098" y="1214" on="0"/>
        <pt x="1098" y="1148" on="0"/>
        <pt x="1147" y="1104" on="1"/>
        <pt x="1131" y="1090" on="1"/>
        <pt x="1081" y="1139" on="0"/>
        <pt x="1045" y="1139" on="0"/>
        <pt x="1041" y="1137" on="1"/>
        <pt x="1039" y="1137" on="1"/>
        <pt x="1024" y="1132" on="0"/>
        <pt x="1016" y="1108" on="0"/>
        <pt x="1016" y="1068" on="0"/>
        <pt x="1020" y="1020" on="1"/>
        <pt x="1012" y="1020" on="1"/>
        <pt x="1002" y="1127" on="0"/>
        <pt x="984" y="1142" on="1"/>
        <pt x="963" y="1158" on="0"/>
        <pt x="959" y="1186" on="1"/>
        <pt x="959" y="1192" on="0"/>
        <pt x="924" y="1224" on="1"/>
        <pt x="806" y="1332" on="0"/>
        <pt x="781" y="1376" on="0"/>
        <pt x="764" y="1376" on="1"/>
        <pt x="545" y="1376" on="1"/>
        <pt x="532" y="1376" on="0"/>
        <pt x="511" y="1347" on="0"/>
        <pt x="486" y="1314" on="0"/>
        <pt x="449" y="1305" on="0"/>
        <pt x="414" y="1222" on="0"/>
        <pt x="375" y="1108" on="0"/>
        <pt x="355" y="1081" on="1"/>
        <pt x="359" y="1035" on="0"/>
        <pt x="362" y="785" on="0"/>
        <pt x="365" y="772" on="1"/>
        <pt x="391" y="744" on="0"/>
        <pt x="411" y="691" on="1"/>
        <pt x="478" y="514" on="0"/>
        <pt x="552" y="440" on="1"/>
        <pt x="560" y="432" on="0"/>
        <pt x="568" y="423" on="0"/>
        <pt x="581" y="411" on="0"/>
        <pt x="587" y="406" on="0"/>
        <pt x="592" y="402" on="1"/>
        <pt x="608" y="389" on="0"/>
        <pt x="622" y="389" on="0"/>
        <pt x="630" y="392" on="0"/>
        <pt x="636" y="395" on="0"/>
        <pt x="646" y="403" on="0"/>
        <pt x="652" y="409" on="0"/>
        <pt x="659" y="416" on="1"/>
        <pt x="617" y="375" on="1"/>
        <pt x="719" y="375" on="0"/>
        <pt x="772" y="354" on="1"/>
        <pt x="781" y="354" on="0"/>
        <pt x="787" y="360" on="1"/>
        <pt x="862" y="416" on="1"/>
        <pt x="868" y="422" on="0"/>
        <pt x="894" y="473" on="0"/>
        <pt x="903" y="483" on="1"/>
        <pt x="977" y="561" on="0"/>
        <pt x="1022" y="592" on="1"/>
        <pt x="1034" y="638" on="0"/>
        <pt x="1076" y="717" on="0"/>
        <pt x="1077" y="717" on="1"/>
        <pt x="1075" y="713" on="0"/>
        <pt x="1075" y="705" on="1"/>
        <pt x="1075" y="612" on="1"/>
        <pt x="1079" y="612" on="1"/>
        <pt x="1093" y="612" on="0"/>
        <pt x="1110" y="602" on="1"/>
        <pt x="1075" y="553" on="1"/>
        <pt x="1075" y="442" on="1"/>
        <pt x="1075" y="405" on="0"/>
        <pt x="1024" y="305" on="0"/>
        <pt x="1018" y="287" on="1"/>
        <pt x="1018" y="262" on="0"/>
        <pt x="1065" y="223" on="1"/>
        <pt x="1049" y="205" on="1"/>
        <pt x="1007" y="244" on="0"/>
        <pt x="974" y="244" on="0"/>
        <pt x="961" y="233" on="1"/>
        <pt x="959" y="233" on="1"/>
        <pt x="954" y="233" on="0"/>
        <pt x="948" y="211" on="1"/>
        <pt x="948" y="-16" on="1"/>
        <pt x="922" y="-16" on="1"/>
        <pt x="922" y="39" on="1"/>
        <pt x="922" y="106" on="0"/>
        <pt x="869" y="162" on="0"/>
        <pt x="807" y="162" on="1"/>
        <pt x="785" y="162" on="1"/>
        <pt x="592" y="133" on="1"/>
        <pt x="590" y="132" on="0"/>
        <pt x="583" y="128" on="0"/>
        <pt x="581" y="127" on="0"/>
        <pt x="576" y="123" on="0"/>
        <pt x="575" y="120" on="0"/>
        <pt x="574" y="118" on="1"/>
        <pt x="572" y="112" on="0"/>
        <pt x="572" y="104" on="1"/>
        <pt x="574" y="27" on="1"/>
        <pt x="559" y="25" on="1"/>
        <pt x="557" y="98" on="1"/>
        <pt x="557" y="109" on="0"/>
        <pt x="540" y="127" on="0"/>
        <pt x="529" y="127" on="1"/>
        <pt x="459" y="129" on="1"/>
        <pt x="443" y="129" on="0"/>
        <pt x="400" y="68" on="1"/>
        <pt x="391" y="74" on="1"/>
        <pt x="430" y="129" on="0"/>
        <pt x="430" y="141" on="1"/>
        <pt x="424" y="147" on="0"/>
      </contour>
    </TTGlyph>
    <TTGlyph name="Cacute" xMin="6" yMin="-16" xMax="1383" yMax="2351">
      <component glyphName="acute" x="34" y="1593" flags="0x1004"/>
      <component glyphName="C" x="0" y="0" flags="0x1204"/>
    </TTGlyph>
    <TTGlyph name="Ccaron" xMin="6" yMin="-16" xMax="1200" yMax="2278">
      <component glyphName="caron" x="230" y="578" flags="0x1004"/>
      <component glyphName="C" x="0" y="0" flags="0x1204"/>
    </TTGlyph>
    <TTGlyph name="Ccedilla" xMin="6" yMin="-457" xMax="1200" yMax="1634">
      <component glyphName="cedilla" x="71" y="-23" flags="0x1004"/>
      <component glyphName="C" x="0" y="0" flags="0x1204"/>
    </TTGlyph>
    <TTGlyph name="Ccircumflex" xMin="6" yMin="-16" xMax="1200" yMax="2320">
      <component glyphName="circumflex" x="216" y="764" flags="0x1004"/>
      <component glyphName="C" x="0" y="0" flags="0x1204"/>
    </TTGlyph>
    <TTGlyph name="Cdotaccent" xMin="6" yMin="-16" xMax="1200" yMax="2010">
      <component glyphName="dotaccent" x="296" y="1473" flags="0x1004"/>
      <component glyphName="C" x="0" y="0" flags="0x1204"/>
    </TTGlyph>
    <TTGlyph name="D" xMin="-23" yMin="18" xMax="1444" yMax="1675">
      <contour>
        <pt x="643" y="162" on="1"/>
        <pt x="635" y="176" on="0"/>
        <pt x="623" y="190" on="1"/>
        <pt x="614" y="189" on="0"/>
        <pt x="609" y="186" on="1"/>
        <pt x="597" y="177" on="0"/>
        <pt x="584" y="113" on="1"/>
        <pt x="569" y="117" on="1"/>
        <pt x="577" y="154" on="0"/>
        <pt x="577" y="200" on="0"/>
        <pt x="521" y="221" on="0"/>
        <pt x="491" y="221" on="1"/>
        <pt x="376" y="221" on="0"/>
        <pt x="209" y="117" on="0"/>
        <pt x="209" y="43" on="1"/>
        <pt x="186" y="51" on="1"/>
        <pt x="203" y="117" on="1"/>
        <pt x="203" y="137" on="0"/>
        <pt x="231" y="213" on="0"/>
        <pt x="231" y="253" on="0"/>
        <pt x="172" y="285" on="1"/>
        <pt x="184" y="303" on="1"/>
        <pt x="228" y="279" on="0"/>
        <pt x="258" y="279" on="0"/>
        <pt x="272" y="293" on="1"/>
        <pt x="293" y="322" on="1"/>
        <pt x="297" y="326" on="0"/>
        <pt x="297" y="344" on="0"/>
        <pt x="295" y="348" on="1"/>
        <pt x="254" y="443" on="0"/>
        <pt x="254" y="621" on="1"/>
        <pt x="244" y="692" on="1"/>
        <pt x="246" y="709" on="1"/>
        <pt x="246" y="715" on="0"/>
        <pt x="242" y="723" on="1"/>
        <pt x="211" y="770" on="0"/>
        <pt x="211" y="866" on="0"/>
        <pt x="222" y="932" on="0"/>
        <pt x="233" y="977" on="0"/>
        <pt x="256" y="1054" on="0"/>
        <pt x="260" y="1083" on="0"/>
        <pt x="258" y="1090" on="1"/>
        <pt x="248" y="1108" on="1"/>
        <pt x="234" y="1133" on="0"/>
        <pt x="189" y="1133" on="0"/>
        <pt x="154" y="1128" on="1"/>
        <pt x="151" y="1151" on="1"/>
        <pt x="200" y="1158" on="0"/>
        <pt x="230" y="1177" on="0"/>
        <pt x="235" y="1196" on="1"/>
        <pt x="246" y="1251" on="0"/>
        <pt x="246" y="1345" on="0"/>
        <pt x="207" y="1460" on="0"/>
        <pt x="176" y="1460" on="1"/>
        <pt x="168" y="1460" on="0"/>
        <pt x="164" y="1458" on="1"/>
        <pt x="76" y="1421" on="1"/>
        <pt x="41" y="1406" on="0"/>
        <pt x="-14" y="1343" on="1"/>
        <pt x="-23" y="1352" on="1"/>
        <pt x="37" y="1415" on="0"/>
        <pt x="55" y="1482" on="0"/>
        <pt x="151" y="1583" on="0"/>
        <pt x="151" y="1623" on="0"/>
        <pt x="137" y="1669" on="1"/>
        <pt x="156" y="1675" on="1"/>
        <pt x="173" y="1626" on="0"/>
        <pt x="196" y="1599" on="0"/>
        <pt x="227" y="1596" on="0"/>
        <pt x="280" y="1591" on="0"/>
        <pt x="296" y="1589" on="1"/>
        <pt x="346" y="1583" on="0"/>
        <pt x="437" y="1556" on="0"/>
        <pt x="645" y="1505" on="0"/>
        <pt x="769" y="1472" on="0"/>
        <pt x="852" y="1446" on="1"/>
        <pt x="1014" y="1394" on="0"/>
        <pt x="1151" y="1309" on="1"/>
        <pt x="1160" y="1303" on="0"/>
        <pt x="1195" y="1303" on="0"/>
        <pt x="1243" y="1335" on="1"/>
        <pt x="1253" y="1319" on="1"/>
        <pt x="1215" y="1294" on="0"/>
        <pt x="1190" y="1270" on="0"/>
        <pt x="1190" y="1242" on="0"/>
        <pt x="1257" y="1185" on="0"/>
        <pt x="1270" y="1150" on="0"/>
        <pt x="1342" y="1114" on="0"/>
        <pt x="1398" y="1114" on="0"/>
        <pt x="1442" y="1120" on="1"/>
        <pt x="1444" y="1108" on="1"/>
        <pt x="1325" y="1093" on="0"/>
        <pt x="1325" y="1047" on="1"/>
        <pt x="1325" y="1038" on="0"/>
        <pt x="1329" y="1030" on="1"/>
        <pt x="1378" y="942" on="0"/>
        <pt x="1378" y="780" on="1"/>
        <pt x="1378" y="637" on="0"/>
        <pt x="1278" y="508" on="1"/>
        <pt x="1235" y="452" on="0"/>
        <pt x="1134" y="328" on="0"/>
        <pt x="1091" y="274" on="1"/>
        <pt x="991" y="150" on="0"/>
        <pt x="991" y="18" on="1"/>
        <pt x="975" y="20" on="1"/>
        <pt x="979" y="88" on="1"/>
        <pt x="979" y="154" on="0"/>
        <pt x="961" y="223" on="0"/>
        <pt x="932" y="223" on="1"/>
        <pt x="868" y="211" on="1"/>
        <pt x="853" y="206" on="0"/>
        <pt x="692" y="185" on="0"/>
        <pt x="657" y="154" on="1"/>
        <pt x="651" y="129" on="1"/>
        <pt x="651" y="141" on="0"/>
        <pt x="649" y="147" on="1"/>
        <pt x="646" y="145" on="0"/>
        <pt x="614" y="113" on="1"/>
        <pt x="606" y="119" on="1"/>
        <pt x="634" y="149" on="0"/>
      </contour>
      <contour>
        <pt x="489" y="459" on="1"/>
        <pt x="475" y="389" on="1"/>
        <pt x="475" y="346" on="0"/>
        <pt x="489" y="346" on="1"/>
        <pt x="496" y="350" on="1"/>
        <pt x="526" y="350" on="0"/>
        <pt x="543" y="391" on="0"/>
        <pt x="543" y="444" on="1"/>
        <pt x="565" y="444" on="1"/>
        <pt x="569" y="376" on="0"/>
        <pt x="592" y="365" on="1"/>
        <pt x="604" y="365" on="0"/>
        <pt x="646" y="391" on="0"/>
        <pt x="661" y="391" on="1"/>
        <pt x="709" y="383" on="1"/>
        <pt x="727" y="383" on="0"/>
        <pt x="747" y="423" on="0"/>
        <pt x="804" y="467" on="0"/>
        <pt x="858" y="497" on="0"/>
        <pt x="901" y="538" on="0"/>
        <pt x="901" y="576" on="0"/>
        <pt x="860" y="616" on="1"/>
        <pt x="881" y="639" on="1"/>
        <pt x="919" y="600" on="0"/>
        <pt x="953" y="600" on="0"/>
        <pt x="971" y="616" on="1"/>
        <pt x="989" y="633" on="1"/>
        <pt x="994" y="638" on="0"/>
        <pt x="998" y="654" on="0"/>
        <pt x="1003" y="681" on="0"/>
        <pt x="1005" y="689" on="0"/>
        <pt x="1011" y="706" on="0"/>
        <pt x="1014" y="708" on="1"/>
        <pt x="1029" y="724" on="0"/>
        <pt x="1053" y="733" on="1"/>
        <pt x="1064" y="739" on="0"/>
        <pt x="1067" y="754" on="1"/>
        <pt x="1079" y="817" on="1"/>
        <pt x="1079" y="827" on="0"/>
        <pt x="1070" y="846" on="0"/>
        <pt x="1064" y="885" on="1"/>
        <pt x="1048" y="981" on="0"/>
        <pt x="1020" y="981" on="1"/>
        <pt x="944" y="958" on="1"/>
        <pt x="926" y="1028" on="1"/>
        <pt x="982" y="1039" on="0"/>
        <pt x="994" y="1061" on="1"/>
        <pt x="998" y="1067" on="0"/>
        <pt x="1001" y="1075" on="1"/>
        <pt x="1001" y="1077" on="1"/>
        <pt x="945" y="1187" on="0"/>
        <pt x="732" y="1362" on="0"/>
        <pt x="631" y="1362" on="1"/>
        <pt x="604" y="1362" on="0"/>
        <pt x="604" y="1343" on="1"/>
        <pt x="608" y="1315" on="1"/>
        <pt x="608" y="1290" on="0"/>
        <pt x="567" y="1120" on="0"/>
        <pt x="567" y="1112" on="1"/>
        <pt x="567" y="1089" on="0"/>
        <pt x="629" y="1059" on="1"/>
        <pt x="618" y="1042" on="1"/>
        <pt x="573" y="1067" on="0"/>
        <pt x="535" y="1067" on="0"/>
        <pt x="508" y="1020" on="0"/>
        <pt x="508" y="989" on="0"/>
        <pt x="510" y="981" on="1"/>
        <pt x="516" y="956" on="0"/>
        <pt x="580" y="956" on="0"/>
        <pt x="600" y="958" on="1"/>
        <pt x="602" y="946" on="1"/>
        <pt x="550" y="940" on="0"/>
        <pt x="524" y="930" on="0"/>
        <pt x="522" y="918" on="1"/>
        <pt x="481" y="741" on="1"/>
        <pt x="479" y="735" on="1"/>
        <pt x="496" y="678" on="1"/>
        <pt x="477" y="584" on="1"/>
      </contour>
    </TTGlyph>
    <TTGlyph name="Dcaron" xMin="-23" yMin="18" xMax="1444" yMax="2300">
      <component glyphName="caron" x="333" y="600" flags="0x1004"/>
      <component glyphName="D" x="0" y="0" flags="0x1204"/>
    </TTGlyph>
    <TTGlyph name="Dcroat" xMin="-23" yMin="18" xMax="1444" yMax="1675">
      <component glyphName="Eth" x="0" y="0" flags="0x1004"/>
    </TTGlyph>
    <TTGlyph name="E" xMin="-41" yMin="-16" xMax="1397" yMax="1780">
      <contour>
        <pt x="1083" y="1389" on="1"/>
        <pt x="1039" y="1454" on="0"/>
        <pt x="997" y="1454" on="1"/>
        <pt x="700" y="1452" on="1"/>
        <pt x="685" y="1452" on="0"/>
        <pt x="664" y="1376" on="0"/>
        <pt x="664" y="1317" on="1"/>
        <pt x="670" y="1294" on="1"/>
        <pt x="670" y="1292" on="0"/>
        <pt x="692" y="1262" on="0"/>
        <pt x="692" y="1200" on="1"/>
        <pt x="682" y="1055" on="1"/>
        <pt x="682" y="1012" on="0"/>
        <pt x="708" y="913" on="0"/>
        <pt x="731" y="913" on="1"/>
        <pt x="734" y="913" on="0"/>
        <pt x="821" y="950" on="0"/>
        <pt x="883" y="950" on="0"/>
        <pt x="899" y="948" on="1"/>
        <pt x="934" y="948" on="0"/>
        <pt x="934" y="981" on="1"/>
        <pt x="934" y="1118" on="1"/>
        <pt x="934" y="1136" on="0"/>
        <pt x="897" y="1160" on="0"/>
        <pt x="864" y="1174" on="1"/>
        <pt x="870" y="1186" on="1"/>
        <pt x="909" y="1161" on="0"/>
        <pt x="950" y="1161" on="0"/>
        <pt x="973" y="1181" on="0"/>
        <pt x="995" y="1260" on="1"/>
        <pt x="1003" y="1257" on="1"/>
        <pt x="985" y="1197" on="0"/>
        <pt x="985" y="1149" on="0"/>
        <pt x="1042" y="1087" on="0"/>
        <pt x="1084" y="1087" on="0"/>
        <pt x="1143" y="1114" on="1"/>
        <pt x="1153" y="1096" on="1"/>
        <pt x="1107" y="1069" on="0"/>
        <pt x="1083" y="1041" on="0"/>
        <pt x="1083" y="1018" on="1"/>
        <pt x="1083" y="1014" on="1"/>
        <pt x="1082" y="1005" on="0"/>
        <pt x="1140" y="939" on="0"/>
        <pt x="1139" y="909" on="1"/>
        <pt x="1137" y="854" on="1"/>
        <pt x="1137" y="838" on="0"/>
        <pt x="1163" y="823" on="1"/>
        <pt x="1164" y="823" on="0"/>
        <pt x="1214" y="803" on="1"/>
        <pt x="1206" y="774" on="1"/>
        <pt x="1153" y="795" on="1"/>
        <pt x="1147" y="797" on="0"/>
        <pt x="1125" y="797" on="0"/>
        <pt x="1108" y="780" on="1"/>
        <pt x="1087" y="752" on="1"/>
        <pt x="1083" y="744" on="0"/>
        <pt x="1083" y="737" on="1"/>
        <pt x="1087" y="698" on="1"/>
        <pt x="1087" y="624" on="0"/>
        <pt x="1053" y="590" on="1"/>
        <pt x="1026" y="563" on="0"/>
        <pt x="1024" y="481" on="1"/>
        <pt x="1008" y="481" on="1"/>
        <pt x="1008" y="502" on="1"/>
        <pt x="1008" y="565" on="0"/>
        <pt x="983" y="592" on="1"/>
        <pt x="916" y="661" on="0"/>
        <pt x="909" y="803" on="1"/>
        <pt x="909" y="827" on="0"/>
        <pt x="889" y="827" on="1"/>
        <pt x="799" y="813" on="1"/>
        <pt x="739" y="817" on="1"/>
        <pt x="717" y="817" on="0"/>
        <pt x="682" y="726" on="0"/>
        <pt x="682" y="694" on="1"/>
        <pt x="682" y="653" on="1"/>
        <pt x="682" y="496" on="0"/>
        <pt x="686" y="496" on="1"/>
        <pt x="708" y="496" on="0"/>
        <pt x="737" y="504" on="1"/>
        <pt x="745" y="475" on="1"/>
        <pt x="695" y="463" on="0"/>
        <pt x="670" y="436" on="0"/>
        <pt x="670" y="410" on="1"/>
        <pt x="670" y="369" on="1"/>
        <pt x="670" y="338" on="0"/>
        <pt x="700" y="338" on="1"/>
        <pt x="856" y="338" on="1"/>
        <pt x="882" y="338" on="0"/>
        <pt x="908" y="364" on="0"/>
        <pt x="920" y="414" on="1"/>
        <pt x="948" y="408" on="1"/>
        <pt x="940" y="377" on="0"/>
        <pt x="940" y="356" on="1"/>
        <pt x="940" y="323" on="0"/>
        <pt x="1062" y="274" on="0"/>
        <pt x="1091" y="274" on="1"/>
        <pt x="1139" y="274" on="0"/>
        <pt x="1141" y="303" on="1"/>
        <pt x="1149" y="350" on="1"/>
        <pt x="1161" y="424" on="0"/>
        <pt x="1290" y="438" on="1"/>
        <pt x="1321" y="441" on="0"/>
        <pt x="1386" y="498" on="1"/>
        <pt x="1397" y="487" on="1"/>
        <pt x="1332" y="430" on="0"/>
        <pt x="1319" y="363" on="0"/>
        <pt x="1283" y="149" on="0"/>
        <pt x="1264" y="84" on="0"/>
        <pt x="1264" y="72" on="1"/>
        <pt x="1292" y="-10" on="1"/>
        <pt x="1270" y="-16" on="1"/>
        <pt x="1236" y="72" on="0"/>
        <pt x="1241" y="67" on="1"/>
        <pt x="1228" y="89" on="0"/>
        <pt x="1199" y="95" on="0"/>
        <pt x="1178" y="102" on="0"/>
        <pt x="1165" y="102" on="1"/>
        <pt x="1133" y="102" on="0"/>
        <pt x="1110" y="45" on="1"/>
        <pt x="1092" y="53" on="1"/>
        <pt x="1108" y="94" on="0"/>
        <pt x="1108" y="125" on="0"/>
        <pt x="1111" y="125" on="0"/>
        <pt x="1113" y="124" on="0"/>
        <pt x="1116" y="123" on="1"/>
        <pt x="1084" y="138" on="0"/>
        <pt x="967" y="171" on="0"/>
        <pt x="936" y="188" on="0"/>
        <pt x="928" y="188" on="1"/>
        <pt x="471" y="188" on="1"/>
        <pt x="372" y="188" on="0"/>
        <pt x="360" y="139" on="1"/>
        <pt x="322" y="53" on="1"/>
        <pt x="289" y="68" on="1"/>
        <pt x="332" y="158" on="1"/>
        <pt x="342" y="202" on="0"/>
        <pt x="342" y="340" on="0"/>
        <pt x="276" y="1063" on="0"/>
        <pt x="274" y="1255" on="1"/>
        <pt x="272" y="1275" on="0"/>
        <pt x="247" y="1299" on="0"/>
        <pt x="199" y="1315" on="1"/>
        <pt x="205" y="1335" on="1"/>
        <pt x="265" y="1319" on="0"/>
        <pt x="278" y="1319" on="0"/>
        <pt x="282" y="1320" on="1"/>
        <pt x="294" y="1321" on="0"/>
        <pt x="301" y="1337" on="1"/>
        <pt x="326" y="1368" on="1"/>
        <pt x="336" y="1395" on="1"/>
        <pt x="338" y="1403" on="1"/>
        <pt x="330" y="1434" on="1"/>
        <pt x="325" y="1448" on="0"/>
        <pt x="226" y="1475" on="0"/>
        <pt x="175" y="1475" on="0"/>
        <pt x="143" y="1413" on="1"/>
        <pt x="121" y="1425" on="1"/>
        <pt x="141" y="1469" on="0"/>
        <pt x="141" y="1500" on="0"/>
        <pt x="123" y="1520" on="1"/>
        <pt x="72" y="1563" on="1"/>
        <pt x="50" y="1579" on="0"/>
        <pt x="33" y="1579" on="0"/>
        <pt x="-33" y="1563" on="1"/>
        <pt x="-41" y="1583" on="1"/>
        <pt x="13" y="1602" on="0"/>
        <pt x="45" y="1638" on="0"/>
        <pt x="45" y="1665" on="1"/>
        <pt x="45" y="1688" on="1"/>
        <pt x="45" y="1707" on="0"/>
        <pt x="-10" y="1759" on="1"/>
        <pt x="-4" y="1765" on="1"/>
        <pt x="51" y="1710" on="0"/>
        <pt x="68" y="1710" on="1"/>
        <pt x="72" y="1710" on="1"/>
        <pt x="85" y="1710" on="0"/>
        <pt x="106" y="1747" on="0"/>
        <pt x="121" y="1780" on="1"/>
        <pt x="129" y="1776" on="1"/>
        <pt x="104" y="1722" on="0"/>
        <pt x="104" y="1698" on="0"/>
        <pt x="122" y="1677" on="0"/>
        <pt x="129" y="1677" on="1"/>
        <pt x="135" y="1677" on="1"/>
        <pt x="158" y="1681" on="0"/>
        <pt x="178" y="1751" on="1"/>
        <pt x="199" y="1745" on="1"/>
        <pt x="188" y="1710" on="0"/>
        <pt x="188" y="1661" on="0"/>
        <pt x="289" y="1612" on="0"/>
        <pt x="317" y="1612" on="1"/>
        <pt x="338" y="1612" on="0"/>
        <pt x="369" y="1675" on="1"/>
        <pt x="387" y="1667" on="1"/>
        <pt x="362" y="1612" on="0"/>
        <pt x="362" y="1602" on="1"/>
        <pt x="362" y="1579" on="0"/>
        <pt x="461" y="1532" on="0"/>
        <pt x="505" y="1532" on="0"/>
        <pt x="527" y="1556" on="0"/>
        <pt x="545" y="1595" on="1"/>
        <pt x="565" y="1587" on="1"/>
        <pt x="545" y="1543" on="0"/>
        <pt x="545" y="1526" on="1"/>
        <pt x="549" y="1538" on="0"/>
        <pt x="674" y="1556" on="0"/>
        <pt x="734" y="1556" on="0"/>
        <pt x="759" y="1583" on="0"/>
        <pt x="776" y="1626" on="1"/>
        <pt x="797" y="1616" on="1"/>
        <pt x="776" y="1570" on="0"/>
        <pt x="776" y="1529" on="0"/>
        <pt x="793" y="1520" on="1"/>
        <pt x="806" y="1505" on="0"/>
        <pt x="819" y="1505" on="1"/>
        <pt x="1044" y="1505" on="1"/>
        <pt x="1045" y="1505" on="0"/>
        <pt x="1049" y="1509" on="1"/>
        <pt x="1053" y="1505" on="1"/>
        <pt x="1061" y="1505" on="0"/>
        <pt x="1089" y="1533" on="0"/>
        <pt x="1166" y="1563" on="0"/>
        <pt x="1237" y="1582" on="0"/>
        <pt x="1322" y="1643" on="0"/>
        <pt x="1352" y="1692" on="1"/>
        <pt x="1362" y="1683" on="1"/>
        <pt x="1317" y="1616" on="0"/>
        <pt x="1317" y="1581" on="1"/>
        <pt x="1317" y="1229" on="1"/>
        <pt x="1317" y="1193" on="0"/>
        <pt x="1352" y="1116" on="1"/>
        <pt x="1343" y="1112" on="1"/>
        <pt x="1312" y="1182" on="0"/>
        <pt x="1282" y="1212" on="1"/>
        <pt x="1184" y="1296" on="1"/>
        <pt x="1176" y="1300" on="0"/>
        <pt x="1173" y="1305" on="1"/>
        <pt x="1159" y="1303" on="0"/>
        <pt x="1135" y="1278" on="0"/>
        <pt x="1112" y="1239" on="1"/>
        <pt x="1098" y="1247" on="1"/>
        <pt x="1126" y="1299" on="0"/>
        <pt x="1126" y="1348" on="0"/>
        <pt x="1071" y="1399" on="1"/>
      </contour>
    </TTGlyph>
    <TTGlyph name="Eacute" xMin="-41" yMin="-16" xMax="1458" yMax="2417">
      <component glyphName="acute" x="109" y="1659" flags="0x1004"/>
      <component glyphName="E" x="0" y="0" flags="0x1204"/>
    </TTGlyph>
    <TTGlyph name="Ebreve" xMin="-41" yMin="-16" xMax="1397" yMax="2214">
      <component glyphName="breve" x="192" y="333" flags="0x1004"/>
      <component glyphName="E" x="0" y="0" flags="0x1204"/>
    </TTGlyph>
    <TTGlyph name="Ecaron" xMin="-41" yMin="-16" xMax="1397" yMax="2466">
      <component glyphName="caron" x="306" y="766" flags="0x1004"/>
      <component glyphName="E" x="0" y="0" flags="0x1204"/>
    </TTGlyph>
    <TTGlyph name="Ecircumflex" xMin="-41" yMin="-16" xMax="1397" yMax="2386">
      <component glyphName="circumflex" x="291" y="830" flags="0x1004"/>
      <component glyphName="E" x="0" y="0" flags="0x1204"/>
    </TTGlyph>
    <TTGlyph name="Edieresis" xMin="-41" yMin="-16" xMax="1397" yMax="2093">
      <component glyphName="dieresis" x="211" y="635" flags="0x1004"/>
      <component glyphName="E" x="0" y="0" flags="0x1204"/>
    </TTGlyph>
    <TTGlyph name="Edotaccent" xMin="-41" yMin="-16" xMax="1397" yMax="2198">
      <component glyphName="dotaccent" x="371" y="1661" flags="0x1004"/>
      <component glyphName="E" x="0" y="0" flags="0x1204"/>
    </TTGlyph>
    <TTGlyph name="Egrave" xMin="-239" yMin="-16" xMax="1397" yMax="2699">
      <component glyphName="grave" x="-361" y="1333" flags="0x1004"/>
      <component glyphName="E" x="0" y="0" flags="0x1204"/>
    </TTGlyph>
    <TTGlyph name="Emacron" xMin="-41" yMin="-16" xMax="1397" yMax="2038">
      <component glyphName="macron" x="166" y="660" flags="0x1004"/>
      <component glyphName="E" x="0" y="0" flags="0x1204"/>
    </TTGlyph>
    <TTGlyph name="Eogonek" xMin="-41" yMin="-436" xMax="1397" yMax="1780">
      <component glyphName="ogonek" x="508" y="-160" flags="0x1004"/>
      <component glyphName="E" x="0" y="0" flags="0x1004"/>
    </TTGlyph>
    <TTGlyph name="Eth" xMin="-23" yMin="18" xMax="1444" yMax="1675">
      <contour>
        <pt x="244" y="692" on="1"/>
        <pt x="246" y="709" on="1"/>
        <pt x="246" y="715" on="0"/>
        <pt x="229" y="744" on="0"/>
        <pt x="222" y="764" on="1"/>
        <pt x="130" y="762" on="0"/>
        <pt x="82" y="762" on="1"/>
        <pt x="84" y="760" on="0"/>
        <pt x="84" y="758" on="1"/>
        <pt x="84" y="757" on="0"/>
        <pt x="86" y="758" on="1"/>
        <pt x="71" y="740" on="1"/>
        <pt x="65" y="734" on="0"/>
        <pt x="62" y="730" on="1"/>
        <pt x="28" y="756" on="1"/>
        <pt x="50" y="790" on="0"/>
        <pt x="50" y="792" on="1"/>
        <pt x="48" y="798" on="1"/>
        <pt x="32" y="798" on="1"/>
        <pt x="32" y="840" on="1"/>
        <pt x="29" y="834" on="0"/>
        <pt x="14" y="834" on="1"/>
        <pt x="4" y="834" on="1"/>
        <pt x="4" y="882" on="1"/>
        <pt x="20" y="882" on="1"/>
        <pt x="29" y="882" on="0"/>
        <pt x="32" y="874" on="1"/>
        <pt x="32" y="886" on="1"/>
        <pt x="32" y="894" on="0"/>
        <pt x="-20" y="924" on="1"/>
        <pt x="6" y="974" on="1"/>
        <pt x="54" y="947" on="0"/>
        <pt x="54" y="942" on="1"/>
        <pt x="54" y="940" on="1"/>
        <pt x="105" y="972" on="0"/>
        <pt x="162" y="972" on="0"/>
        <pt x="232" y="970" on="1"/>
        <pt x="260" y="1071" on="1"/>
        <pt x="260" y="1083" on="0"/>
        <pt x="258" y="1090" on="1"/>
        <pt x="248" y="1108" on="1"/>
        <pt x="234" y="1133" on="0"/>
        <pt x="189" y="1133" on="0"/>
        <pt x="154" y="1128" on="1"/>
        <pt x="151" y="1151" on="1"/>
        <pt x="200" y="1158" on="0"/>
        <pt x="230" y="1177" on="0"/>
        <pt x="235" y="1196" on="1"/>
        <pt x="246" y="1251" on="0"/>
        <pt x="246" y="1345" on="0"/>
        <pt x="207" y="1460" on="0"/>
        <pt x="176" y="1460" on="1"/>
        <pt x="168" y="1460" on="0"/>
        <pt x="164" y="1458" on="1"/>
        <pt x="76" y="1421" on="1"/>
        <pt x="41" y="1406" on="0"/>
        <pt x="-14" y="1343" on="1"/>
        <pt x="-23" y="1352" on="1"/>
        <pt x="37" y="1415" on="0"/>
        <pt x="55" y="1482" on="0"/>
        <pt x="151" y="1583" on="0"/>
        <pt x="151" y="1623" on="0"/>
        <pt x="137" y="1669" on="1"/>
        <pt x="156" y="1675" on="1"/>
        <pt x="173" y="1626" on="0"/>
        <pt x="196" y="1599" on="0"/>
        <pt x="227" y="1596" on="0"/>
        <pt x="280" y="1591" on="0"/>
        <pt x="296" y="1589" on="1"/>
        <pt x="346" y="1583" on="0"/>
        <pt x="437" y="1556" on="0"/>
        <pt x="645" y="1505" on="0"/>
        <pt x="769" y="1472" on="0"/>
        <pt x="852" y="1446" on="1"/>
        <pt x="1014" y="1394" on="0"/>
        <pt x="1151" y="1309" on="1"/>
        <pt x="1160" y="1303" on="0"/>
        <pt x="1195" y="1303" on="0"/>
        <pt x="1243" y="1335" on="1"/>
        <pt x="1253" y="1319" on="1"/>
        <pt x="1215" y="1294" on="0"/>
        <pt x="1190" y="1270" on="0"/>
        <pt x="1190" y="1242" on="0"/>
        <pt x="1257" y="1185" on="0"/>
        <pt x="1270" y="1150" on="0"/>
        <pt x="1342" y="1114" on="0"/>
        <pt x="1398" y="1114" on="0"/>
        <pt x="1442" y="1120" on="1"/>
        <pt x="1444" y="1108" on="1"/>
        <pt x="1325" y="1093" on="0"/>
        <pt x="1325" y="1047" on="1"/>
        <pt x="1325" y="1038" on="0"/>
        <pt x="1329" y="1030" on="1"/>
        <pt x="1378" y="942" on="0"/>
        <pt x="1378" y="780" on="1"/>
        <pt x="1378" y="637" on="0"/>
        <pt x="1278" y="508" on="1"/>
        <pt x="1235" y="452" on="0"/>
        <pt x="1134" y="328" on="0"/>
        <pt x="1091" y="274" on="1"/>
        <pt x="991" y="150" on="0"/>
        <pt x="991" y="18" on="1"/>
        <pt x="975" y="20" on="1"/>
        <pt x="979" y="88" on="1"/>
        <pt x="979" y="154" on="0"/>
        <pt x="961" y="223" on="0"/>
        <pt x="932" y="223" on="1"/>
        <pt x="868" y="211" on="1"/>
        <pt x="853" y="206" on="0"/>
        <pt x="692" y="185" on="0"/>
        <pt x="657" y="154" on="1"/>
        <pt x="651" y="129" on="1"/>
        <pt x="651" y="141" on="0"/>
        <pt x="649" y="147" on="1"/>
        <pt x="646" y="145" on="0"/>
        <pt x="614" y="113" on="1"/>
        <pt x="606" y="119" on="1"/>
        <pt x="634" y="149" on="0"/>
        <pt x="643" y="162" on="1"/>
        <pt x="635" y="176" on="0"/>
        <pt x="623" y="190" on="1"/>
        <pt x="614" y="189" on="0"/>
        <pt x="609" y="186" on="1"/>
        <pt x="597" y="177" on="0"/>
        <pt x="584" y="113" on="1"/>
        <pt x="569" y="117" on="1"/>
        <pt x="577" y="154" on="0"/>
        <pt x="577" y="200" on="0"/>
        <pt x="521" y="221" on="0"/>
        <pt x="491" y="221" on="1"/>
        <pt x="376" y="221" on="0"/>
        <pt x="209" y="117" on="0"/>
        <pt x="209" y="43" on="1"/>
        <pt x="186" y="51" on="1"/>
        <pt x="203" y="117" on="1"/>
        <pt x="203" y="137" on="0"/>
        <pt x="231" y="213" on="0"/>
        <pt x="231" y="253" on="0"/>
        <pt x="172" y="285" on="1"/>
        <pt x="184" y="303" on="1"/>
        <pt x="228" y="279" on="0"/>
        <pt x="258" y="279" on="0"/>
        <pt x="272" y="293" on="1"/>
        <pt x="293" y="322" on="1"/>
        <pt x="297" y="326" on="0"/>
        <pt x="297" y="344" on="0"/>
        <pt x="295" y="348" on="1"/>
        <pt x="254" y="443" on="0"/>
        <pt x="254" y="621" on="1"/>
      </contour>
      <contour>
        <pt x="489" y="459" on="1"/>
        <pt x="475" y="389" on="1"/>
        <pt x="475" y="346" on="0"/>
        <pt x="489" y="346" on="1"/>
        <pt x="496" y="350" on="1"/>
        <pt x="526" y="350" on="0"/>
        <pt x="543" y="391" on="0"/>
        <pt x="543" y="444" on="1"/>
        <pt x="565" y="444" on="1"/>
        <pt x="569" y="376" on="0"/>
        <pt x="592" y="365" on="1"/>
        <pt x="604" y="365" on="0"/>
        <pt x="646" y="391" on="0"/>
        <pt x="661" y="391" on="1"/>
        <pt x="709" y="383" on="1"/>
        <pt x="727" y="383" on="0"/>
        <pt x="747" y="423" on="0"/>
        <pt x="804" y="467" on="0"/>
        <pt x="858" y="497" on="0"/>
        <pt x="901" y="538" on="0"/>
        <pt x="901" y="576" on="0"/>
        <pt x="860" y="616" on="1"/>
        <pt x="881" y="639" on="1"/>
        <pt x="919" y="600" on="0"/>
        <pt x="953" y="600" on="0"/>
        <pt x="971" y="616" on="1"/>
        <pt x="989" y="633" on="1"/>
        <pt x="994" y="638" on="0"/>
        <pt x="998" y="654" on="0"/>
        <pt x="1003" y="681" on="0"/>
        <pt x="1005" y="689" on="0"/>
        <pt x="1011" y="706" on="0"/>
        <pt x="1014" y="708" on="1"/>
        <pt x="1029" y="724" on="0"/>
        <pt x="1053" y="733" on="1"/>
        <pt x="1064" y="739" on="0"/>
        <pt x="1067" y="754" on="1"/>
        <pt x="1079" y="817" on="1"/>
        <pt x="1079" y="827" on="0"/>
        <pt x="1070" y="846" on="0"/>
        <pt x="1064" y="885" on="1"/>
        <pt x="1048" y="981" on="0"/>
        <pt x="1020" y="981" on="1"/>
        <pt x="944" y="958" on="1"/>
        <pt x="926" y="1028" on="1"/>
        <pt x="982" y="1039" on="0"/>
        <pt x="994" y="1061" on="1"/>
        <pt x="998" y="1067" on="0"/>
        <pt x="1001" y="1075" on="1"/>
        <pt x="1001" y="1077" on="1"/>
        <pt x="945" y="1187" on="0"/>
        <pt x="732" y="1362" on="0"/>
        <pt x="631" y="1362" on="1"/>
        <pt x="604" y="1362" on="0"/>
        <pt x="604" y="1343" on="1"/>
        <pt x="608" y="1315" on="1"/>
        <pt x="608" y="1290" on="0"/>
        <pt x="567" y="1120" on="0"/>
        <pt x="567" y="1112" on="1"/>
        <pt x="567" y="1089" on="0"/>
        <pt x="629" y="1059" on="1"/>
        <pt x="618" y="1042" on="1"/>
        <pt x="573" y="1067" on="0"/>
        <pt x="535" y="1067" on="0"/>
        <pt x="508" y="1020" on="0"/>
        <pt x="508" y="974" on="0"/>
        <pt x="523" y="964" on="1"/>
        <pt x="606" y="964" on="1"/>
        <pt x="683" y="964" on="0"/>
        <pt x="714" y="1030" on="1"/>
        <pt x="804" y="982" on="1"/>
        <pt x="790" y="958" on="0"/>
        <pt x="790" y="944" on="1"/>
        <pt x="822" y="956" on="1"/>
        <pt x="822" y="896" on="1"/>
        <pt x="794" y="888" on="1"/>
        <pt x="802" y="869" on="0"/>
        <pt x="812" y="854" on="1"/>
        <pt x="778" y="830" on="1"/>
        <pt x="820" y="806" on="1"/>
        <pt x="816" y="742" on="1"/>
        <pt x="756" y="768" on="1"/>
        <pt x="756" y="760" on="1"/>
        <pt x="756" y="747" on="0"/>
        <pt x="768" y="716" on="1"/>
        <pt x="696" y="698" on="1"/>
        <pt x="680" y="753" on="0"/>
        <pt x="644" y="764" on="1"/>
        <pt x="613" y="773" on="0"/>
        <pt x="553" y="768" on="0"/>
        <pt x="546" y="768" on="1"/>
        <pt x="487" y="768" on="1"/>
        <pt x="481" y="741" on="1"/>
        <pt x="479" y="735" on="1"/>
        <pt x="496" y="678" on="1"/>
        <pt x="477" y="584" on="1"/>
      </contour>
    </TTGlyph>
    <TTGlyph name="Euro" xMin="-7" yMin="-16" xMax="1414" yMax="1634">
      <contour>
        <pt x="630" y="147" on="1"/>
        <pt x="583" y="147" on="0"/>
        <pt x="581" y="27" on="1"/>
        <pt x="569" y="27" on="1"/>
        <pt x="569" y="51" on="1"/>
        <pt x="569" y="141" on="0"/>
        <pt x="525" y="141" on="1"/>
        <pt x="493" y="141" on="0"/>
        <pt x="458" y="123" on="1"/>
        <pt x="454" y="139" on="1"/>
        <pt x="502" y="156" on="0"/>
        <pt x="528" y="176" on="0"/>
        <pt x="528" y="190" on="1"/>
        <pt x="530" y="223" on="1"/>
        <pt x="530" y="227" on="0"/>
        <pt x="523" y="237" on="0"/>
        <pt x="521" y="240" on="1"/>
        <pt x="365" y="420" on="0"/>
        <pt x="310" y="748" on="1"/>
        <pt x="204" y="748" on="1"/>
        <pt x="100" y="752" on="1"/>
        <pt x="77" y="752" on="0"/>
        <pt x="69" y="748" on="1"/>
        <pt x="9" y="748" on="1"/>
        <pt x="11" y="760" on="0"/>
        <pt x="11" y="786" on="1"/>
        <pt x="11" y="797" on="1"/>
        <pt x="28" y="834" on="1"/>
        <pt x="298" y="834" on="1"/>
        <pt x="289" y="911" on="0"/>
        <pt x="286" y="989" on="1"/>
        <pt x="210" y="989" on="1"/>
        <pt x="141" y="989" on="0"/>
        <pt x="73" y="978" on="0"/>
        <pt x="52" y="958" on="1"/>
        <pt x="-7" y="989" on="1"/>
        <pt x="15" y="1008" on="0"/>
        <pt x="18" y="1028" on="1"/>
        <pt x="16" y="1061" on="1"/>
        <pt x="13" y="1069" on="1"/>
        <pt x="28" y="1069" on="1"/>
        <pt x="24" y="1077" on="0"/>
        <pt x="22" y="1079" on="1"/>
        <pt x="65" y="1096" on="1"/>
        <pt x="87" y="1073" on="0"/>
        <pt x="95" y="1073" on="1"/>
        <pt x="122" y="1075" on="1"/>
        <pt x="284" y="1075" on="1"/>
        <pt x="284" y="1085" on="1"/>
        <pt x="286" y="1143" on="1"/>
        <pt x="292" y="1243" on="1"/>
        <pt x="292" y="1257" on="0"/>
        <pt x="289" y="1264" on="1"/>
        <pt x="282" y="1281" on="0"/>
        <pt x="220" y="1303" on="1"/>
        <pt x="229" y="1321" on="1"/>
        <pt x="277" y="1305" on="0"/>
        <pt x="304" y="1305" on="0"/>
        <pt x="539" y="1545" on="0"/>
        <pt x="554" y="1552" on="0"/>
        <pt x="559" y="1557" on="1"/>
        <pt x="574" y="1572" on="0"/>
        <pt x="587" y="1634" on="1"/>
        <pt x="599" y="1632" on="1"/>
        <pt x="589" y="1577" on="0"/>
        <pt x="589" y="1565" on="1"/>
        <pt x="589" y="1519" on="0"/>
        <pt x="652" y="1513" on="1"/>
        <pt x="661" y="1529" on="0"/>
        <pt x="661" y="1560" on="0"/>
        <pt x="624" y="1614" on="1"/>
        <pt x="640" y="1624" on="1"/>
        <pt x="669" y="1581" on="0"/>
        <pt x="699" y="1556" on="0"/>
        <pt x="718" y="1556" on="1"/>
        <pt x="886" y="1556" on="1"/>
        <pt x="908" y="1556" on="0"/>
        <pt x="932" y="1581" on="0"/>
        <pt x="947" y="1630" on="1"/>
        <pt x="972" y="1622" on="1"/>
        <pt x="958" y="1581" on="0"/>
        <pt x="958" y="1537" on="0"/>
        <pt x="1028" y="1491" on="0"/>
        <pt x="1065" y="1491" on="0"/>
        <pt x="1083" y="1511" on="0"/>
        <pt x="1083" y="1524" on="1"/>
        <pt x="1083" y="1532" on="1"/>
        <pt x="1083" y="1562" on="0"/>
        <pt x="1025" y="1622" on="1"/>
        <pt x="1035" y="1632" on="1"/>
        <pt x="1095" y="1575" on="0"/>
        <pt x="1126" y="1575" on="1"/>
        <pt x="1173" y="1575" on="1"/>
        <pt x="1215" y="1575" on="0"/>
        <pt x="1234" y="1464" on="1"/>
        <pt x="1241" y="1423" on="0"/>
        <pt x="1261" y="1398" on="0"/>
        <pt x="1293" y="1303" on="0"/>
        <pt x="1300" y="1296" on="1"/>
        <pt x="1322" y="1274" on="0"/>
        <pt x="1345" y="1270" on="0"/>
        <pt x="1373" y="1270" on="0"/>
        <pt x="1412" y="1276" on="1"/>
        <pt x="1414" y="1255" on="1"/>
        <pt x="1351" y="1247" on="0"/>
        <pt x="1312" y="1214" on="0"/>
        <pt x="1312" y="1148" on="0"/>
        <pt x="1361" y="1104" on="1"/>
        <pt x="1345" y="1090" on="1"/>
        <pt x="1295" y="1139" on="0"/>
        <pt x="1259" y="1139" on="0"/>
        <pt x="1255" y="1137" on="1"/>
        <pt x="1253" y="1137" on="1"/>
        <pt x="1238" y="1132" on="0"/>
        <pt x="1230" y="1108" on="0"/>
        <pt x="1230" y="1068" on="0"/>
        <pt x="1234" y="1020" on="1"/>
        <pt x="1226" y="1020" on="1"/>
        <pt x="1216" y="1127" on="0"/>
        <pt x="1198" y="1142" on="1"/>
        <pt x="1177" y="1158" on="0"/>
        <pt x="1173" y="1186" on="1"/>
        <pt x="1173" y="1192" on="0"/>
        <pt x="1138" y="1224" on="1"/>
        <pt x="1020" y="1332" on="0"/>
        <pt x="995" y="1376" on="0"/>
        <pt x="978" y="1376" on="1"/>
        <pt x="759" y="1376" on="1"/>
        <pt x="746" y="1376" on="0"/>
        <pt x="725" y="1347" on="0"/>
        <pt x="700" y="1314" on="0"/>
        <pt x="663" y="1305" on="0"/>
        <pt x="628" y="1222" on="0"/>
        <pt x="589" y="1108" on="0"/>
        <pt x="569" y="1081" on="1"/>
        <pt x="569" y="1075" on="1"/>
        <pt x="732" y="1075" on="1"/>
        <pt x="902" y="1073" on="1"/>
        <pt x="953" y="1073" on="0"/>
        <pt x="968" y="1102" on="1"/>
        <pt x="1031" y="1083" on="1"/>
        <pt x="1021" y="1066" on="0"/>
        <pt x="1021" y="1053" on="0"/>
        <pt x="1070" y="1053" on="1"/>
        <pt x="1068" y="1014" on="1"/>
        <pt x="1046" y="1014" on="1"/>
        <pt x="1042" y="1014" on="0"/>
        <pt x="999" y="1012" on="0"/>
        <pt x="999" y="1001" on="1"/>
        <pt x="999" y="997" on="0"/>
        <pt x="1009" y="979" on="1"/>
        <pt x="960" y="963" on="1"/>
        <pt x="945" y="991" on="0"/>
        <pt x="937" y="991" on="1"/>
        <pt x="710" y="989" on="1"/>
        <pt x="573" y="989" on="1"/>
        <pt x="574" y="962" on="0"/>
        <pt x="574" y="856" on="0"/>
        <pt x="575" y="834" on="1"/>
        <pt x="726" y="834" on="1"/>
        <pt x="1031" y="831" on="1"/>
        <pt x="1031" y="821" on="0"/>
        <pt x="1062" y="772" on="1"/>
        <pt x="1040" y="752" on="1"/>
        <pt x="1035" y="752" on="0"/>
        <pt x="1031" y="750" on="1"/>
        <pt x="921" y="750" on="1"/>
        <pt x="704" y="748" on="1"/>
        <pt x="597" y="748" on="1"/>
        <pt x="614" y="722" on="0"/>
        <pt x="634" y="670" on="1"/>
        <pt x="691" y="515" on="0"/>
        <pt x="766" y="440" on="1"/>
        <pt x="774" y="432" on="0"/>
        <pt x="782" y="423" on="0"/>
        <pt x="795" y="411" on="0"/>
        <pt x="801" y="406" on="0"/>
        <pt x="806" y="402" on="1"/>
        <pt x="827" y="385" on="0"/>
        <pt x="844" y="392" on="0"/>
        <pt x="850" y="395" on="0"/>
        <pt x="860" y="403" on="0"/>
        <pt x="866" y="409" on="0"/>
        <pt x="873" y="416" on="1"/>
        <pt x="831" y="375" on="1"/>
        <pt x="933" y="375" on="0"/>
        <pt x="986" y="354" on="1"/>
        <pt x="995" y="354" on="0"/>
        <pt x="1001" y="360" on="1"/>
        <pt x="1076" y="416" on="1"/>
        <pt x="1082" y="422" on="0"/>
        <pt x="1108" y="473" on="0"/>
        <pt x="1117" y="483" on="1"/>
        <pt x="1191" y="561" on="0"/>
        <pt x="1236" y="592" on="1"/>
        <pt x="1248" y="638" on="0"/>
        <pt x="1290" y="717" on="0"/>
        <pt x="1291" y="717" on="1"/>
        <pt x="1289" y="713" on="0"/>
        <pt x="1289" y="705" on="1"/>
        <pt x="1289" y="612" on="1"/>
        <pt x="1293" y="612" on="1"/>
        <pt x="1307" y="612" on="0"/>
        <pt x="1324" y="602" on="1"/>
        <pt x="1289" y="553" on="1"/>
        <pt x="1289" y="442" on="1"/>
        <pt x="1289" y="405" on="0"/>
        <pt x="1238" y="305" on="0"/>
        <pt x="1232" y="287" on="1"/>
        <pt x="1232" y="262" on="0"/>
        <pt x="1279" y="223" on="1"/>
        <pt x="1263" y="205" on="1"/>
        <pt x="1221" y="244" on="0"/>
        <pt x="1188" y="244" on="0"/>
        <pt x="1175" y="233" on="1"/>
        <pt x="1173" y="233" on="1"/>
        <pt x="1168" y="233" on="0"/>
        <pt x="1162" y="211" on="1"/>
        <pt x="1162" y="-16" on="1"/>
        <pt x="1136" y="-16" on="1"/>
        <pt x="1136" y="39" on="1"/>
        <pt x="1136" y="106" on="0"/>
        <pt x="1083" y="162" on="0"/>
        <pt x="1021" y="162" on="1"/>
        <pt x="999" y="162" on="1"/>
        <pt x="806" y="133" on="1"/>
        <pt x="804" y="132" on="0"/>
        <pt x="797" y="128" on="0"/>
        <pt x="795" y="127" on="0"/>
        <pt x="790" y="123" on="0"/>
        <pt x="789" y="120" on="0"/>
        <pt x="788" y="118" on="1"/>
        <pt x="786" y="112" on="0"/>
        <pt x="786" y="104" on="1"/>
        <pt x="788" y="27" on="1"/>
        <pt x="773" y="25" on="1"/>
        <pt x="771" y="98" on="1"/>
        <pt x="771" y="109" on="0"/>
        <pt x="754" y="127" on="0"/>
        <pt x="743" y="127" on="1"/>
        <pt x="673" y="129" on="1"/>
        <pt x="657" y="129" on="0"/>
        <pt x="614" y="68" on="1"/>
        <pt x="605" y="74" on="1"/>
        <pt x="644" y="129" on="0"/>
        <pt x="644" y="141" on="1"/>
        <pt x="638" y="147" on="0"/>
      </contour>
    </TTGlyph>
    <TTGlyph name="F" xMin="-45" yMin="18" xMax="1245" yMax="1743">
      <contour>
        <pt x="784" y="1159" on="1"/>
        <pt x="777" y="1188" on="0"/>
        <pt x="752" y="1228" on="0"/>
        <pt x="711" y="1276" on="1"/>
        <pt x="717" y="1282" on="1"/>
        <pt x="791" y="1194" on="0"/>
        <pt x="837" y="1184" on="1"/>
        <pt x="861" y="1178" on="0"/>
        <pt x="929" y="1178" on="0"/>
        <pt x="987" y="1231" on="1"/>
        <pt x="997" y="1219" on="1"/>
        <pt x="959" y="1182" on="0"/>
        <pt x="938" y="1146" on="0"/>
        <pt x="938" y="1126" on="1"/>
        <pt x="938" y="825" on="1"/>
        <pt x="938" y="804" on="0"/>
        <pt x="913" y="726" on="0"/>
        <pt x="913" y="690" on="0"/>
        <pt x="973" y="647" on="1"/>
        <pt x="962" y="633" on="1"/>
        <pt x="914" y="670" on="0"/>
        <pt x="893" y="670" on="1"/>
        <pt x="848" y="670" on="0"/>
        <pt x="848" y="575" on="1"/>
        <pt x="848" y="531" on="0"/>
        <pt x="932" y="504" on="1"/>
        <pt x="926" y="485" on="1"/>
        <pt x="880" y="502" on="0"/>
        <pt x="837" y="502" on="0"/>
        <pt x="828" y="496" on="1"/>
        <pt x="804" y="482" on="0"/>
        <pt x="778" y="383" on="1"/>
        <pt x="768" y="387" on="1"/>
        <pt x="784" y="444" on="0"/>
        <pt x="784" y="501" on="0"/>
        <pt x="730" y="586" on="0"/>
        <pt x="681" y="586" on="0"/>
        <pt x="641" y="571" on="1"/>
        <pt x="633" y="596" on="1"/>
        <pt x="681" y="613" on="0"/>
        <pt x="706" y="641" on="0"/>
        <pt x="706" y="664" on="1"/>
        <pt x="706" y="715" on="1"/>
        <pt x="706" y="745" on="0"/>
        <pt x="676" y="745" on="1"/>
        <pt x="561" y="745" on="1"/>
        <pt x="530" y="745" on="0"/>
        <pt x="530" y="715" on="1"/>
        <pt x="530" y="369" on="1"/>
        <pt x="530" y="310" on="0"/>
        <pt x="590" y="290" on="1"/>
        <pt x="662" y="265" on="0"/>
        <pt x="701" y="217" on="0"/>
        <pt x="739" y="196" on="0"/>
        <pt x="790" y="178" on="1"/>
        <pt x="786" y="166" on="1"/>
        <pt x="721" y="188" on="0"/>
        <pt x="696" y="188" on="1"/>
        <pt x="629" y="176" on="1"/>
        <pt x="623" y="176" on="0"/>
        <pt x="618" y="178" on="1"/>
        <pt x="530" y="188" on="1"/>
        <pt x="375" y="188" on="0"/>
        <pt x="272" y="150" on="1"/>
        <pt x="211" y="127" on="0"/>
        <pt x="211" y="94" on="1"/>
        <pt x="211" y="74" on="0"/>
        <pt x="237" y="25" on="1"/>
        <pt x="225" y="18" on="1"/>
        <pt x="195" y="74" on="0"/>
        <pt x="182" y="80" on="1"/>
        <pt x="143" y="69" on="0"/>
        <pt x="143" y="35" on="1"/>
        <pt x="117" y="37" on="1"/>
        <pt x="216" y="173" on="0"/>
        <pt x="311" y="229" on="1"/>
        <pt x="315" y="237" on="0"/>
        <pt x="315" y="242" on="1"/>
        <pt x="315" y="457" on="1"/>
        <pt x="315" y="662" on="0"/>
        <pt x="289" y="662" on="1"/>
        <pt x="272" y="662" on="0"/>
        <pt x="237" y="653" on="1"/>
        <pt x="231" y="682" on="1"/>
        <pt x="275" y="693" on="0"/>
        <pt x="301" y="715" on="0"/>
        <pt x="301" y="733" on="1"/>
        <pt x="293" y="836" on="1"/>
        <pt x="276" y="1356" on="1"/>
        <pt x="276" y="1381" on="0"/>
        <pt x="250" y="1384" on="1"/>
        <pt x="194" y="1399" on="1"/>
        <pt x="190" y="1401" on="0"/>
        <pt x="182" y="1401" on="1"/>
        <pt x="160" y="1401" on="0"/>
        <pt x="125" y="1343" on="1"/>
        <pt x="108" y="1354" on="1"/>
        <pt x="137" y="1398" on="0"/>
        <pt x="137" y="1419" on="1"/>
        <pt x="137" y="1464" on="0"/>
        <pt x="57" y="1464" on="1"/>
        <pt x="42" y="1464" on="0"/>
        <pt x="-43" y="1432" on="1"/>
        <pt x="-45" y="1438" on="1"/>
        <pt x="24" y="1463" on="0"/>
        <pt x="35" y="1476" on="0"/>
        <pt x="35" y="1498" on="0"/>
        <pt x="6" y="1546" on="1"/>
        <pt x="27" y="1561" on="1"/>
        <pt x="61" y="1507" on="0"/>
        <pt x="82" y="1507" on="1"/>
        <pt x="99" y="1507" on="0"/>
        <pt x="167" y="1557" on="0"/>
        <pt x="186" y="1592" on="0"/>
        <pt x="201" y="1642" on="1"/>
        <pt x="213" y="1638" on="1"/>
        <pt x="199" y="1583" on="0"/>
        <pt x="199" y="1541" on="0"/>
        <pt x="221" y="1513" on="0"/>
        <pt x="263" y="1501" on="0"/>
        <pt x="299" y="1497" on="0"/>
        <pt x="355" y="1496" on="0"/>
        <pt x="367" y="1495" on="1"/>
        <pt x="680" y="1483" on="1"/>
        <pt x="717" y="1483" on="0"/>
        <pt x="861" y="1508" on="0"/>
        <pt x="868" y="1516" on="1"/>
        <pt x="885" y="1532" on="1"/>
        <pt x="901" y="1548" on="0"/>
        <pt x="901" y="1584" on="0"/>
        <pt x="870" y="1626" on="1"/>
        <pt x="893" y="1642" on="1"/>
        <pt x="924" y="1591" on="0"/>
        <pt x="966" y="1591" on="0"/>
        <pt x="1003" y="1614" on="0"/>
        <pt x="1008" y="1626" on="1"/>
        <pt x="950" y="1612" on="1"/>
        <pt x="974" y="1619" on="0"/>
        <pt x="1010" y="1634" on="1"/>
        <pt x="1010" y="1662" on="0"/>
        <pt x="995" y="1698" on="1"/>
        <pt x="1026" y="1708" on="1"/>
        <pt x="1040" y="1667" on="0"/>
        <pt x="1053" y="1653" on="1"/>
        <pt x="1139" y="1694" on="0"/>
        <pt x="1175" y="1743" on="1"/>
        <pt x="1239" y="1698" on="1"/>
        <pt x="1213" y="1661" on="0"/>
        <pt x="1184" y="1544" on="0"/>
        <pt x="1184" y="1497" on="1"/>
        <pt x="1188" y="1434" on="1"/>
        <pt x="1188" y="1227" on="1"/>
        <pt x="1188" y="1207" on="0"/>
        <pt x="1209" y="1171" on="0"/>
        <pt x="1245" y="1133" on="1"/>
        <pt x="1235" y="1122" on="1"/>
        <pt x="1198" y="1159" on="0"/>
        <pt x="1161" y="1180" on="0"/>
        <pt x="1141" y="1180" on="1"/>
        <pt x="1085" y="1180" on="1"/>
        <pt x="1064" y="1180" on="0"/>
        <pt x="1036" y="1156" on="0"/>
        <pt x="1012" y="1110" on="1"/>
        <pt x="993" y="1120" on="1"/>
        <pt x="1022" y="1171" on="0"/>
        <pt x="1022" y="1201" on="0"/>
        <pt x="1014" y="1219" on="1"/>
        <pt x="915" y="1374" on="1"/>
        <pt x="908" y="1381" on="0"/>
        <pt x="899" y="1384" on="1"/>
        <pt x="846" y="1395" on="1"/>
        <pt x="571" y="1382" on="1"/>
        <pt x="559" y="1382" on="0"/>
        <pt x="530" y="1339" on="0"/>
        <pt x="530" y="1329" on="1"/>
        <pt x="530" y="1266" on="1"/>
        <pt x="532" y="1178" on="0"/>
        <pt x="532" y="1104" on="1"/>
        <pt x="537" y="1098" on="0"/>
        <pt x="538" y="1052" on="1"/>
        <pt x="543" y="926" on="0"/>
        <pt x="573" y="926" on="1"/>
        <pt x="706" y="926" on="1"/>
        <pt x="760" y="926" on="0"/>
        <pt x="760" y="1038" on="1"/>
        <pt x="760" y="1079" on="1"/>
      </contour>
      <contour>
        <pt x="950" y="1612" on="1"/>
        <pt x="938" y="1608" on="0"/>
        <pt x="934" y="1608" on="1"/>
      </contour>
    </TTGlyph>
    <TTGlyph name="G" xMin="97" yMin="0" xMax="1483" yMax="1825">
      <contour>
        <pt x="842" y="127" on="1"/>
        <pt x="782" y="127" on="0"/>
        <pt x="775" y="20" on="1"/>
        <pt x="758" y="23" on="1"/>
        <pt x="760" y="39" on="0"/>
        <pt x="760" y="89" on="0"/>
        <pt x="744" y="123" on="0"/>
        <pt x="734" y="123" on="1"/>
        <pt x="676" y="16" on="1"/>
        <pt x="694" y="55" on="0"/>
        <pt x="697" y="122" on="0"/>
        <pt x="668" y="141" on="1"/>
        <pt x="660" y="141" on="1"/>
        <pt x="648" y="137" on="0"/>
        <pt x="644" y="131" on="1"/>
        <pt x="629" y="111" on="1"/>
        <pt x="613" y="90" on="0"/>
        <pt x="613" y="40" on="0"/>
        <pt x="619" y="2" on="1"/>
        <pt x="603" y="0" on="1"/>
        <pt x="591" y="81" on="0"/>
        <pt x="564" y="102" on="1"/>
        <pt x="428" y="217" on="0"/>
        <pt x="363" y="217" on="1"/>
        <pt x="332" y="217" on="0"/>
        <pt x="293" y="168" on="1"/>
        <pt x="271" y="188" on="1"/>
        <pt x="306" y="231" on="0"/>
        <pt x="306" y="270" on="0"/>
        <pt x="274" y="329" on="0"/>
        <pt x="273" y="353" on="0"/>
        <pt x="207" y="417" on="0"/>
        <pt x="193" y="444" on="0"/>
        <pt x="154" y="444" on="0"/>
        <pt x="115" y="434" on="1"/>
        <pt x="111" y="449" on="1"/>
        <pt x="179" y="467" on="0"/>
        <pt x="185" y="483" on="0"/>
        <pt x="185" y="537" on="0"/>
        <pt x="97" y="701" on="0"/>
        <pt x="97" y="756" on="1"/>
        <pt x="97" y="1049" on="1"/>
        <pt x="97" y="1118" on="0"/>
        <pt x="171" y="1386" on="0"/>
        <pt x="171" y="1454" on="1"/>
        <pt x="171" y="1469" on="0"/>
        <pt x="145" y="1492" on="0"/>
        <pt x="103" y="1511" on="1"/>
        <pt x="111" y="1530" on="1"/>
        <pt x="156" y="1511" on="0"/>
        <pt x="197" y="1511" on="0"/>
        <pt x="272" y="1609" on="0"/>
        <pt x="326" y="1703" on="0"/>
        <pt x="326" y="1706" on="1"/>
        <pt x="326" y="1729" on="0"/>
        <pt x="302" y="1778" on="1"/>
        <pt x="320" y="1788" on="1"/>
        <pt x="343" y="1741" on="0"/>
        <pt x="370" y="1716" on="0"/>
        <pt x="390" y="1716" on="1"/>
        <pt x="441" y="1716" on="1"/>
        <pt x="457" y="1716" on="0"/>
        <pt x="480" y="1742" on="0"/>
        <pt x="480" y="1783" on="0"/>
        <pt x="470" y="1817" on="1"/>
        <pt x="490" y="1823" on="1"/>
        <pt x="505" y="1773" on="0"/>
        <pt x="526" y="1749" on="0"/>
        <pt x="547" y="1749" on="1"/>
        <pt x="691" y="1749" on="1"/>
        <pt x="712" y="1749" on="0"/>
        <pt x="721" y="1752" on="1"/>
        <pt x="743" y="1761" on="0"/>
        <pt x="754" y="1825" on="1"/>
        <pt x="789" y="1819" on="1"/>
        <pt x="785" y="1800" on="0"/>
        <pt x="785" y="1776" on="1"/>
        <pt x="785" y="1718" on="0"/>
        <pt x="869" y="1718" on="1"/>
        <pt x="881" y="1718" on="0"/>
        <pt x="899" y="1744" on="0"/>
        <pt x="914" y="1786" on="1"/>
        <pt x="930" y="1782" on="1"/>
        <pt x="914" y="1738" on="0"/>
        <pt x="914" y="1703" on="0"/>
        <pt x="946" y="1683" on="0"/>
        <pt x="1001" y="1662" on="0"/>
        <pt x="1032" y="1647" on="1"/>
        <pt x="1109" y="1609" on="0"/>
        <pt x="1154" y="1530" on="1"/>
        <pt x="1164" y="1516" on="0"/>
        <pt x="1178" y="1516" on="1"/>
        <pt x="1295" y="1516" on="1"/>
        <pt x="1314" y="1516" on="0"/>
        <pt x="1339" y="1540" on="0"/>
        <pt x="1360" y="1587" on="1"/>
        <pt x="1379" y="1579" on="1"/>
        <pt x="1356" y="1529" on="0"/>
        <pt x="1356" y="1496" on="0"/>
        <pt x="1386" y="1464" on="0"/>
        <pt x="1424" y="1464" on="0"/>
        <pt x="1467" y="1481" on="1"/>
        <pt x="1475" y="1462" on="1"/>
        <pt x="1413" y="1438" on="0"/>
        <pt x="1400" y="1414" on="0"/>
        <pt x="1399" y="1401" on="1"/>
        <pt x="1393" y="1180" on="1"/>
        <pt x="1393" y="1148" on="0"/>
        <pt x="1449" y="1094" on="1"/>
        <pt x="1436" y="1081" on="1"/>
        <pt x="1400" y="1119" on="0"/>
        <pt x="1364" y="1141" on="0"/>
        <pt x="1344" y="1141" on="1"/>
        <pt x="1340" y="1141" on="1"/>
        <pt x="1338" y="1137" on="0"/>
        <pt x="1338" y="1104" on="0"/>
        <pt x="1385" y="1067" on="1"/>
        <pt x="1367" y="1042" on="1"/>
        <pt x="1324" y="1077" on="0"/>
        <pt x="1303" y="1077" on="1"/>
        <pt x="1280" y="1011" on="0"/>
        <pt x="1248" y="995" on="1"/>
        <pt x="1221" y="1030" on="1"/>
        <pt x="1204" y="1066" on="1"/>
        <pt x="1182" y="1112" on="0"/>
        <pt x="1182" y="1161" on="0"/>
        <pt x="1176" y="1210" on="0"/>
        <pt x="1148" y="1281" on="0"/>
        <pt x="1125" y="1296" on="1"/>
        <pt x="1121" y="1301" on="0"/>
        <pt x="1108" y="1315" on="1"/>
        <pt x="1078" y="1345" on="0"/>
        <pt x="1066" y="1368" on="1"/>
        <pt x="1041" y="1362" on="0"/>
        <pt x="960" y="1362" on="0"/>
        <pt x="922" y="1366" on="1"/>
        <pt x="969" y="1366" on="1"/>
        <pt x="983" y="1366" on="0"/>
        <pt x="1002" y="1382" on="0"/>
        <pt x="1002" y="1420" on="0"/>
        <pt x="920" y="1493" on="0"/>
        <pt x="902" y="1493" on="1"/>
        <pt x="748" y="1505" on="1"/>
        <pt x="679" y="1505" on="0"/>
        <pt x="628" y="1464" on="1"/>
        <pt x="575" y="1422" on="0"/>
        <pt x="527" y="1412" on="0"/>
        <pt x="514" y="1383" on="0"/>
        <pt x="486" y="1321" on="1"/>
        <pt x="420" y="1171" on="0"/>
        <pt x="420" y="1167" on="1"/>
        <pt x="420" y="756" on="1"/>
        <pt x="420" y="655" on="0"/>
        <pt x="485" y="564" on="1"/>
        <pt x="573" y="440" on="0"/>
        <pt x="594" y="393" on="1"/>
        <pt x="600" y="381" on="0"/>
        <pt x="716" y="358" on="0"/>
        <pt x="763" y="358" on="0"/>
        <pt x="789" y="385" on="0"/>
        <pt x="812" y="424" on="1"/>
        <pt x="832" y="412" on="1"/>
        <pt x="803" y="361" on="0"/>
        <pt x="803" y="324" on="0"/>
        <pt x="828" y="299" on="1"/>
        <pt x="816" y="276" on="1"/>
        <pt x="863" y="324" on="0"/>
        <pt x="982" y="581" on="0"/>
        <pt x="982" y="668" on="1"/>
        <pt x="982" y="705" on="0"/>
        <pt x="896" y="705" on="1"/>
        <pt x="868" y="705" on="0"/>
        <pt x="807" y="655" on="1"/>
        <pt x="797" y="666" on="1"/>
        <pt x="838" y="700" on="0"/>
        <pt x="861" y="733" on="0"/>
        <pt x="863" y="750" on="1"/>
        <pt x="863" y="752" on="1"/>
        <pt x="863" y="851" on="0"/>
        <pt x="839" y="980" on="0"/>
        <pt x="791" y="1071" on="1"/>
        <pt x="797" y="1075" on="1"/>
        <pt x="855" y="967" on="0"/>
        <pt x="921" y="936" on="1"/>
        <pt x="950" y="923" on="0"/>
        <pt x="978" y="915" on="1"/>
        <pt x="1052" y="893" on="0"/>
        <pt x="1088" y="854" on="1"/>
        <pt x="1104" y="860" on="0"/>
        <pt x="1145" y="860" on="1"/>
        <pt x="1391" y="860" on="0"/>
        <pt x="1391" y="756" on="1"/>
        <pt x="1391" y="659" on="0"/>
        <pt x="1418" y="644" on="1"/>
        <pt x="1432" y="637" on="0"/>
        <pt x="1483" y="637" on="1"/>
        <pt x="1483" y="616" on="1"/>
        <pt x="1432" y="616" on="0"/>
        <pt x="1404" y="605" on="0"/>
        <pt x="1399" y="588" on="1"/>
        <pt x="1399" y="578" on="1"/>
        <pt x="1399" y="554" on="0"/>
        <pt x="1442" y="500" on="1"/>
        <pt x="1430" y="489" on="1"/>
        <pt x="1399" y="531" on="0"/>
        <pt x="1368" y="553" on="0"/>
        <pt x="1350" y="553" on="1"/>
        <pt x="1260" y="553" on="1"/>
        <pt x="1231" y="553" on="0"/>
        <pt x="1229" y="524" on="1"/>
        <pt x="1221" y="435" on="0"/>
        <pt x="1129" y="185" on="0"/>
        <pt x="1082" y="125" on="1"/>
        <pt x="1080" y="133" on="1"/>
        <pt x="1080" y="110" on="0"/>
        <pt x="1096" y="71" on="0"/>
        <pt x="1129" y="23" on="1"/>
        <pt x="1121" y="16" on="1"/>
        <pt x="1063" y="104" on="0"/>
        <pt x="1002" y="119" on="1"/>
        <pt x="978" y="125" on="0"/>
        <pt x="943" y="125" on="1"/>
        <pt x="883" y="125" on="1"/>
      </contour>
      <contour>
        <pt x="676" y="16" on="1"/>
        <pt x="670" y="6" on="1"/>
      </contour>
    </TTGlyph>
    <TTGlyph name="Gbreve" xMin="97" yMin="0" xMax="1483" yMax="2320">
      <component glyphName="breve" x="304" y="439" flags="0x1004"/>
      <component glyphName="G" x="0" y="0" flags="0x1204"/>
    </TTGlyph>
    <TTGlyph name="Gcircumflex" xMin="97" yMin="0" xMax="1483" yMax="2492">
      <component glyphName="circumflex" x="403" y="936" flags="0x1004"/>
      <component glyphName="G" x="0" y="0" flags="0x1204"/>
    </TTGlyph>
    <TTGlyph name="Gcommaaccent" xMin="97" yMin="-767" xMax="1483" yMax="1825">
      <component glyphName="comma" x="448" y="-620" flags="0x1004"/>
      <component glyphName="G" x="0" y="0" flags="0x1204"/>
    </TTGlyph>
    <TTGlyph name="Gdotaccent" xMin="97" yMin="0" xMax="1483" yMax="2243">
      <component glyphName="dotaccent" x="483" y="1706" flags="0x1004"/>
      <component glyphName="G" x="0" y="0" flags="0x1204"/>
    </TTGlyph>
    <TTGlyph name="H" xMin="-5" yMin="-150" xMax="1490" yMax="1708">
      <contour>
        <pt x="1072" y="1540" on="1"/>
        <pt x="1090" y="1549" on="0"/>
        <pt x="1090" y="1595" on="1"/>
        <pt x="1090" y="1636" on="1"/>
        <pt x="1107" y="1636" on="1"/>
        <pt x="1109" y="1607" on="0"/>
        <pt x="1113" y="1577" on="0"/>
        <pt x="1114" y="1567" on="0"/>
        <pt x="1120" y="1556" on="0"/>
        <pt x="1121" y="1552" on="0"/>
        <pt x="1132" y="1547" on="0"/>
        <pt x="1135" y="1546" on="0"/>
        <pt x="1151" y="1543" on="0"/>
        <pt x="1156" y="1540" on="0"/>
        <pt x="1188" y="1542" on="0"/>
        <pt x="1294" y="1582" on="0"/>
        <pt x="1338" y="1611" on="0"/>
        <pt x="1351" y="1647" on="0"/>
        <pt x="1357" y="1704" on="1"/>
        <pt x="1371" y="1702" on="1"/>
        <pt x="1367" y="1671" on="0"/>
        <pt x="1367" y="1608" on="0"/>
        <pt x="1386" y="1585" on="0"/>
        <pt x="1434" y="1585" on="0"/>
        <pt x="1479" y="1591" on="1"/>
        <pt x="1484" y="1575" on="1"/>
        <pt x="1429" y="1568" on="0"/>
        <pt x="1394" y="1553" on="0"/>
        <pt x="1385" y="1538" on="1"/>
        <pt x="1371" y="1503" on="1"/>
        <pt x="1367" y="1491" on="0"/>
        <pt x="1367" y="1485" on="1"/>
        <pt x="1367" y="1458" on="0"/>
        <pt x="1420" y="1415" on="1"/>
        <pt x="1404" y="1395" on="1"/>
        <pt x="1349" y="1440" on="0"/>
        <pt x="1318" y="1440" on="0"/>
        <pt x="1299" y="1423" on="1"/>
        <pt x="1287" y="1418" on="0"/>
        <pt x="1287" y="1403" on="0"/>
        <pt x="1328" y="1354" on="0"/>
        <pt x="1350" y="1186" on="0"/>
        <pt x="1350" y="1126" on="1"/>
        <pt x="1340" y="668" on="1"/>
        <pt x="1338" y="651" on="0"/>
        <pt x="1334" y="594" on="0"/>
        <pt x="1330" y="569" on="0"/>
        <pt x="1324" y="550" on="1"/>
        <pt x="1315" y="518" on="0"/>
        <pt x="1281" y="494" on="1"/>
        <pt x="1269" y="484" on="0"/>
        <pt x="1269" y="469" on="1"/>
        <pt x="1269" y="324" on="1"/>
        <pt x="1269" y="315" on="0"/>
        <pt x="1361" y="236" on="0"/>
        <pt x="1386" y="229" on="0"/>
        <pt x="1414" y="229" on="0"/>
        <pt x="1484" y="274" on="1"/>
        <pt x="1490" y="262" on="1"/>
        <pt x="1443" y="232" on="0"/>
        <pt x="1415" y="205" on="0"/>
        <pt x="1412" y="190" on="1"/>
        <pt x="1412" y="186" on="1"/>
        <pt x="1408" y="182" on="0"/>
        <pt x="1408" y="174" on="1"/>
        <pt x="1408" y="162" on="0"/>
        <pt x="1473" y="115" on="1"/>
        <pt x="1465" y="100" on="1"/>
        <pt x="1414" y="137" on="0"/>
        <pt x="1383" y="137" on="0"/>
        <pt x="1375" y="133" on="1"/>
        <pt x="1350" y="115" on="1"/>
        <pt x="1338" y="108" on="0"/>
        <pt x="1338" y="84" on="1"/>
        <pt x="1340" y="59" on="1"/>
        <pt x="1342" y="-12" on="1"/>
        <pt x="1307" y="-12" on="1"/>
        <pt x="1307" y="72" on="1"/>
        <pt x="1307" y="105" on="0"/>
        <pt x="1171" y="132" on="0"/>
        <pt x="989" y="144" on="0"/>
        <pt x="933" y="165" on="0"/>
        <pt x="827" y="226" on="0"/>
        <pt x="797" y="236" on="1"/>
        <pt x="806" y="311" on="1"/>
        <pt x="832" y="322" on="0"/>
        <pt x="896" y="322" on="1"/>
        <pt x="951" y="322" on="1"/>
        <pt x="986" y="322" on="0"/>
        <pt x="986" y="354" on="1"/>
        <pt x="988" y="417" on="0"/>
        <pt x="1019" y="665" on="0"/>
        <pt x="1021" y="743" on="0"/>
        <pt x="1012" y="758" on="0"/>
        <pt x="1000" y="760" on="1"/>
        <pt x="983" y="764" on="0"/>
        <pt x="892" y="764" on="0"/>
        <pt x="828" y="753" on="0"/>
        <pt x="810" y="719" on="0"/>
        <pt x="810" y="664" on="1"/>
        <pt x="785" y="664" on="1"/>
        <pt x="785" y="719" on="0"/>
        <pt x="769" y="753" on="0"/>
        <pt x="714" y="762" on="0"/>
        <pt x="529" y="762" on="0"/>
        <pt x="525" y="727" on="1"/>
        <pt x="513" y="410" on="1"/>
        <pt x="511" y="383" on="0"/>
        <pt x="560" y="311" on="0"/>
        <pt x="585" y="311" on="1"/>
        <pt x="617" y="311" on="0"/>
        <pt x="617" y="381" on="1"/>
        <pt x="617" y="408" on="1"/>
        <pt x="632" y="408" on="1"/>
        <pt x="633" y="353" on="0"/>
        <pt x="642" y="325" on="0"/>
        <pt x="654" y="322" on="1"/>
        <pt x="677" y="315" on="1"/>
        <pt x="681" y="313" on="0"/>
        <pt x="708" y="313" on="0"/>
        <pt x="783" y="344" on="1"/>
        <pt x="787" y="334" on="1"/>
        <pt x="712" y="302" on="0"/>
        <pt x="691" y="276" on="1"/>
        <pt x="687" y="266" on="1"/>
        <pt x="677" y="253" on="0"/>
        <pt x="677" y="240" on="1"/>
        <pt x="693" y="248" on="1"/>
        <pt x="689" y="233" on="1"/>
        <pt x="681" y="233" on="0"/>
        <pt x="677" y="231" on="1"/>
        <pt x="680" y="206" on="0"/>
        <pt x="716" y="162" on="1"/>
        <pt x="695" y="145" on="1"/>
        <pt x="650" y="207" on="0"/>
        <pt x="589" y="207" on="0"/>
        <pt x="475" y="159" on="0"/>
        <pt x="346" y="93" on="0"/>
        <pt x="308" y="79" on="0"/>
        <pt x="302" y="74" on="1"/>
        <pt x="284" y="59" on="0"/>
        <pt x="277" y="-12" on="1"/>
        <pt x="257" y="-10" on="1"/>
        <pt x="259" y="12" on="0"/>
        <pt x="259" y="82" on="0"/>
        <pt x="229" y="82" on="0"/>
        <pt x="208" y="59" on="0"/>
        <pt x="208" y="43" on="1"/>
        <pt x="208" y="16" on="1"/>
        <pt x="208" y="-2" on="0"/>
        <pt x="181" y="-56" on="0"/>
        <pt x="181" y="-115" on="1"/>
        <pt x="181" y="-150" on="1"/>
        <pt x="175" y="-150" on="1"/>
        <pt x="170" y="-60" on="0"/>
        <pt x="161" y="-47" on="1"/>
        <pt x="156" y="-35" on="1"/>
        <pt x="148" y="-27" on="0"/>
        <pt x="113" y="-27" on="0"/>
        <pt x="64" y="-37" on="1"/>
        <pt x="62" y="-27" on="1"/>
        <pt x="131" y="-10" on="0"/>
        <pt x="143" y="5" on="0"/>
        <pt x="144" y="15" on="0"/>
        <pt x="182" y="123" on="0"/>
        <pt x="181" y="125" on="1"/>
        <pt x="144" y="188" on="1"/>
        <pt x="136" y="204" on="0"/>
        <pt x="99" y="221" on="0"/>
        <pt x="42" y="231" on="1"/>
        <pt x="44" y="250" on="1"/>
        <pt x="83" y="242" on="0"/>
        <pt x="145" y="242" on="0"/>
        <pt x="216" y="297" on="0"/>
        <pt x="216" y="311" on="1"/>
        <pt x="216" y="653" on="1"/>
        <pt x="216" y="670" on="0"/>
        <pt x="183" y="744" on="0"/>
        <pt x="183" y="762" on="1"/>
        <pt x="183" y="1073" on="1"/>
        <pt x="183" y="1081" on="0"/>
        <pt x="122" y="1114" on="1"/>
        <pt x="140" y="1155" on="1"/>
        <pt x="171" y="1145" on="1"/>
        <pt x="190" y="1145" on="0"/>
        <pt x="216" y="1172" on="0"/>
        <pt x="216" y="1190" on="1"/>
        <pt x="202" y="1366" on="1"/>
        <pt x="202" y="1371" on="0"/>
        <pt x="191" y="1382" on="1"/>
        <pt x="113" y="1452" on="1"/>
        <pt x="92" y="1470" on="0"/>
        <pt x="17" y="1470" on="0"/>
        <pt x="-5" y="1468" on="1"/>
        <pt x="-5" y="1489" on="1"/>
        <pt x="80" y="1495" on="0"/>
        <pt x="107" y="1526" on="1"/>
        <pt x="152" y="1587" on="1"/>
        <pt x="177" y="1622" on="0"/>
        <pt x="181" y="1708" on="1"/>
        <pt x="193" y="1708" on="1"/>
        <pt x="191" y="1690" on="0"/>
        <pt x="191" y="1604" on="0"/>
        <pt x="208" y="1583" on="1"/>
        <pt x="223" y="1571" on="0"/>
        <pt x="445" y="1542" on="0"/>
        <pt x="512" y="1542" on="0"/>
        <pt x="537" y="1569" on="0"/>
        <pt x="562" y="1614" on="1"/>
        <pt x="576" y="1606" on="1"/>
        <pt x="546" y="1552" on="0"/>
        <pt x="546" y="1526" on="1"/>
        <pt x="546" y="1477" on="0"/>
        <pt x="671" y="1477" on="1"/>
        <pt x="703" y="1477" on="0"/>
        <pt x="785" y="1511" on="1"/>
        <pt x="789" y="1499" on="1"/>
        <pt x="715" y="1468" on="0"/>
        <pt x="691" y="1444" on="1"/>
        <pt x="711" y="1448" on="1"/>
        <pt x="699" y="1403" on="1"/>
        <pt x="658" y="1405" on="1"/>
        <pt x="654" y="1401" on="0"/>
        <pt x="654" y="1397" on="1"/>
        <pt x="654" y="1359" on="0"/>
        <pt x="707" y="1284" on="1"/>
        <pt x="695" y="1276" on="1"/>
        <pt x="660" y="1323" on="0"/>
        <pt x="625" y="1353" on="0"/>
        <pt x="605" y="1358" on="1"/>
        <pt x="572" y="1368" on="1"/>
        <pt x="562" y="1368" on="1"/>
        <pt x="540" y="1368" on="0"/>
        <pt x="513" y="1306" on="0"/>
        <pt x="513" y="1290" on="1"/>
        <pt x="513" y="961" on="1"/>
        <pt x="513" y="926" on="0"/>
        <pt x="546" y="926" on="1"/>
        <pt x="711" y="926" on="1"/>
        <pt x="732" y="926" on="0"/>
        <pt x="802" y="963" on="0"/>
        <pt x="845" y="963" on="0"/>
        <pt x="930" y="930" on="0"/>
        <pt x="965" y="930" on="0"/>
        <pt x="986" y="951" on="0"/>
        <pt x="986" y="967" on="1"/>
        <pt x="986" y="1323" on="1"/>
        <pt x="986" y="1361" on="0"/>
        <pt x="841" y="1389" on="1"/>
        <pt x="812" y="1462" on="1"/>
        <pt x="837" y="1462" on="0"/>
        <pt x="855" y="1456" on="1"/>
        <pt x="868" y="1456" on="0"/>
        <pt x="886" y="1478" on="0"/>
        <pt x="886" y="1521" on="0"/>
        <pt x="875" y="1561" on="1"/>
        <pt x="898" y="1567" on="1"/>
        <pt x="913" y="1514" on="0"/>
        <pt x="938" y="1487" on="0"/>
        <pt x="961" y="1487" on="1"/>
        <pt x="970" y="1487" on="1"/>
        <pt x="980" y="1487" on="0"/>
        <pt x="1042" y="1540" on="0"/>
      </contour>
    </TTGlyph>
    <TTGlyph name="Hbar" xMin="15" yMin="-150" xMax="1511" yMax="1708">
      <component glyphName="macron" x="258" y="-65" flags="0x1004"/>
      <component glyphName="h" x="19" y="0" flags="0x1004"/>
    </TTGlyph>
    <TTGlyph name="Hcircumflex" xMin="-5" yMin="-150" xMax="1490" yMax="2314">
      <component glyphName="circumflex" x="356" y="758" flags="0x1004"/>
      <component glyphName="H" x="0" y="0" flags="0x1204"/>
    </TTGlyph>
    <TTGlyph name="I" xMin="-38" yMin="-45" xMax="857" yMax="1759">
      <contour>
        <pt x="474" y="84" on="1"/>
        <pt x="472" y="98" on="1"/>
        <pt x="466" y="98" on="0"/>
        <pt x="420" y="94" on="1"/>
        <pt x="420" y="104" on="1"/>
        <pt x="466" y="109" on="1"/>
        <pt x="449" y="131" on="0"/>
        <pt x="427" y="131" on="1"/>
        <pt x="316" y="131" on="1"/>
        <pt x="300" y="131" on="0"/>
        <pt x="169" y="40" on="0"/>
        <pt x="169" y="14" on="1"/>
        <pt x="152" y="-45" on="1"/>
        <pt x="124" y="-37" on="1"/>
        <pt x="144" y="18" on="1"/>
        <pt x="144" y="62" on="0"/>
        <pt x="230" y="177" on="1"/>
        <pt x="259" y="215" on="0"/>
        <pt x="259" y="231" on="1"/>
        <pt x="244" y="1425" on="1"/>
        <pt x="244" y="1442" on="0"/>
        <pt x="185" y="1472" on="0"/>
        <pt x="178" y="1505" on="0"/>
        <pt x="119" y="1530" on="0"/>
        <pt x="84" y="1530" on="0"/>
        <pt x="44" y="1479" on="1"/>
        <pt x="27" y="1491" on="1"/>
        <pt x="64" y="1534" on="0"/>
        <pt x="64" y="1565" on="1"/>
        <pt x="64" y="1591" on="0"/>
        <pt x="-38" y="1638" on="1"/>
        <pt x="-36" y="1642" on="1"/>
        <pt x="35" y="1610" on="0"/>
        <pt x="62" y="1610" on="1"/>
        <pt x="142" y="1610" on="1"/>
        <pt x="168" y="1610" on="0"/>
        <pt x="200" y="1636" on="0"/>
        <pt x="220" y="1683" on="1"/>
        <pt x="246" y="1673" on="1"/>
        <pt x="228" y="1626" on="0"/>
        <pt x="228" y="1575" on="0"/>
        <pt x="293" y="1538" on="0"/>
        <pt x="330" y="1538" on="1"/>
        <pt x="480" y="1538" on="1"/>
        <pt x="521" y="1595" on="1"/>
        <pt x="535" y="1581" on="1"/>
        <pt x="541" y="1587" on="0"/>
        <pt x="541" y="1622" on="0"/>
        <pt x="517" y="1671" on="1"/>
        <pt x="537" y="1681" on="1"/>
        <pt x="560" y="1634" on="0"/>
        <pt x="586" y="1610" on="0"/>
        <pt x="607" y="1610" on="1"/>
        <pt x="646" y="1610" on="1"/>
        <pt x="654" y="1610" on="0"/>
        <pt x="722" y="1681" on="0"/>
        <pt x="722" y="1703" on="0"/>
        <pt x="705" y="1755" on="1"/>
        <pt x="715" y="1759" on="1"/>
        <pt x="731" y="1711" on="0"/>
        <pt x="746" y="1688" on="0"/>
        <pt x="756" y="1688" on="1"/>
        <pt x="762" y="1688" on="1"/>
        <pt x="782" y="1688" on="0"/>
        <pt x="855" y="1716" on="1"/>
        <pt x="857" y="1712" on="1"/>
        <pt x="788" y="1687" on="0"/>
        <pt x="769" y="1671" on="1"/>
        <pt x="742" y="1647" on="1"/>
        <pt x="734" y="1638" on="0"/>
        <pt x="733" y="1600" on="0"/>
        <pt x="721" y="1565" on="0"/>
        <pt x="709" y="1557" on="1"/>
        <pt x="690" y="1544" on="0"/>
        <pt x="651" y="1537" on="0"/>
        <pt x="580" y="1515" on="0"/>
        <pt x="566" y="1511" on="1"/>
        <pt x="572" y="1473" on="1"/>
        <pt x="574" y="1454" on="0"/>
        <pt x="604" y="1440" on="0"/>
        <pt x="646" y="1440" on="1"/>
        <pt x="646" y="1393" on="1"/>
        <pt x="597" y="1393" on="0"/>
        <pt x="582" y="1378" on="1"/>
        <pt x="582" y="1372" on="0"/>
        <pt x="584" y="1347" on="0"/>
        <pt x="584" y="1339" on="1"/>
        <pt x="580" y="1376" on="1"/>
        <pt x="570" y="1366" on="0"/>
        <pt x="570" y="1329" on="1"/>
        <pt x="584" y="1016" on="1"/>
        <pt x="584" y="917" on="0"/>
        <pt x="562" y="533" on="0"/>
        <pt x="560" y="436" on="0"/>
        <pt x="582" y="406" on="0"/>
        <pt x="625" y="377" on="1"/>
        <pt x="615" y="360" on="1"/>
        <pt x="562" y="395" on="0"/>
        <pt x="504" y="395" on="0"/>
        <pt x="504" y="367" on="1"/>
        <pt x="504" y="279" on="1"/>
        <pt x="504" y="252" on="0"/>
        <pt x="636" y="217" on="0"/>
        <pt x="636" y="188" on="1"/>
        <pt x="633" y="180" on="1"/>
        <pt x="633" y="171" on="0"/>
        <pt x="663" y="115" on="0"/>
        <pt x="666" y="106" on="1"/>
        <pt x="677" y="65" on="0"/>
        <pt x="732" y="10" on="1"/>
        <pt x="724" y="0" on="1"/>
        <pt x="660" y="64" on="0"/>
        <pt x="627" y="72" on="1"/>
        <pt x="625" y="72" on="1"/>
        <pt x="619" y="74" on="1"/>
        <pt x="578" y="74" on="0"/>
        <pt x="578" y="-25" on="1"/>
        <pt x="554" y="-23" on="1"/>
        <pt x="554" y="16" on="0"/>
        <pt x="521" y="88" on="0"/>
        <pt x="488" y="96" on="1"/>
        <pt x="468" y="59" on="1"/>
        <pt x="474" y="73" on="0"/>
      </contour>
      <contour>
        <pt x="595" y="1272" on="1"/>
        <pt x="587" y="1312" on="0"/>
        <pt x="584" y="1339" on="1"/>
      </contour>
    </TTGlyph>
    <TTGlyph name="IJ" xMin="-23" yMin="-406" xMax="2330" yMax="1819">
      <component glyphName="J" x="982" y="0" flags="0x1004"/>
      <component glyphName="I" x="15" y="0" flags="0x1004"/>
    </TTGlyph>
    <TTGlyph name="Iacute" xMin="-38" yMin="-45" xMax="1190" yMax="2396">
      <component glyphName="acute" x="-159" y="1638" flags="0x1004"/>
      <component glyphName="I" x="0" y="0" flags="0x1204"/>
    </TTGlyph>
    <TTGlyph name="Ibreve" xMin="-38" yMin="-45" xMax="857" yMax="2193">
      <component glyphName="breve" x="-76" y="312" flags="0x1004"/>
      <component glyphName="I" x="0" y="0" flags="0x1204"/>
    </TTGlyph>
    <TTGlyph name="Icircumflex" xMin="-38" yMin="-45" xMax="857" yMax="2365">
      <component glyphName="circumflex" x="22" y="809" flags="0x1004"/>
      <component glyphName="I" x="0" y="0" flags="0x1204"/>
    </TTGlyph>
    <TTGlyph name="Idieresis" xMin="-38" yMin="-45" xMax="857" yMax="2194">
      <component glyphName="dieresis" x="-68" y="736" flags="0x1004"/>
      <component glyphName="I" x="0" y="0" flags="0x1204"/>
    </TTGlyph>
    <TTGlyph name="Idotaccent" xMin="-38" yMin="-45" xMax="857" yMax="2177">
      <component glyphName="dotaccent" x="102" y="1640" flags="0x1004"/>
      <component glyphName="I" x="0" y="0" flags="0x1204"/>
    </TTGlyph>
    <TTGlyph name="Igrave" xMin="-508" yMin="-45" xMax="857" yMax="2678">
      <component glyphName="grave" x="-630" y="1312" flags="0x1004"/>
      <component glyphName="I" x="0" y="0" flags="0x1204"/>
    </TTGlyph>
    <TTGlyph name="Imacron" xMin="-38" yMin="-45" xMax="857" yMax="2078">
      <component glyphName="macron" x="-102" y="700" flags="0x1004"/>
      <component glyphName="I" x="0" y="0" flags="0x1204"/>
    </TTGlyph>
    <TTGlyph name="Iogonek" xMin="-38" yMin="-544" xMax="857" yMax="1759">
      <component glyphName="ogonek" x="2" y="-268" flags="0x1004"/>
      <component glyphName="I" x="0" y="0" flags="0x1204"/>
    </TTGlyph>
    <TTGlyph name="Itilde" xMin="-38" yMin="-45" xMax="857" yMax="2170">
      <component glyphName="tilde" x="-105" y="726" flags="0x1004"/>
      <component glyphName="I" x="0" y="0" flags="0x1204"/>
    </TTGlyph>
    <TTGlyph name="J" xMin="-57" yMin="-406" xMax="1348" yMax="1819">
      <contour>
        <pt x="390" y="1518" on="1"/>
        <pt x="62" y="1542" on="1"/>
        <pt x="22" y="1542" on="0"/>
        <pt x="-48" y="1495" on="1"/>
        <pt x="-57" y="1507" on="1"/>
        <pt x="13" y="1556" on="0"/>
        <pt x="25" y="1593" on="1"/>
        <pt x="36" y="1622" on="1"/>
        <pt x="38" y="1626" on="0"/>
        <pt x="38" y="1634" on="1"/>
        <pt x="38" y="1654" on="0"/>
        <pt x="-24" y="1683" on="1"/>
        <pt x="-14" y="1700" on="1"/>
        <pt x="31" y="1677" on="0"/>
        <pt x="58" y="1677" on="0"/>
        <pt x="63" y="1679" on="1"/>
        <pt x="70" y="1682" on="0"/>
        <pt x="70" y="1692" on="1"/>
        <pt x="85" y="1720" on="0"/>
        <pt x="85" y="1749" on="0"/>
        <pt x="54" y="1802" on="1"/>
        <pt x="70" y="1810" on="1"/>
        <pt x="96" y="1766" on="0"/>
        <pt x="125" y="1743" on="0"/>
        <pt x="144" y="1743" on="1"/>
        <pt x="330" y="1743" on="1"/>
        <pt x="358" y="1743" on="0"/>
        <pt x="388" y="1769" on="0"/>
        <pt x="400" y="1819" on="1"/>
        <pt x="433" y="1810" on="1"/>
        <pt x="423" y="1780" on="0"/>
        <pt x="423" y="1719" on="0"/>
        <pt x="506" y="1686" on="0"/>
        <pt x="550" y="1688" on="1"/>
        <pt x="634" y="1692" on="1"/>
        <pt x="652" y="1696" on="0"/>
        <pt x="652" y="1700" on="1"/>
        <pt x="703" y="1767" on="0"/>
        <pt x="986" y="1767" on="1"/>
        <pt x="1232" y="1767" on="1"/>
        <pt x="1264" y="1767" on="0"/>
        <pt x="1342" y="1810" on="1"/>
        <pt x="1348" y="1798" on="1"/>
        <pt x="1261" y="1750" on="0"/>
        <pt x="1245" y="1717" on="1"/>
        <pt x="1229" y="1684" on="0"/>
        <pt x="1193" y="1665" on="0"/>
        <pt x="1191" y="1661" on="1"/>
        <pt x="1178" y="1642" on="1"/>
        <pt x="1170" y="1626" on="0"/>
        <pt x="1170" y="1592" on="0"/>
        <pt x="1205" y="1544" on="1"/>
        <pt x="1184" y="1532" on="1"/>
        <pt x="1145" y="1587" on="0"/>
        <pt x="1088" y="1587" on="0"/>
        <pt x="1025" y="1552" on="0"/>
        <pt x="1025" y="1505" on="0"/>
        <pt x="1033" y="1473" on="1"/>
        <pt x="1017" y="1468" on="1"/>
        <pt x="1004" y="1532" on="0"/>
        <pt x="986" y="1545" on="0"/>
        <pt x="976" y="1546" on="1"/>
        <pt x="974" y="1546" on="1"/>
        <pt x="867" y="1546" on="0"/>
        <pt x="867" y="1503" on="1"/>
        <pt x="867" y="1270" on="1"/>
        <pt x="867" y="1256" on="0"/>
        <pt x="899" y="1229" on="0"/>
        <pt x="932" y="1229" on="0"/>
        <pt x="982" y="1249" on="1"/>
        <pt x="990" y="1229" on="1"/>
        <pt x="942" y="1209" on="0"/>
        <pt x="918" y="1184" on="0"/>
        <pt x="918" y="1163" on="1"/>
        <pt x="918" y="1104" on="1"/>
        <pt x="918" y="1080" on="0"/>
        <pt x="944" y="1055" on="0"/>
        <pt x="994" y="1042" on="1"/>
        <pt x="986" y="1016" on="1"/>
        <pt x="953" y="1024" on="0"/>
        <pt x="933" y="1024" on="1"/>
        <pt x="849" y="1024" on="0"/>
        <pt x="849" y="758" on="1"/>
        <pt x="867" y="397" on="1"/>
        <pt x="867" y="311" on="0"/>
        <pt x="843" y="267" on="0"/>
        <pt x="829" y="253" on="0"/>
        <pt x="820" y="247" on="0"/>
        <pt x="820" y="246" on="1"/>
        <pt x="857" y="246" on="0"/>
        <pt x="931" y="285" on="1"/>
        <pt x="935" y="274" on="1"/>
        <pt x="860" y="238" on="0"/>
        <pt x="840" y="207" on="1"/>
        <pt x="838" y="204" on="0"/>
        <pt x="813" y="166" on="0"/>
        <pt x="805" y="155" on="0"/>
        <pt x="783" y="119" on="0"/>
        <pt x="774" y="101" on="0"/>
        <pt x="758" y="68" on="0"/>
        <pt x="755" y="56" on="1"/>
        <pt x="746" y="22" on="0"/>
        <pt x="746" y="-21" on="0"/>
        <pt x="806" y="-61" on="1"/>
        <pt x="795" y="-76" on="1"/>
        <pt x="740" y="-37" on="0"/>
        <pt x="696" y="-37" on="0"/>
        <pt x="621" y="-129" on="0"/>
        <pt x="621" y="-171" on="0"/>
        <pt x="668" y="-219" on="1"/>
        <pt x="656" y="-233" on="1"/>
        <pt x="608" y="-186" on="0"/>
        <pt x="556" y="-186" on="0"/>
        <pt x="517" y="-254" on="0"/>
        <pt x="517" y="-321" on="0"/>
        <pt x="566" y="-375" on="1"/>
        <pt x="548" y="-389" on="1"/>
        <pt x="494" y="-330" on="0"/>
        <pt x="455" y="-330" on="1"/>
        <pt x="447" y="-330" on="1"/>
        <pt x="378" y="-324" on="1"/>
        <pt x="376" y="-326" on="0"/>
        <pt x="373" y="-326" on="1"/>
        <pt x="369" y="-326" on="1"/>
        <pt x="354" y="-329" on="0"/>
        <pt x="330" y="-359" on="0"/>
        <pt x="310" y="-406" on="1"/>
        <pt x="296" y="-399" on="1"/>
        <pt x="318" y="-343" on="0"/>
        <pt x="318" y="-313" on="0"/>
        <pt x="281" y="-207" on="0"/>
        <pt x="279" y="-163" on="0"/>
        <pt x="276" y="-156" on="1"/>
        <pt x="266" y="-139" on="0"/>
        <pt x="206" y="-115" on="1"/>
        <pt x="214" y="-98" on="1"/>
        <pt x="264" y="-121" on="0"/>
        <pt x="308" y="-121" on="0"/>
        <pt x="353" y="-51" on="0"/>
        <pt x="353" y="-6" on="0"/>
        <pt x="318" y="47" on="1"/>
        <pt x="335" y="59" on="1"/>
        <pt x="364" y="16" on="0"/>
        <pt x="396" y="-8" on="0"/>
        <pt x="416" y="-8" on="1"/>
        <pt x="490" y="-8" on="1"/>
        <pt x="515" y="-8" on="0"/>
        <pt x="519" y="16" on="1"/>
        <pt x="527" y="66" on="1"/>
        <pt x="525" y="80" on="1"/>
        <pt x="539" y="145" on="1"/>
        <pt x="539" y="207" on="1"/>
        <pt x="539" y="213" on="0"/>
        <pt x="535" y="221" on="1"/>
        <pt x="509" y="259" on="0"/>
        <pt x="509" y="337" on="0"/>
        <pt x="515" y="385" on="1"/>
        <pt x="515" y="391" on="0"/>
        <pt x="462" y="481" on="0"/>
        <pt x="455" y="504" on="1"/>
        <pt x="452" y="524" on="0"/>
        <pt x="411" y="524" on="0"/>
        <pt x="373" y="518" on="1"/>
        <pt x="371" y="537" on="1"/>
        <pt x="434" y="548" on="0"/>
        <pt x="445" y="564" on="0"/>
        <pt x="444" y="599" on="0"/>
        <pt x="416" y="1029" on="0"/>
        <pt x="416" y="1274" on="1"/>
        <pt x="421" y="1489" on="1"/>
        <pt x="421" y="1501" on="0"/>
        <pt x="402" y="1518" on="0"/>
      </contour>
    </TTGlyph>
    <TTGlyph name="Jcircumflex" xMin="-57" yMin="-406" xMax="1348" yMax="2486">
      <component glyphName="circumflex" x="258" y="930" flags="0x1004"/>
      <component glyphName="J" x="0" y="0" flags="0x1204"/>
    </TTGlyph>
    <TTGlyph name="K" xMin="-80" yMin="-82" xMax="1380" yMax="1704">
      <contour>
        <pt x="215" y="1610" on="1"/>
        <pt x="428" y="1632" on="1"/>
        <pt x="469" y="1632" on="0"/>
        <pt x="582" y="1609" on="0"/>
        <pt x="630" y="1575" on="0"/>
        <pt x="646" y="1575" on="0"/>
        <pt x="661" y="1597" on="0"/>
        <pt x="661" y="1625" on="0"/>
        <pt x="641" y="1675" on="1"/>
        <pt x="661" y="1683" on="1"/>
        <pt x="681" y="1636" on="0"/>
        <pt x="706" y="1612" on="0"/>
        <pt x="727" y="1612" on="1"/>
        <pt x="762" y="1612" on="1"/>
        <pt x="782" y="1612" on="0"/>
        <pt x="792" y="1615" on="1"/>
        <pt x="814" y="1622" on="0"/>
        <pt x="825" y="1688" on="1"/>
        <pt x="858" y="1681" on="1"/>
        <pt x="854" y="1649" on="0"/>
        <pt x="854" y="1642" on="1"/>
        <pt x="854" y="1587" on="0"/>
        <pt x="996" y="1568" on="1"/>
        <pt x="1056" y="1560" on="0"/>
        <pt x="1116" y="1552" on="1"/>
        <pt x="1261" y="1533" on="0"/>
        <pt x="1270" y="1485" on="1"/>
        <pt x="1270" y="1479" on="0"/>
        <pt x="1274" y="1475" on="1"/>
        <pt x="1286" y="1454" on="1"/>
        <pt x="1308" y="1423" on="0"/>
        <pt x="1380" y="1384" on="1"/>
        <pt x="1376" y="1376" on="1"/>
        <pt x="1304" y="1415" on="0"/>
        <pt x="1266" y="1415" on="1"/>
        <pt x="1262" y="1415" on="1"/>
        <pt x="1253" y="1415" on="0"/>
        <pt x="1208" y="1372" on="0"/>
        <pt x="1208" y="1334" on="0"/>
        <pt x="1214" y="1294" on="1"/>
        <pt x="1198" y="1292" on="1"/>
        <pt x="1190" y="1344" on="0"/>
        <pt x="1175" y="1371" on="0"/>
        <pt x="1159" y="1374" on="1"/>
        <pt x="1112" y="1384" on="1"/>
        <pt x="1106" y="1386" on="1"/>
        <pt x="1085" y="1379" on="0"/>
        <pt x="1060" y="1369" on="1"/>
        <pt x="1008" y="1348" on="0"/>
        <pt x="979" y="1348" on="1"/>
        <pt x="971" y="1348" on="1"/>
        <pt x="956" y="1348" on="0"/>
        <pt x="948" y="1339" on="1"/>
        <pt x="766" y="1155" on="1"/>
        <pt x="772" y="1159" on="1"/>
        <pt x="825" y="1067" on="1"/>
        <pt x="788" y="1044" on="0"/>
        <pt x="788" y="997" on="0"/>
        <pt x="796" y="976" on="1"/>
        <pt x="825" y="905" on="0"/>
        <pt x="856" y="864" on="1"/>
        <pt x="910" y="794" on="0"/>
        <pt x="917" y="739" on="0"/>
        <pt x="932" y="735" on="1"/>
        <pt x="955" y="723" on="0"/>
        <pt x="983" y="587" on="0"/>
        <pt x="983" y="526" on="0"/>
        <pt x="979" y="506" on="1"/>
        <pt x="1026" y="482" on="0"/>
        <pt x="1139" y="316" on="0"/>
        <pt x="1139" y="254" on="1"/>
        <pt x="1104" y="176" on="1"/>
        <pt x="1104" y="165" on="0"/>
        <pt x="1137" y="104" on="1"/>
        <pt x="1128" y="100" on="1"/>
        <pt x="1099" y="157" on="0"/>
        <pt x="1084" y="168" on="0"/>
        <pt x="1079" y="168" on="1"/>
        <pt x="1053" y="168" on="1"/>
        <pt x="1012" y="168" on="0"/>
        <pt x="983" y="221" on="1"/>
        <pt x="982" y="225" on="0"/>
        <pt x="968" y="234" on="1"/>
        <pt x="923" y="261" on="0"/>
        <pt x="905" y="279" on="1"/>
        <pt x="902" y="284" on="0"/>
        <pt x="898" y="295" on="0"/>
        <pt x="897" y="295" on="1"/>
        <pt x="865" y="295" on="0"/>
        <pt x="811" y="233" on="1"/>
        <pt x="799" y="244" on="1"/>
        <pt x="848" y="300" on="0"/>
        <pt x="848" y="326" on="1"/>
        <pt x="844" y="377" on="1"/>
        <pt x="834" y="420" on="1"/>
        <pt x="829" y="433" on="0"/>
        <pt x="819" y="438" on="1"/>
        <pt x="783" y="458" on="0"/>
        <pt x="745" y="537" on="0"/>
        <pt x="745" y="569" on="1"/>
        <pt x="747" y="578" on="1"/>
        <pt x="731" y="586" on="0"/>
        <pt x="699" y="586" on="0"/>
        <pt x="651" y="551" on="1"/>
        <pt x="637" y="569" on="1"/>
        <pt x="696" y="613" on="0"/>
        <pt x="696" y="653" on="0"/>
        <pt x="690" y="680" on="0"/>
        <pt x="679" y="702" on="0"/>
        <pt x="665" y="721" on="0"/>
        <pt x="650" y="735" on="0"/>
        <pt x="635" y="748" on="0"/>
        <pt x="622" y="756" on="0"/>
        <pt x="611" y="761" on="0"/>
        <pt x="606" y="764" on="1"/>
        <pt x="569" y="764" on="0"/>
        <pt x="569" y="638" on="0"/>
        <pt x="623" y="449" on="0"/>
        <pt x="647" y="444" on="1"/>
        <pt x="653" y="444" on="1"/>
        <pt x="659" y="442" on="0"/>
        <pt x="695" y="442" on="0"/>
        <pt x="752" y="485" on="1"/>
        <pt x="762" y="471" on="1"/>
        <pt x="721" y="438" on="0"/>
        <pt x="698" y="405" on="0"/>
        <pt x="698" y="385" on="1"/>
        <pt x="698" y="371" on="1"/>
        <pt x="698" y="361" on="0"/>
        <pt x="720" y="328" on="0"/>
        <pt x="756" y="310" on="0"/>
        <pt x="807" y="305" on="1"/>
        <pt x="805" y="285" on="1"/>
        <pt x="784" y="287" on="0"/>
        <pt x="716" y="287" on="0"/>
        <pt x="698" y="266" on="1"/>
        <pt x="668" y="186" on="1"/>
        <pt x="669" y="175" on="0"/>
        <pt x="672" y="170" on="1"/>
        <pt x="682" y="155" on="0"/>
        <pt x="743" y="139" on="1"/>
        <pt x="739" y="121" on="1"/>
        <pt x="702" y="131" on="0"/>
        <pt x="667" y="131" on="0"/>
        <pt x="660" y="128" on="1"/>
        <pt x="653" y="123" on="0"/>
        <pt x="631" y="87" on="0"/>
        <pt x="631" y="6" on="1"/>
        <pt x="621" y="6" on="1"/>
        <pt x="618" y="88" on="0"/>
        <pt x="602" y="113" on="0"/>
        <pt x="598" y="118" on="0"/>
        <pt x="595" y="121" on="0"/>
        <pt x="591" y="124" on="0"/>
        <pt x="588" y="125" on="1"/>
        <pt x="573" y="131" on="0"/>
        <pt x="512" y="115" on="1"/>
        <pt x="506" y="131" on="1"/>
        <pt x="556" y="145" on="0"/>
        <pt x="580" y="164" on="0"/>
        <pt x="580" y="180" on="1"/>
        <pt x="567" y="233" on="1"/>
        <pt x="545" y="242" on="1"/>
        <pt x="500" y="238" on="1"/>
        <pt x="500" y="236" on="0"/>
        <pt x="411" y="171" on="0"/>
        <pt x="408" y="158" on="1"/>
        <pt x="403" y="96" on="1"/>
        <pt x="403" y="90" on="0"/>
        <pt x="381" y="16" on="0"/>
        <pt x="381" y="-24" on="0"/>
        <pt x="387" y="-82" on="1"/>
        <pt x="381" y="-82" on="1"/>
        <pt x="373" y="-18" on="0"/>
        <pt x="363" y="10" on="0"/>
        <pt x="346" y="37" on="0"/>
        <pt x="318" y="37" on="0"/>
        <pt x="268" y="25" on="1"/>
        <pt x="264" y="39" on="1"/>
        <pt x="314" y="53" on="0"/>
        <pt x="338" y="70" on="0"/>
        <pt x="338" y="84" on="1"/>
        <pt x="354" y="246" on="1"/>
        <pt x="354" y="267" on="0"/>
        <pt x="331" y="292" on="0"/>
        <pt x="283" y="311" on="1"/>
        <pt x="291" y="332" on="1"/>
        <pt x="340" y="311" on="0"/>
        <pt x="375" y="311" on="0"/>
        <pt x="387" y="328" on="1"/>
        <pt x="410" y="348" on="1"/>
        <pt x="416" y="357" on="0"/>
        <pt x="416" y="367" on="1"/>
        <pt x="395" y="643" on="1"/>
        <pt x="395" y="649" on="0"/>
        <pt x="391" y="657" on="1"/>
        <pt x="377" y="678" on="1"/>
        <pt x="363" y="696" on="0"/>
        <pt x="327" y="696" on="0"/>
        <pt x="287" y="680" on="1"/>
        <pt x="279" y="700" on="1"/>
        <pt x="321" y="716" on="0"/>
        <pt x="346" y="739" on="0"/>
        <pt x="346" y="754" on="1"/>
        <pt x="330" y="868" on="1"/>
        <pt x="319" y="874" on="0"/>
        <pt x="283" y="874" on="0"/>
        <pt x="231" y="842" on="1"/>
        <pt x="219" y="860" on="1"/>
        <pt x="259" y="886" on="0"/>
        <pt x="285" y="914" on="0"/>
        <pt x="285" y="985" on="0"/>
        <pt x="261" y="1201" on="0"/>
        <pt x="260" y="1264" on="0"/>
        <pt x="252" y="1272" on="1"/>
        <pt x="250" y="1272" on="1"/>
        <pt x="232" y="1290" on="0"/>
        <pt x="164" y="1290" on="0"/>
        <pt x="145" y="1288" on="1"/>
        <pt x="143" y="1305" on="1"/>
        <pt x="194" y="1310" on="0"/>
        <pt x="230" y="1327" on="0"/>
        <pt x="242" y="1343" on="1"/>
        <pt x="256" y="1364" on="1"/>
        <pt x="260" y="1372" on="0"/>
        <pt x="260" y="1378" on="1"/>
        <pt x="260" y="1427" on="1"/>
        <pt x="238" y="1411" on="0"/>
        <pt x="227" y="1360" on="1"/>
        <pt x="180" y="1370" on="1"/>
        <pt x="184" y="1398" on="0"/>
        <pt x="184" y="1439" on="0"/>
        <pt x="139" y="1474" on="0"/>
        <pt x="112" y="1478" on="1"/>
        <pt x="38" y="1487" on="0"/>
        <pt x="29" y="1530" on="1"/>
        <pt x="25" y="1548" on="0"/>
        <pt x="-12" y="1556" on="0"/>
        <pt x="-80" y="1556" on="1"/>
        <pt x="-80" y="1565" on="1"/>
        <pt x="-20" y="1565" on="0"/>
        <pt x="15" y="1572" on="0"/>
        <pt x="66" y="1601" on="0"/>
        <pt x="66" y="1639" on="0"/>
        <pt x="49" y="1679" on="1"/>
        <pt x="68" y="1688" on="1"/>
        <pt x="94" y="1624" on="0"/>
        <pt x="113" y="1624" on="1"/>
        <pt x="133" y="1635" on="0"/>
        <pt x="133" y="1704" on="1"/>
        <pt x="158" y="1704" on="1"/>
        <pt x="158" y="1610" on="0"/>
      </contour>
      <contour>
        <pt x="580" y="1503" on="1"/>
        <pt x="549" y="1503" on="0"/>
        <pt x="549" y="1458" on="1"/>
        <pt x="549" y="1196" on="1"/>
        <pt x="549" y="1155" on="0"/>
        <pt x="584" y="1155" on="1"/>
        <pt x="592" y="1155" on="0"/>
        <pt x="604" y="1161" on="1"/>
        <pt x="621" y="1174" on="1"/>
        <pt x="651" y="1206" on="1"/>
        <pt x="621" y="1255" on="1"/>
        <pt x="653" y="1206" on="1"/>
        <pt x="692" y="1248" on="0"/>
        <pt x="727" y="1260" on="1"/>
        <pt x="727" y="1270" on="1"/>
        <pt x="727" y="1294" on="0"/>
        <pt x="740" y="1325" on="0"/>
        <pt x="743" y="1333" on="1"/>
        <pt x="756" y="1360" on="1"/>
        <pt x="766" y="1427" on="1"/>
        <pt x="766" y="1436" on="0"/>
        <pt x="758" y="1448" on="1"/>
        <pt x="707" y="1497" on="1"/>
        <pt x="696" y="1503" on="0"/>
        <pt x="688" y="1503" on="1"/>
      </contour>
    </TTGlyph>
    <TTGlyph name="Kcommaaccent" xMin="-80" yMin="-788" xMax="1380" yMax="1704">
      <component glyphName="comma" x="308" y="-641" flags="0x1004"/>
      <component glyphName="K" x="0" y="0" flags="0x1204"/>
    </TTGlyph>
    <TTGlyph name="L" xMin="13" yMin="29" xMax="1184" yMax="1741">
      <contour>
        <pt x="195" y="1419" on="1"/>
        <pt x="105" y="1423" on="1"/>
        <pt x="80" y="1423" on="0"/>
        <pt x="23" y="1374" on="1"/>
        <pt x="13" y="1386" on="1"/>
        <pt x="52" y="1421" on="0"/>
        <pt x="74" y="1456" on="0"/>
        <pt x="74" y="1475" on="1"/>
        <pt x="74" y="1548" on="1"/>
        <pt x="74" y="1567" on="0"/>
        <pt x="52" y="1602" on="0"/>
        <pt x="15" y="1638" on="1"/>
        <pt x="25" y="1651" on="1"/>
        <pt x="84" y="1597" on="0"/>
        <pt x="113" y="1597" on="1"/>
        <pt x="185" y="1597" on="0"/>
        <pt x="467" y="1637" on="0"/>
        <pt x="548" y="1658" on="0"/>
        <pt x="560" y="1676" on="0"/>
        <pt x="560" y="1708" on="1"/>
        <pt x="560" y="1739" on="1"/>
        <pt x="576" y="1741" on="1"/>
        <pt x="576" y="1724" on="0"/>
        <pt x="578" y="1701" on="0"/>
        <pt x="579" y="1683" on="0"/>
        <pt x="585" y="1672" on="0"/>
        <pt x="587" y="1665" on="0"/>
        <pt x="597" y="1662" on="0"/>
        <pt x="599" y="1662" on="1"/>
        <pt x="609" y="1659" on="0"/>
        <pt x="636" y="1659" on="0"/>
        <pt x="679" y="1718" on="1"/>
        <pt x="689" y="1712" on="1"/>
        <pt x="650" y="1658" on="0"/>
        <pt x="650" y="1640" on="1"/>
        <pt x="666" y="1567" on="1"/>
        <pt x="666" y="1550" on="1"/>
        <pt x="666" y="1532" on="0"/>
        <pt x="720" y="1477" on="1"/>
        <pt x="713" y="1470" on="1"/>
        <pt x="662" y="1528" on="0"/>
        <pt x="644" y="1528" on="1"/>
        <pt x="619" y="1530" on="1"/>
        <pt x="611" y="1530" on="0"/>
        <pt x="599" y="1526" on="1"/>
        <pt x="513" y="1452" on="1"/>
        <pt x="502" y="1444" on="0"/>
        <pt x="502" y="1416" on="0"/>
        <pt x="506" y="1374" on="0"/>
        <pt x="512" y="1340" on="1"/>
        <pt x="524" y="1260" on="0"/>
        <pt x="568" y="1260" on="1"/>
        <pt x="584" y="1260" on="0"/>
        <pt x="611" y="1266" on="1"/>
        <pt x="617" y="1231" on="1"/>
        <pt x="595" y="1226" on="0"/>
        <pt x="568" y="1214" on="0"/>
        <pt x="554" y="1208" on="0"/>
        <pt x="548" y="1185" on="0"/>
        <pt x="548" y="1182" on="1"/>
        <pt x="548" y="1161" on="1"/>
        <pt x="548" y="1137" on="0"/>
        <pt x="578" y="1118" on="0"/>
        <pt x="632" y="1118" on="1"/>
        <pt x="632" y="1096" on="1"/>
        <pt x="581" y="1096" on="0"/>
        <pt x="554" y="1082" on="0"/>
        <pt x="548" y="1040" on="0"/>
        <pt x="548" y="993" on="1"/>
        <pt x="562" y="569" on="1"/>
        <pt x="562" y="528" on="1"/>
        <pt x="562" y="521" on="0"/>
        <pt x="580" y="487" on="0"/>
        <pt x="616" y="487" on="0"/>
        <pt x="660" y="504" on="1"/>
        <pt x="668" y="481" on="1"/>
        <pt x="601" y="457" on="0"/>
        <pt x="601" y="434" on="1"/>
        <pt x="601" y="426" on="0"/>
        <pt x="603" y="422" on="1"/>
        <pt x="611" y="387" on="1"/>
        <pt x="617" y="365" on="0"/>
        <pt x="642" y="365" on="1"/>
        <pt x="744" y="383" on="1"/>
        <pt x="763" y="390" on="0"/>
        <pt x="785" y="421" on="0"/>
        <pt x="799" y="471" on="1"/>
        <pt x="818" y="467" on="1"/>
        <pt x="806" y="418" on="0"/>
        <pt x="806" y="399" on="1"/>
        <pt x="806" y="360" on="0"/>
        <pt x="836" y="360" on="1"/>
        <pt x="904" y="360" on="1"/>
        <pt x="935" y="360" on="0"/>
        <pt x="1035" y="539" on="0"/>
        <pt x="1035" y="581" on="0"/>
        <pt x="986" y="627" on="1"/>
        <pt x="998" y="639" on="1"/>
        <pt x="1043" y="594" on="0"/>
        <pt x="1062" y="594" on="1"/>
        <pt x="1119" y="594" on="0"/>
        <pt x="1178" y="748" on="1"/>
        <pt x="1184" y="745" on="1"/>
        <pt x="1156" y="665" on="0"/>
        <pt x="1156" y="631" on="1"/>
        <pt x="1156" y="432" on="1"/>
        <pt x="1156" y="386" on="0"/>
        <pt x="1078" y="227" on="0"/>
        <pt x="1078" y="186" on="1"/>
        <pt x="1078" y="163" on="0"/>
        <pt x="1135" y="123" on="1"/>
        <pt x="1123" y="106" on="1"/>
        <pt x="1073" y="143" on="0"/>
        <pt x="1045" y="143" on="0"/>
        <pt x="1023" y="131" on="1"/>
        <pt x="1001" y="116" on="0"/>
        <pt x="984" y="37" on="1"/>
        <pt x="974" y="39" on="1"/>
        <pt x="984" y="83" on="0"/>
        <pt x="984" y="130" on="0"/>
        <pt x="950" y="193" on="0"/>
        <pt x="947" y="207" on="1"/>
        <pt x="930" y="202" on="0"/>
        <pt x="916" y="175" on="0"/>
        <pt x="916" y="141" on="1"/>
        <pt x="916" y="127" on="1"/>
        <pt x="883" y="127" on="1"/>
        <pt x="882" y="178" on="0"/>
        <pt x="861" y="205" on="0"/>
        <pt x="799" y="209" on="0"/>
        <pt x="617" y="209" on="0"/>
        <pt x="518" y="178" on="0"/>
        <pt x="419" y="121" on="1"/>
        <pt x="406" y="112" on="0"/>
        <pt x="394" y="80" on="0"/>
        <pt x="388" y="29" on="1"/>
        <pt x="373" y="31" on="1"/>
        <pt x="378" y="55" on="0"/>
        <pt x="378" y="126" on="0"/>
        <pt x="343" y="143" on="1"/>
        <pt x="329" y="143" on="0"/>
        <pt x="273" y="121" on="1"/>
        <pt x="269" y="131" on="1"/>
        <pt x="316" y="151" on="0"/>
        <pt x="339" y="168" on="0"/>
        <pt x="339" y="178" on="1"/>
        <pt x="339" y="207" on="1"/>
        <pt x="339" y="237" on="0"/>
        <pt x="349" y="270" on="1"/>
        <pt x="349" y="272" on="0"/>
        <pt x="335" y="281" on="1"/>
        <pt x="351" y="274" on="1"/>
        <pt x="373" y="297" on="1"/>
        <pt x="380" y="303" on="0"/>
        <pt x="380" y="313" on="1"/>
        <pt x="378" y="323" on="0"/>
        <pt x="357" y="379" on="1"/>
        <pt x="367" y="383" on="1"/>
        <pt x="383" y="340" on="0"/>
        <pt x="398" y="317" on="1"/>
        <pt x="408" y="325" on="0"/>
        <pt x="408" y="347" on="0"/>
        <pt x="395" y="382" on="0"/>
        <pt x="385" y="496" on="0"/>
        <pt x="361" y="567" on="0"/>
        <pt x="332" y="567" on="1"/>
        <pt x="318" y="567" on="0"/>
        <pt x="287" y="561" on="1"/>
        <pt x="281" y="592" on="1"/>
        <pt x="325" y="600" on="0"/>
        <pt x="351" y="620" on="0"/>
        <pt x="351" y="637" on="1"/>
        <pt x="351" y="649" on="1"/>
        <pt x="345" y="698" on="0"/>
        <pt x="269" y="1046" on="0"/>
        <pt x="267" y="1126" on="1"/>
        <pt x="267" y="1128" on="0"/>
        <pt x="230" y="1205" on="0"/>
        <pt x="230" y="1245" on="1"/>
        <pt x="232" y="1321" on="1"/>
        <pt x="232" y="1419" on="0"/>
      </contour>
    </TTGlyph>
    <TTGlyph name="Lacute" xMin="13" yMin="29" xMax="1379" yMax="2439">
      <component glyphName="acute" x="30" y="1681" flags="0x1004"/>
      <component glyphName="L" x="0" y="0" flags="0x1204"/>
    </TTGlyph>
    <TTGlyph name="Lcaron" xMin="13" yMin="29" xMax="1452" yMax="1741">
      <component glyphName="comma" x="845" y="1182" flags="0x1004"/>
      <component glyphName="L" x="0" y="0" flags="0x1004"/>
    </TTGlyph>
    <TTGlyph name="Lcommaaccent" xMin="13" yMin="-677" xMax="1184" yMax="1741">
      <component glyphName="comma" x="257" y="-530" flags="0x1004"/>
      <component glyphName="L" x="0" y="0" flags="0x1204"/>
    </TTGlyph>
    <TTGlyph name="Ldot" xMin="13" yMin="29" xMax="1222" yMax="1741">
      <component glyphName="periodcentered" x="704" y="418" flags="0x1004"/>
      <component glyphName="L" x="0" y="0" flags="0x1204"/>
    </TTGlyph>
    <TTGlyph name="Lslash" xMin="49" yMin="29" xMax="1220" yMax="1741">
      <contour>
        <pt x="231" y="1419" on="1"/>
        <pt x="141" y="1423" on="1"/>
        <pt x="116" y="1423" on="0"/>
        <pt x="59" y="1374" on="1"/>
        <pt x="49" y="1386" on="1"/>
        <pt x="88" y="1421" on="0"/>
        <pt x="110" y="1456" on="0"/>
        <pt x="110" y="1475" on="1"/>
        <pt x="110" y="1548" on="1"/>
        <pt x="110" y="1567" on="0"/>
        <pt x="88" y="1602" on="0"/>
        <pt x="51" y="1638" on="1"/>
        <pt x="61" y="1651" on="1"/>
        <pt x="120" y="1597" on="0"/>
        <pt x="149" y="1597" on="1"/>
        <pt x="221" y="1597" on="0"/>
        <pt x="503" y="1637" on="0"/>
        <pt x="584" y="1658" on="0"/>
        <pt x="596" y="1676" on="0"/>
        <pt x="596" y="1708" on="1"/>
        <pt x="596" y="1739" on="1"/>
        <pt x="612" y="1741" on="1"/>
        <pt x="612" y="1724" on="0"/>
        <pt x="614" y="1701" on="0"/>
        <pt x="615" y="1683" on="0"/>
        <pt x="621" y="1672" on="0"/>
        <pt x="623" y="1665" on="0"/>
        <pt x="633" y="1662" on="0"/>
        <pt x="635" y="1662" on="1"/>
        <pt x="645" y="1659" on="0"/>
        <pt x="672" y="1659" on="0"/>
        <pt x="715" y="1718" on="1"/>
        <pt x="725" y="1712" on="1"/>
        <pt x="686" y="1658" on="0"/>
        <pt x="686" y="1640" on="1"/>
        <pt x="702" y="1567" on="1"/>
        <pt x="702" y="1550" on="1"/>
        <pt x="702" y="1532" on="0"/>
        <pt x="756" y="1477" on="1"/>
        <pt x="749" y="1470" on="1"/>
        <pt x="698" y="1528" on="0"/>
        <pt x="680" y="1528" on="1"/>
        <pt x="655" y="1530" on="1"/>
        <pt x="647" y="1530" on="0"/>
        <pt x="635" y="1526" on="1"/>
        <pt x="549" y="1452" on="1"/>
        <pt x="538" y="1444" on="0"/>
        <pt x="538" y="1416" on="0"/>
        <pt x="542" y="1374" on="0"/>
        <pt x="548" y="1340" on="1"/>
        <pt x="560" y="1260" on="0"/>
        <pt x="604" y="1260" on="1"/>
        <pt x="620" y="1260" on="0"/>
        <pt x="647" y="1266" on="1"/>
        <pt x="653" y="1231" on="1"/>
        <pt x="631" y="1226" on="0"/>
        <pt x="604" y="1214" on="0"/>
        <pt x="590" y="1208" on="0"/>
        <pt x="584" y="1185" on="0"/>
        <pt x="584" y="1182" on="1"/>
        <pt x="584" y="1161" on="1"/>
        <pt x="584" y="1137" on="0"/>
        <pt x="614" y="1118" on="0"/>
        <pt x="668" y="1118" on="1"/>
        <pt x="668" y="1096" on="1"/>
        <pt x="617" y="1096" on="0"/>
        <pt x="590" y="1082" on="0"/>
        <pt x="584" y="1040" on="0"/>
        <pt x="584" y="993" on="1"/>
        <pt x="598" y="569" on="1"/>
        <pt x="598" y="528" on="1"/>
        <pt x="598" y="521" on="0"/>
        <pt x="616" y="487" on="0"/>
        <pt x="652" y="487" on="0"/>
        <pt x="696" y="504" on="1"/>
        <pt x="704" y="481" on="1"/>
        <pt x="637" y="457" on="0"/>
        <pt x="637" y="434" on="1"/>
        <pt x="637" y="426" on="0"/>
        <pt x="639" y="422" on="1"/>
        <pt x="647" y="387" on="1"/>
        <pt x="653" y="365" on="0"/>
        <pt x="678" y="365" on="1"/>
        <pt x="780" y="383" on="1"/>
        <pt x="799" y="390" on="0"/>
        <pt x="821" y="421" on="0"/>
        <pt x="835" y="471" on="1"/>
        <pt x="854" y="467" on="1"/>
        <pt x="842" y="418" on="0"/>
        <pt x="842" y="399" on="1"/>
        <pt x="842" y="360" on="0"/>
        <pt x="872" y="360" on="1"/>
        <pt x="940" y="360" on="1"/>
        <pt x="971" y="360" on="0"/>
        <pt x="1071" y="539" on="0"/>
        <pt x="1071" y="581" on="0"/>
        <pt x="1022" y="627" on="1"/>
        <pt x="1034" y="639" on="1"/>
        <pt x="1079" y="594" on="0"/>
        <pt x="1098" y="594" on="1"/>
        <pt x="1155" y="594" on="0"/>
        <pt x="1214" y="748" on="1"/>
        <pt x="1220" y="745" on="1"/>
        <pt x="1192" y="665" on="0"/>
        <pt x="1192" y="631" on="1"/>
        <pt x="1192" y="432" on="1"/>
        <pt x="1192" y="386" on="0"/>
        <pt x="1114" y="227" on="0"/>
        <pt x="1114" y="186" on="1"/>
        <pt x="1114" y="163" on="0"/>
        <pt x="1171" y="123" on="1"/>
        <pt x="1159" y="106" on="1"/>
        <pt x="1109" y="143" on="0"/>
        <pt x="1081" y="143" on="0"/>
        <pt x="1059" y="131" on="1"/>
        <pt x="1037" y="116" on="0"/>
        <pt x="1020" y="37" on="1"/>
        <pt x="1010" y="39" on="1"/>
        <pt x="1020" y="83" on="0"/>
        <pt x="1020" y="130" on="0"/>
        <pt x="986" y="193" on="0"/>
        <pt x="983" y="207" on="1"/>
        <pt x="966" y="202" on="0"/>
        <pt x="952" y="175" on="0"/>
        <pt x="952" y="141" on="1"/>
        <pt x="952" y="127" on="1"/>
        <pt x="919" y="127" on="1"/>
        <pt x="918" y="178" on="0"/>
        <pt x="897" y="205" on="0"/>
        <pt x="835" y="209" on="0"/>
        <pt x="653" y="209" on="0"/>
        <pt x="554" y="178" on="0"/>
        <pt x="455" y="121" on="1"/>
        <pt x="442" y="112" on="0"/>
        <pt x="430" y="80" on="0"/>
        <pt x="424" y="29" on="1"/>
        <pt x="409" y="31" on="1"/>
        <pt x="414" y="55" on="0"/>
        <pt x="414" y="126" on="0"/>
        <pt x="379" y="143" on="1"/>
        <pt x="365" y="143" on="0"/>
        <pt x="309" y="121" on="1"/>
        <pt x="305" y="131" on="1"/>
        <pt x="352" y="151" on="0"/>
        <pt x="375" y="168" on="0"/>
        <pt x="375" y="178" on="1"/>
        <pt x="375" y="207" on="1"/>
        <pt x="375" y="237" on="0"/>
        <pt x="385" y="270" on="1"/>
        <pt x="385" y="272" on="0"/>
        <pt x="371" y="281" on="1"/>
        <pt x="387" y="274" on="1"/>
        <pt x="409" y="297" on="1"/>
        <pt x="416" y="303" on="0"/>
        <pt x="416" y="313" on="1"/>
        <pt x="414" y="323" on="0"/>
        <pt x="393" y="379" on="1"/>
        <pt x="403" y="383" on="1"/>
        <pt x="419" y="340" on="0"/>
        <pt x="434" y="317" on="1"/>
        <pt x="444" y="325" on="0"/>
        <pt x="444" y="347" on="0"/>
        <pt x="431" y="382" on="0"/>
        <pt x="421" y="496" on="0"/>
        <pt x="397" y="567" on="0"/>
        <pt x="368" y="567" on="1"/>
        <pt x="354" y="567" on="0"/>
        <pt x="323" y="561" on="1"/>
        <pt x="317" y="592" on="1"/>
        <pt x="361" y="600" on="0"/>
        <pt x="387" y="620" on="0"/>
        <pt x="387" y="637" on="1"/>
        <pt x="387" y="649" on="1"/>
        <pt x="381" y="698" on="0"/>
        <pt x="305" y="1046" on="0"/>
        <pt x="303" y="1126" on="1"/>
        <pt x="303" y="1128" on="0"/>
        <pt x="266" y="1205" on="0"/>
        <pt x="266" y="1245" on="1"/>
        <pt x="268" y="1321" on="1"/>
        <pt x="268" y="1419" on="0"/>
      </contour>
      <contour>
        <pt x="988" y="1124" on="1"/>
        <pt x="1036" y="1130" on="0"/>
        <pt x="1097" y="1157" on="1"/>
        <pt x="1127" y="1111" on="1"/>
        <pt x="1068" y="1082" on="0"/>
        <pt x="1043" y="1065" on="0"/>
        <pt x="959" y="976" on="0"/>
        <pt x="539" y="619" on="0"/>
        <pt x="413" y="531" on="0"/>
        <pt x="344" y="487" on="0"/>
        <pt x="331" y="478" on="1"/>
        <pt x="282" y="444" on="1"/>
        <pt x="118" y="354" on="1"/>
        <pt x="139" y="379" on="0"/>
        <pt x="112" y="404" on="1"/>
        <pt x="86" y="430" on="0"/>
        <pt x="91" y="438" on="1"/>
        <pt x="76" y="440" on="1"/>
        <pt x="76" y="487" on="1"/>
        <pt x="119" y="488" on="0"/>
        <pt x="116" y="486" on="1"/>
        <pt x="153" y="512" on="1"/>
        <pt x="231" y="566" on="0"/>
        <pt x="717" y="970" on="0"/>
        <pt x="803" y="1029" on="1"/>
        <pt x="903" y="1095" on="1"/>
        <pt x="911" y="1098" on="0"/>
        <pt x="891" y="1147" on="1"/>
        <pt x="950" y="1183" on="1"/>
        <pt x="963" y="1135" on="0"/>
        <pt x="973" y="1120" on="0"/>
        <pt x="996" y="1122" on="1"/>
      </contour>
    </TTGlyph>
    <TTGlyph name="M" xMin="-26" yMin="10" xMax="1934" yMax="1718">
      <contour>
        <pt x="852" y="276" on="1"/>
        <pt x="906" y="304" on="0"/>
        <pt x="910" y="326" on="1"/>
        <pt x="903" y="338" on="1"/>
        <pt x="861" y="391" on="0"/>
        <pt x="801" y="552" on="0"/>
        <pt x="745" y="736" on="0"/>
        <pt x="715" y="793" on="1"/>
        <pt x="708" y="807" on="0"/>
        <pt x="676" y="807" on="0"/>
        <pt x="647" y="793" on="1"/>
        <pt x="639" y="809" on="1"/>
        <pt x="686" y="828" on="0"/>
        <pt x="686" y="846" on="1"/>
        <pt x="686" y="879" on="0"/>
        <pt x="593" y="1020" on="0"/>
        <pt x="584" y="1057" on="1"/>
        <pt x="523" y="1159" on="0"/>
        <pt x="507" y="1159" on="0"/>
        <pt x="492" y="1057" on="0"/>
        <pt x="492" y="977" on="0"/>
        <pt x="476" y="826" on="0"/>
        <pt x="467" y="819" on="1"/>
        <pt x="502" y="779" on="0"/>
        <pt x="502" y="698" on="1"/>
        <pt x="502" y="691" on="0"/>
        <pt x="496" y="623" on="0"/>
        <pt x="506" y="599" on="0"/>
        <pt x="516" y="518" on="1"/>
        <pt x="542" y="305" on="0"/>
        <pt x="566" y="305" on="1"/>
        <pt x="625" y="305" on="1"/>
        <pt x="640" y="305" on="0"/>
        <pt x="665" y="324" on="0"/>
        <pt x="686" y="358" on="1"/>
        <pt x="701" y="350" on="1"/>
        <pt x="674" y="303" on="0"/>
        <pt x="674" y="278" on="0"/>
        <pt x="691" y="247" on="0"/>
        <pt x="715" y="236" on="0"/>
        <pt x="756" y="225" on="1"/>
        <pt x="754" y="217" on="1"/>
        <pt x="723" y="223" on="0"/>
        <pt x="684" y="223" on="0"/>
        <pt x="678" y="222" on="0"/>
        <pt x="678" y="217" on="1"/>
        <pt x="670" y="209" on="0"/>
        <pt x="670" y="185" on="0"/>
        <pt x="688" y="145" on="1"/>
        <pt x="676" y="143" on="1"/>
        <pt x="656" y="195" on="0"/>
        <pt x="639" y="195" on="1"/>
        <pt x="576" y="195" on="0"/>
        <pt x="289" y="131" on="0"/>
        <pt x="289" y="113" on="1"/>
        <pt x="289" y="86" on="0"/>
        <pt x="334" y="39" on="1"/>
        <pt x="328" y="31" on="1"/>
        <pt x="279" y="78" on="0"/>
        <pt x="252" y="78" on="1"/>
        <pt x="195" y="78" on="0"/>
        <pt x="166" y="10" on="1"/>
        <pt x="148" y="12" on="1"/>
        <pt x="191" y="106" on="1"/>
        <pt x="191" y="112" on="0"/>
        <pt x="123" y="145" on="1"/>
        <pt x="138" y="174" on="1"/>
        <pt x="188" y="154" on="0"/>
        <pt x="191" y="154" on="1"/>
        <pt x="211" y="154" on="0"/>
        <pt x="211" y="187" on="0"/>
        <pt x="181" y="217" on="1"/>
        <pt x="197" y="231" on="1"/>
        <pt x="230" y="195" on="0"/>
        <pt x="250" y="195" on="0"/>
        <pt x="262" y="207" on="1"/>
        <pt x="308" y="240" on="0"/>
        <pt x="334" y="325" on="0"/>
        <pt x="334" y="397" on="1"/>
        <pt x="326" y="508" on="1"/>
        <pt x="328" y="535" on="1"/>
        <pt x="328" y="537" on="0"/>
        <pt x="324" y="545" on="1"/>
        <pt x="289" y="594" on="0"/>
        <pt x="289" y="716" on="0"/>
        <pt x="295" y="750" on="1"/>
        <pt x="295" y="752" on="1"/>
        <pt x="295" y="1086" on="0"/>
        <pt x="260" y="1461" on="0"/>
        <pt x="244" y="1493" on="1"/>
        <pt x="203" y="1532" on="1"/>
        <pt x="195" y="1536" on="0"/>
        <pt x="189" y="1536" on="1"/>
        <pt x="111" y="1536" on="1"/>
        <pt x="95" y="1536" on="0"/>
        <pt x="76" y="1517" on="0"/>
        <pt x="62" y="1481" on="1"/>
        <pt x="47" y="1485" on="1"/>
        <pt x="64" y="1517" on="0"/>
        <pt x="64" y="1558" on="0"/>
        <pt x="47" y="1565" on="1"/>
        <pt x="47" y="1573" on="0"/>
        <pt x="20" y="1573" on="0"/>
        <pt x="-20" y="1556" on="1"/>
        <pt x="-26" y="1567" on="1"/>
        <pt x="13" y="1583" on="0"/>
        <pt x="31" y="1598" on="0"/>
        <pt x="31" y="1628" on="0"/>
        <pt x="-16" y="1675" on="1"/>
        <pt x="-8" y="1679" on="1"/>
        <pt x="37" y="1638" on="0"/>
        <pt x="72" y="1638" on="0"/>
        <pt x="142" y="1661" on="0"/>
        <pt x="160" y="1661" on="1"/>
        <pt x="504" y="1661" on="1"/>
        <pt x="526" y="1661" on="0"/>
        <pt x="549" y="1692" on="0"/>
        <pt x="561" y="1718" on="1"/>
        <pt x="576" y="1710" on="1"/>
        <pt x="557" y="1665" on="0"/>
        <pt x="557" y="1643" on="0"/>
        <pt x="568" y="1630" on="1"/>
        <pt x="600" y="1589" on="1"/>
        <pt x="606" y="1575" on="0"/>
        <pt x="638" y="1575" on="0"/>
        <pt x="674" y="1587" on="1"/>
        <pt x="680" y="1571" on="1"/>
        <pt x="641" y="1556" on="0"/>
        <pt x="621" y="1538" on="0"/>
        <pt x="621" y="1522" on="1"/>
        <pt x="621" y="1520" on="1"/>
        <pt x="621" y="1515" on="0"/>
        <pt x="627" y="1509" on="1"/>
        <pt x="709" y="1407" on="0"/>
        <pt x="867" y="1086" on="0"/>
        <pt x="883" y="971" on="1"/>
        <pt x="892" y="952" on="0"/>
        <pt x="913" y="952" on="0"/>
        <pt x="955" y="967" on="1"/>
        <pt x="963" y="948" on="1"/>
        <pt x="912" y="929" on="0"/>
        <pt x="912" y="909" on="1"/>
        <pt x="912" y="876" on="0"/>
        <pt x="958" y="780" on="0"/>
        <pt x="997" y="780" on="0"/>
        <pt x="1026" y="799" on="1"/>
        <pt x="1041" y="778" on="1"/>
        <pt x="994" y="754" on="0"/>
        <pt x="994" y="737" on="1"/>
        <pt x="997" y="729" on="0"/>
        <pt x="1018" y="729" on="0"/>
        <pt x="1031" y="742" on="0"/>
        <pt x="1042" y="768" on="0"/>
        <pt x="1048" y="791" on="0"/>
        <pt x="1057" y="830" on="0"/>
        <pt x="1059" y="838" on="1"/>
        <pt x="1062" y="902" on="0"/>
        <pt x="1122" y="1048" on="0"/>
        <pt x="1162" y="1128" on="1"/>
        <pt x="1219" y="1243" on="0"/>
        <pt x="1219" y="1274" on="1"/>
        <pt x="1219" y="1292" on="0"/>
        <pt x="1170" y="1313" on="1"/>
        <pt x="1176" y="1331" on="1"/>
        <pt x="1209" y="1319" on="0"/>
        <pt x="1221" y="1319" on="1"/>
        <pt x="1244" y="1319" on="0"/>
        <pt x="1311" y="1518" on="0"/>
        <pt x="1311" y="1559" on="1"/>
        <pt x="1311" y="1579" on="0"/>
        <pt x="1268" y="1620" on="1"/>
        <pt x="1280" y="1630" on="1"/>
        <pt x="1317" y="1593" on="0"/>
        <pt x="1348" y="1593" on="0"/>
        <pt x="1354" y="1595" on="1"/>
        <pt x="1379" y="1597" on="1"/>
        <pt x="1401" y="1605" on="0"/>
        <pt x="1401" y="1636" on="1"/>
        <pt x="1399" y="1665" on="1"/>
        <pt x="1415" y="1667" on="1"/>
        <pt x="1420" y="1627" on="0"/>
        <pt x="1433" y="1608" on="0"/>
        <pt x="1448" y="1608" on="1"/>
        <pt x="1672" y="1598" on="0"/>
        <pt x="1841" y="1530" on="1"/>
        <pt x="1852" y="1524" on="0"/>
        <pt x="1874" y="1524" on="0"/>
        <pt x="1932" y="1532" on="1"/>
        <pt x="1934" y="1522" on="1"/>
        <pt x="1915" y="1518" on="0"/>
        <pt x="1890" y="1510" on="0"/>
        <pt x="1874" y="1506" on="0"/>
        <pt x="1861" y="1495" on="0"/>
        <pt x="1858" y="1493" on="1"/>
        <pt x="1853" y="1488" on="0"/>
        <pt x="1829" y="1460" on="0"/>
        <pt x="1829" y="1422" on="0"/>
        <pt x="1841" y="1391" on="1"/>
        <pt x="1827" y="1384" on="1"/>
        <pt x="1813" y="1424" on="0"/>
        <pt x="1794" y="1449" on="0"/>
        <pt x="1780" y="1452" on="1"/>
        <pt x="1757" y="1454" on="1"/>
        <pt x="1692" y="1448" on="1"/>
        <pt x="1683" y="1448" on="0"/>
        <pt x="1678" y="1440" on="1"/>
        <pt x="1653" y="1409" on="1"/>
        <pt x="1647" y="1406" on="0"/>
        <pt x="1647" y="1399" on="1"/>
        <pt x="1647" y="1237" on="1"/>
        <pt x="1647" y="1224" on="0"/>
        <pt x="1667" y="1205" on="0"/>
        <pt x="1704" y="1188" on="1"/>
        <pt x="1698" y="1176" on="1"/>
        <pt x="1659" y="1192" on="0"/>
        <pt x="1624" y="1192" on="0"/>
        <pt x="1624" y="1171" on="1"/>
        <pt x="1626" y="1012" on="1"/>
        <pt x="1626" y="950" on="0"/>
        <pt x="1598" y="913" on="1"/>
        <pt x="1594" y="909" on="0"/>
        <pt x="1593" y="884" on="0"/>
        <pt x="1571" y="639" on="0"/>
        <pt x="1571" y="573" on="1"/>
        <pt x="1577" y="272" on="1"/>
        <pt x="1577" y="250" on="0"/>
        <pt x="1600" y="248" on="1"/>
        <pt x="1659" y="244" on="1"/>
        <pt x="1684" y="244" on="0"/>
        <pt x="1731" y="287" on="1"/>
        <pt x="1739" y="279" on="1"/>
        <pt x="1692" y="238" on="0"/>
        <pt x="1692" y="209" on="1"/>
        <pt x="1692" y="195" on="1"/>
        <pt x="1692" y="183" on="0"/>
        <pt x="1722" y="168" on="0"/>
        <pt x="1749" y="158" on="1"/>
        <pt x="1743" y="147" on="1"/>
        <pt x="1702" y="164" on="0"/>
        <pt x="1684" y="164" on="0"/>
        <pt x="1676" y="160" on="1"/>
        <pt x="1676" y="158" on="1"/>
        <pt x="1669" y="151" on="0"/>
        <pt x="1669" y="143" on="1"/>
        <pt x="1686" y="88" on="1"/>
        <pt x="1676" y="84" on="1"/>
        <pt x="1663" y="123" on="0"/>
        <pt x="1650" y="143" on="0"/>
        <pt x="1641" y="143" on="1"/>
        <pt x="1338" y="168" on="1"/>
        <pt x="1295" y="168" on="1"/>
        <pt x="1253" y="168" on="0"/>
        <pt x="1200" y="134" on="0"/>
        <pt x="1190" y="80" on="1"/>
        <pt x="1180" y="82" on="1"/>
        <pt x="1186" y="122" on="0"/>
        <pt x="1186" y="150" on="0"/>
        <pt x="1176" y="160" on="1"/>
        <pt x="1174" y="160" on="1"/>
        <pt x="1164" y="170" on="0"/>
        <pt x="1136" y="170" on="0"/>
        <pt x="1096" y="166" on="1"/>
        <pt x="1096" y="176" on="1"/>
        <pt x="1112" y="178" on="0"/>
        <pt x="1134" y="180" on="0"/>
        <pt x="1150" y="185" on="0"/>
        <pt x="1159" y="187" on="0"/>
        <pt x="1164" y="192" on="1"/>
        <pt x="1172" y="200" on="0"/>
        <pt x="1190" y="231" on="0"/>
        <pt x="1190" y="251" on="0"/>
        <pt x="1168" y="291" on="1"/>
        <pt x="1180" y="303" on="1"/>
        <pt x="1200" y="270" on="0"/>
        <pt x="1221" y="250" on="0"/>
        <pt x="1237" y="252" on="0"/>
        <pt x="1239" y="252" on="1"/>
        <pt x="1276" y="260" on="1"/>
        <pt x="1286" y="265" on="0"/>
        <pt x="1291" y="279" on="1"/>
        <pt x="1307" y="393" on="1"/>
        <pt x="1300" y="410" on="0"/>
        <pt x="1296" y="416" on="1"/>
        <pt x="1287" y="430" on="0"/>
        <pt x="1233" y="442" on="1"/>
        <pt x="1235" y="459" on="1"/>
        <pt x="1256" y="453" on="0"/>
        <pt x="1317" y="453" on="0"/>
        <pt x="1317" y="475" on="1"/>
        <pt x="1311" y="1112" on="1"/>
        <pt x="1311" y="1131" on="0"/>
        <pt x="1292" y="1153" on="0"/>
        <pt x="1278" y="1153" on="1"/>
        <pt x="1252" y="1153" on="0"/>
        <pt x="1205" y="1009" on="0"/>
        <pt x="1205" y="953" on="0"/>
        <pt x="1227" y="939" on="0"/>
        <pt x="1260" y="930" on="1"/>
        <pt x="1256" y="909" on="1"/>
        <pt x="1225" y="918" on="0"/>
        <pt x="1193" y="918" on="0"/>
        <pt x="1186" y="897" on="1"/>
        <pt x="1139" y="725" on="1"/>
        <pt x="1137" y="713" on="1"/>
        <pt x="1137" y="688" on="0"/>
        <pt x="1190" y="666" on="1"/>
        <pt x="1182" y="647" on="1"/>
        <pt x="1136" y="664" on="0"/>
        <pt x="1129" y="664" on="1"/>
        <pt x="1094" y="664" on="0"/>
        <pt x="1050" y="546" on="0"/>
        <pt x="1044" y="472" on="1"/>
        <pt x="1023" y="246" on="0"/>
        <pt x="1004" y="204" on="0"/>
        <pt x="1004" y="176" on="0"/>
        <pt x="1016" y="127" on="1"/>
        <pt x="1010" y="127" on="1"/>
        <pt x="993" y="179" on="0"/>
        <pt x="965" y="205" on="0"/>
        <pt x="961" y="209" on="0"/>
        <pt x="924" y="209" on="0"/>
        <pt x="889" y="190" on="1"/>
        <pt x="883" y="203" on="1"/>
        <pt x="918" y="221" on="0"/>
        <pt x="938" y="242" on="0"/>
        <pt x="938" y="256" on="1"/>
        <pt x="938" y="260" on="1"/>
        <pt x="938" y="283" on="0"/>
        <pt x="916" y="283" on="1"/>
        <pt x="901" y="283" on="0"/>
        <pt x="858" y="262" on="1"/>
      </contour>
      <contour>
        <pt x="262" y="1485" on="1"/>
        <pt x="252" y="1485" on="1"/>
        <pt x="254" y="1483" on="0"/>
        <pt x="260" y="1485" on="0"/>
      </contour>
    </TTGlyph>
    <TTGlyph name="N" xMin="13" yMin="37" xMax="1495" yMax="1745">
      <contour>
        <pt x="531" y="924" on="1"/>
        <pt x="531" y="949" on="0"/>
        <pt x="459" y="963" on="1"/>
        <pt x="444" y="963" on="0"/>
        <pt x="416" y="942" on="1"/>
        <pt x="410" y="660" on="0"/>
        <pt x="410" y="625" on="1"/>
        <pt x="410" y="477" on="1"/>
        <pt x="410" y="437" on="0"/>
        <pt x="470" y="428" on="1"/>
        <pt x="492" y="424" on="0"/>
        <pt x="558" y="418" on="0"/>
        <pt x="582" y="412" on="0"/>
        <pt x="625" y="412" on="0"/>
        <pt x="682" y="440" on="1"/>
        <pt x="691" y="424" on="1"/>
        <pt x="580" y="371" on="0"/>
        <pt x="580" y="311" on="1"/>
        <pt x="580" y="266" on="1"/>
        <pt x="580" y="233" on="0"/>
        <pt x="625" y="160" on="1"/>
        <pt x="615" y="154" on="1"/>
        <pt x="581" y="204" on="0"/>
        <pt x="568" y="216" on="1"/>
        <pt x="547" y="237" on="0"/>
        <pt x="519" y="246" on="1"/>
        <pt x="496" y="246" on="0"/>
        <pt x="463" y="225" on="1"/>
        <pt x="428" y="233" on="1"/>
        <pt x="422" y="227" on="0"/>
        <pt x="422" y="202" on="0"/>
        <pt x="439" y="152" on="1"/>
        <pt x="428" y="147" on="1"/>
        <pt x="406" y="208" on="0"/>
        <pt x="394" y="219" on="0"/>
        <pt x="388" y="219" on="1"/>
        <pt x="365" y="219" on="1"/>
        <pt x="330" y="217" on="1"/>
        <pt x="330" y="197" on="0"/>
        <pt x="353" y="162" on="0"/>
        <pt x="392" y="129" on="1"/>
        <pt x="381" y="115" on="1"/>
        <pt x="322" y="164" on="0"/>
        <pt x="297" y="164" on="1"/>
        <pt x="295" y="164" on="0"/>
        <pt x="287" y="162" on="0"/>
        <pt x="285" y="162" on="1"/>
        <pt x="287" y="164" on="1"/>
        <pt x="263" y="159" on="0"/>
        <pt x="263" y="101" on="0"/>
        <pt x="312" y="47" on="1"/>
        <pt x="297" y="37" on="1"/>
        <pt x="264" y="76" on="0"/>
        <pt x="229" y="98" on="0"/>
        <pt x="209" y="98" on="1"/>
        <pt x="162" y="98" on="1"/>
        <pt x="135" y="98" on="0"/>
        <pt x="80" y="41" on="1"/>
        <pt x="70" y="51" on="1"/>
        <pt x="127" y="106" on="0"/>
        <pt x="127" y="133" on="1"/>
        <pt x="127" y="170" on="1"/>
        <pt x="127" y="220" on="0"/>
        <pt x="147" y="242" on="0"/>
        <pt x="171" y="251" on="0"/>
        <pt x="196" y="339" on="0"/>
        <pt x="202" y="380" on="1"/>
        <pt x="207" y="422" on="1"/>
        <pt x="213" y="424" on="1"/>
        <pt x="224" y="383" on="0"/>
        <pt x="250" y="383" on="1"/>
        <pt x="260" y="383" on="0"/>
        <pt x="277" y="397" on="0"/>
        <pt x="277" y="410" on="1"/>
        <pt x="285" y="650" on="0"/>
        <pt x="285" y="697" on="0"/>
        <pt x="280" y="736" on="0"/>
        <pt x="271" y="756" on="1"/>
        <pt x="254" y="793" on="0"/>
        <pt x="189" y="793" on="1"/>
        <pt x="185" y="836" on="1"/>
        <pt x="236" y="840" on="0"/>
        <pt x="263" y="871" on="0"/>
        <pt x="263" y="907" on="1"/>
        <pt x="267" y="1096" on="1"/>
        <pt x="267" y="1216" on="0"/>
        <pt x="213" y="1384" on="0"/>
        <pt x="154" y="1454" on="1"/>
        <pt x="145" y="1460" on="0"/>
        <pt x="131" y="1460" on="0"/>
        <pt x="123" y="1458" on="0"/>
        <pt x="115" y="1452" on="0"/>
        <pt x="110" y="1448" on="0"/>
        <pt x="102" y="1439" on="0"/>
        <pt x="89" y="1429" on="0"/>
        <pt x="56" y="1356" on="1"/>
        <pt x="52" y="1356" on="1"/>
        <pt x="84" y="1423" on="0"/>
        <pt x="84" y="1446" on="1"/>
        <pt x="84" y="1462" on="0"/>
        <pt x="13" y="1485" on="1"/>
        <pt x="15" y="1497" on="1"/>
        <pt x="82" y="1481" on="1"/>
        <pt x="101" y="1481" on="0"/>
        <pt x="132" y="1564" on="0"/>
        <pt x="132" y="1618" on="0"/>
        <pt x="80" y="1677" on="1"/>
        <pt x="95" y="1690" on="1"/>
        <pt x="130" y="1650" on="0"/>
        <pt x="162" y="1630" on="0"/>
        <pt x="185" y="1630" on="1"/>
        <pt x="211" y="1630" on="1"/>
        <pt x="229" y="1630" on="0"/>
        <pt x="238" y="1634" on="1"/>
        <pt x="261" y="1642" on="0"/>
        <pt x="261" y="1706" on="1"/>
        <pt x="293" y="1706" on="1"/>
        <pt x="293" y="1673" on="0"/>
        <pt x="300" y="1653" on="0"/>
        <pt x="302" y="1642" on="0"/>
        <pt x="315" y="1634" on="0"/>
        <pt x="316" y="1632" on="1"/>
        <pt x="320" y="1628" on="0"/>
        <pt x="335" y="1628" on="1"/>
        <pt x="365" y="1628" on="1"/>
        <pt x="386" y="1628" on="0"/>
        <pt x="415" y="1651" on="0"/>
        <pt x="441" y="1696" on="1"/>
        <pt x="459" y="1686" on="1"/>
        <pt x="426" y="1632" on="0"/>
        <pt x="428" y="1587" on="0"/>
        <pt x="433" y="1587" on="1"/>
        <pt x="434" y="1583" on="0"/>
        <pt x="455" y="1576" on="1"/>
        <pt x="514" y="1558" on="0"/>
        <pt x="514" y="1520" on="1"/>
        <pt x="512" y="1505" on="1"/>
        <pt x="512" y="1500" on="0"/>
        <pt x="708" y="1232" on="0"/>
        <pt x="781" y="1143" on="1"/>
        <pt x="796" y="1128" on="0"/>
        <pt x="825" y="1128" on="0"/>
        <pt x="877" y="1147" on="1"/>
        <pt x="885" y="1126" on="1"/>
        <pt x="839" y="1108" on="0"/>
        <pt x="813" y="1082" on="0"/>
        <pt x="813" y="1063" on="1"/>
        <pt x="813" y="999" on="1"/>
        <pt x="813" y="989" on="0"/>
        <pt x="818" y="986" on="1"/>
        <pt x="828" y="979" on="0"/>
        <pt x="830" y="977" on="1"/>
        <pt x="846" y="969" on="0"/>
        <pt x="866" y="891" on="0"/>
        <pt x="903" y="829" on="0"/>
        <pt x="931" y="795" on="0"/>
        <pt x="949" y="795" on="1"/>
        <pt x="1000" y="795" on="0"/>
        <pt x="1000" y="905" on="1"/>
        <pt x="992" y="1030" on="1"/>
        <pt x="992" y="1056" on="0"/>
        <pt x="1018" y="1160" on="0"/>
        <pt x="1018" y="1186" on="1"/>
        <pt x="1006" y="1376" on="1"/>
        <pt x="994" y="1427" on="1"/>
        <pt x="983" y="1470" on="0"/>
        <pt x="816" y="1470" on="1"/>
        <pt x="748" y="1470" on="0"/>
        <pt x="664" y="1419" on="1"/>
        <pt x="656" y="1432" on="1"/>
        <pt x="732" y="1479" on="0"/>
        <pt x="752" y="1518" on="1"/>
        <pt x="756" y="1525" on="0"/>
        <pt x="834" y="1624" on="0"/>
        <pt x="834" y="1674" on="0"/>
        <pt x="799" y="1726" on="1"/>
        <pt x="818" y="1737" on="1"/>
        <pt x="843" y="1695" on="0"/>
        <pt x="876" y="1669" on="0"/>
        <pt x="926" y="1669" on="0"/>
        <pt x="953" y="1695" on="0"/>
        <pt x="963" y="1745" on="1"/>
        <pt x="998" y="1739" on="1"/>
        <pt x="992" y="1707" on="0"/>
        <pt x="992" y="1692" on="1"/>
        <pt x="992" y="1655" on="0"/>
        <pt x="1070" y="1630" on="1"/>
        <pt x="1196" y="1591" on="0"/>
        <pt x="1387" y="1591" on="1"/>
        <pt x="1419" y="1591" on="0"/>
        <pt x="1491" y="1624" on="1"/>
        <pt x="1495" y="1614" on="1"/>
        <pt x="1415" y="1577" on="0"/>
        <pt x="1395" y="1550" on="1"/>
        <pt x="1391" y="1545" on="0"/>
        <pt x="1350" y="1498" on="0"/>
        <pt x="1335" y="1480" on="0"/>
        <pt x="1302" y="1438" on="0"/>
        <pt x="1295" y="1425" on="1"/>
        <pt x="1273" y="1384" on="0"/>
        <pt x="1270" y="1362" on="1"/>
        <pt x="1309" y="1262" on="1"/>
        <pt x="1301" y="1286" on="0"/>
        <pt x="1262" y="1286" on="1"/>
        <pt x="1172" y="1286" on="0"/>
        <pt x="1172" y="1247" on="1"/>
        <pt x="1172" y="1194" on="1"/>
        <pt x="1172" y="1126" on="0"/>
        <pt x="1151" y="1078" on="0"/>
        <pt x="1141" y="1059" on="0"/>
        <pt x="1141" y="1055" on="1"/>
        <pt x="1135" y="618" on="1"/>
        <pt x="1135" y="595" on="0"/>
        <pt x="1207" y="582" on="1"/>
        <pt x="1203" y="565" on="1"/>
        <pt x="1149" y="573" on="0"/>
        <pt x="1147" y="573" on="1"/>
        <pt x="1113" y="573" on="0"/>
        <pt x="1113" y="512" on="1"/>
        <pt x="1113" y="499" on="0"/>
        <pt x="1115" y="406" on="0"/>
        <pt x="1113" y="383" on="1"/>
        <pt x="1100" y="372" on="0"/>
        <pt x="1100" y="358" on="1"/>
        <pt x="1104" y="309" on="1"/>
        <pt x="1104" y="215" on="0"/>
        <pt x="1088" y="170" on="0"/>
        <pt x="1088" y="137" on="0"/>
        <pt x="1119" y="84" on="1"/>
        <pt x="1106" y="78" on="1"/>
        <pt x="1098" y="85" on="0"/>
        <pt x="1075" y="107" on="0"/>
        <pt x="1065" y="116" on="0"/>
        <pt x="1049" y="131" on="0"/>
        <pt x="1042" y="136" on="0"/>
        <pt x="1030" y="145" on="0"/>
        <pt x="1026" y="147" on="1"/>
        <pt x="1018" y="152" on="0"/>
        <pt x="1008" y="154" on="1"/>
        <pt x="1012" y="154" on="1"/>
        <pt x="1006" y="156" on="0"/>
        <pt x="996" y="156" on="1"/>
        <pt x="971" y="156" on="0"/>
        <pt x="930" y="102" on="1"/>
        <pt x="914" y="115" on="1"/>
        <pt x="953" y="162" on="0"/>
        <pt x="953" y="201" on="0"/>
        <pt x="922" y="238" on="0"/>
        <pt x="886" y="238" on="0"/>
        <pt x="844" y="219" on="1"/>
        <pt x="832" y="244" on="1"/>
        <pt x="895" y="272" on="0"/>
        <pt x="895" y="299" on="1"/>
        <pt x="895" y="337" on="0"/>
        <pt x="858" y="464" on="0"/>
        <pt x="838" y="498" on="1"/>
        <pt x="842" y="490" on="0"/>
        <pt x="842" y="485" on="1"/>
        <pt x="842" y="466" on="0"/>
        <pt x="785" y="438" on="1"/>
        <pt x="768" y="469" on="1"/>
        <pt x="789" y="480" on="0"/>
        <pt x="801" y="487" on="0"/>
        <pt x="813" y="494" on="0"/>
        <pt x="816" y="497" on="1"/>
        <pt x="822" y="505" on="0"/>
        <pt x="822" y="520" on="0"/>
        <pt x="806" y="546" on="1"/>
        <pt x="764" y="617" on="0"/>
        <pt x="687" y="690" on="1"/>
        <pt x="670" y="709" on="0"/>
        <pt x="634" y="709" on="0"/>
        <pt x="592" y="694" on="1"/>
        <pt x="586" y="715" on="1"/>
        <pt x="656" y="736" on="0"/>
        <pt x="660" y="762" on="1"/>
        <pt x="660" y="766" on="1"/>
        <pt x="658" y="774" on="0"/>
        <pt x="646" y="786" on="1"/>
        <pt x="607" y="808" on="0"/>
        <pt x="537" y="887" on="0"/>
      </contour>
    </TTGlyph>
    <TTGlyph name="Nacute" xMin="13" yMin="37" xMax="1534" yMax="2443">
      <component glyphName="acute" x="185" y="1685" flags="0x1004"/>
      <component glyphName="N" x="0" y="0" flags="0x1204"/>
    </TTGlyph>
    <TTGlyph name="Ncaron" xMin="13" yMin="37" xMax="1495" yMax="2370">
      <component glyphName="caron" x="268" y="670" flags="0x1004"/>
      <component glyphName="N" x="0" y="0" flags="0x1204"/>
    </TTGlyph>
    <TTGlyph name="Ncommaaccent" xMin="13" yMin="-730" xMax="1495" yMax="1745">
      <component glyphName="comma" x="412" y="-583" flags="0x1004"/>
      <component glyphName="N" x="0" y="0" flags="0x1204"/>
    </TTGlyph>
    <TTGlyph name="Ntilde" xMin="13" yMin="37" xMax="1495" yMax="2217">
      <component glyphName="tilde" x="308" y="773" flags="0x1004"/>
      <component glyphName="N" x="0" y="0" flags="0x1204"/>
    </TTGlyph>
    <TTGlyph name="O" xMin="-1" yMin="70" xMax="1322" yMax="1653">
      <contour>
        <pt x="206" y="530" on="1"/>
        <pt x="275" y="562" on="0"/>
        <pt x="278" y="584" on="1"/>
        <pt x="276" y="591" on="0"/>
        <pt x="263" y="604" on="1"/>
        <pt x="208" y="646" on="0"/>
        <pt x="204" y="748" on="1"/>
        <pt x="204" y="758" on="0"/>
        <pt x="198" y="764" on="1"/>
        <pt x="147" y="803" on="0"/>
        <pt x="116" y="889" on="0"/>
        <pt x="111" y="925" on="1"/>
        <pt x="104" y="975" on="0"/>
        <pt x="104" y="1044" on="1"/>
        <pt x="104" y="1270" on="0"/>
        <pt x="-1" y="1337" on="1"/>
        <pt x="85" y="1468" on="1"/>
        <pt x="118" y="1442" on="0"/>
        <pt x="255" y="1442" on="0"/>
        <pt x="304" y="1460" on="1"/>
        <pt x="306" y="1529" on="0"/>
        <pt x="367" y="1558" on="1"/>
        <pt x="396" y="1571" on="0"/>
        <pt x="426" y="1579" on="1"/>
        <pt x="523" y="1605" on="0"/>
        <pt x="628" y="1653" on="0"/>
        <pt x="663" y="1653" on="1"/>
        <pt x="761" y="1653" on="0"/>
        <pt x="971" y="1518" on="0"/>
        <pt x="1015" y="1423" on="1"/>
        <pt x="1041" y="1374" on="0"/>
        <pt x="1125" y="1318" on="1"/>
        <pt x="1197" y="1271" on="0"/>
        <pt x="1197" y="1194" on="1"/>
        <pt x="1197" y="1165" on="0"/>
        <pt x="1229" y="1106" on="0"/>
        <pt x="1282" y="1106" on="0"/>
        <pt x="1314" y="1118" on="1"/>
        <pt x="1322" y="1094" on="1"/>
        <pt x="1277" y="1079" on="0"/>
        <pt x="1250" y="1056" on="0"/>
        <pt x="1250" y="1038" on="1"/>
        <pt x="1269" y="827" on="1"/>
        <pt x="1269" y="762" on="0"/>
        <pt x="1224" y="652" on="1"/>
        <pt x="1171" y="519" on="0"/>
        <pt x="1171" y="466" on="0"/>
        <pt x="1197" y="441" on="0"/>
        <pt x="1236" y="422" on="1"/>
        <pt x="1226" y="401" on="1"/>
        <pt x="1180" y="422" on="0"/>
        <pt x="1143" y="422" on="0"/>
        <pt x="1126" y="402" on="0"/>
        <pt x="1073" y="344" on="0"/>
        <pt x="1059" y="329" on="0"/>
        <pt x="1013" y="281" on="0"/>
        <pt x="990" y="258" on="0"/>
        <pt x="971" y="238" on="1"/>
        <pt x="946" y="213" on="0"/>
        <pt x="886" y="161" on="0"/>
        <pt x="886" y="124" on="0"/>
        <pt x="902" y="80" on="1"/>
        <pt x="882" y="72" on="1"/>
        <pt x="864" y="120" on="0"/>
        <pt x="841" y="145" on="0"/>
        <pt x="820" y="145" on="1"/>
        <pt x="814" y="145" on="1"/>
        <pt x="786" y="145" on="0"/>
        <pt x="753" y="118" on="0"/>
        <pt x="736" y="70" on="1"/>
        <pt x="706" y="82" on="1"/>
        <pt x="720" y="123" on="0"/>
        <pt x="720" y="173" on="0"/>
        <pt x="674" y="199" on="0"/>
        <pt x="645" y="201" on="1"/>
        <pt x="564" y="207" on="0"/>
        <pt x="536" y="262" on="1"/>
        <pt x="534" y="267" on="0"/>
        <pt x="526" y="282" on="1"/>
        <pt x="509" y="309" on="0"/>
        <pt x="503" y="336" on="1"/>
        <pt x="468" y="341" on="0"/>
        <pt x="306" y="403" on="0"/>
        <pt x="271" y="416" on="1"/>
        <pt x="310" y="403" on="1"/>
        <pt x="322" y="399" on="0"/>
        <pt x="347" y="399" on="0"/>
        <pt x="372" y="423" on="0"/>
        <pt x="372" y="462" on="0"/>
        <pt x="301" y="535" on="0"/>
        <pt x="266" y="535" on="0"/>
        <pt x="214" y="514" on="1"/>
      </contour>
      <contour>
        <pt x="403" y="1149" on="1"/>
        <pt x="384" y="1149" on="0"/>
        <pt x="384" y="1124" on="1"/>
        <pt x="384" y="1034" on="1"/>
        <pt x="384" y="999" on="0"/>
        <pt x="420" y="911" on="1"/>
        <pt x="528" y="642" on="0"/>
        <pt x="532" y="557" on="1"/>
        <pt x="532" y="551" on="0"/>
        <pt x="536" y="543" on="1"/>
        <pt x="558" y="514" on="1"/>
        <pt x="574" y="492" on="0"/>
        <pt x="612" y="492" on="0"/>
        <pt x="650" y="514" on="1"/>
        <pt x="669" y="487" on="1"/>
        <pt x="616" y="456" on="0"/>
        <pt x="616" y="432" on="1"/>
        <pt x="616" y="419" on="0"/>
        <pt x="625" y="404" on="0"/>
        <pt x="629" y="392" on="0"/>
        <pt x="630" y="387" on="0"/>
        <pt x="635" y="379" on="0"/>
        <pt x="638" y="378" on="1"/>
        <pt x="647" y="373" on="0"/>
        <pt x="656" y="373" on="1"/>
        <pt x="669" y="373" on="1"/>
        <pt x="691" y="373" on="0"/>
        <pt x="721" y="348" on="0"/>
        <pt x="724" y="348" on="1"/>
        <pt x="779" y="348" on="1"/>
        <pt x="788" y="348" on="0"/>
        <pt x="790" y="350" on="1"/>
        <pt x="822" y="367" on="1"/>
        <pt x="824" y="368" on="0"/>
        <pt x="838" y="396" on="1"/>
        <pt x="886" y="493" on="0"/>
        <pt x="914" y="525" on="0"/>
        <pt x="919" y="585" on="0"/>
        <pt x="929" y="592" on="1"/>
        <pt x="936" y="606" on="0"/>
        <pt x="947" y="682" on="0"/>
        <pt x="966" y="708" on="0"/>
        <pt x="966" y="715" on="1"/>
        <pt x="966" y="942" on="1"/>
        <pt x="966" y="1067" on="0"/>
        <pt x="900" y="1067" on="1"/>
        <pt x="878" y="1067" on="0"/>
        <pt x="863" y="1065" on="1"/>
        <pt x="859" y="1090" on="1"/>
        <pt x="906" y="1097" on="0"/>
        <pt x="933" y="1116" on="0"/>
        <pt x="935" y="1135" on="1"/>
        <pt x="933" y="1140" on="0"/>
        <pt x="910" y="1166" on="0"/>
        <pt x="910" y="1184" on="1"/>
        <pt x="912" y="1212" on="1"/>
        <pt x="912" y="1221" on="0"/>
        <pt x="882" y="1254" on="0"/>
        <pt x="817" y="1387" on="0"/>
        <pt x="792" y="1415" on="1"/>
        <pt x="770" y="1403" on="0"/>
        <pt x="765" y="1348" on="1"/>
        <pt x="722" y="1352" on="1"/>
        <pt x="724" y="1362" on="0"/>
        <pt x="724" y="1384" on="1"/>
        <pt x="724" y="1448" on="0"/>
        <pt x="644" y="1448" on="1"/>
        <pt x="635" y="1448" on="0"/>
        <pt x="552" y="1415" on="0"/>
        <pt x="547" y="1409" on="0"/>
        <pt x="538" y="1393" on="1"/>
        <pt x="524" y="1369" on="1"/>
        <pt x="511" y="1345" on="0"/>
        <pt x="511" y="1305" on="0"/>
        <pt x="570" y="1272" on="1"/>
        <pt x="560" y="1255" on="1"/>
        <pt x="510" y="1282" on="0"/>
        <pt x="481" y="1282" on="0"/>
        <pt x="456" y="1245" on="0"/>
        <pt x="448" y="1222" on="1"/>
        <pt x="427" y="1159" on="0"/>
      </contour>
      <contour>
        <pt x="241" y="428" on="1"/>
        <pt x="265" y="418" on="1"/>
      </contour>
      <contour>
        <pt x="265" y="418" on="1"/>
        <pt x="269" y="418" on="0"/>
        <pt x="271" y="416" on="1"/>
      </contour>
    </TTGlyph>
    <TTGlyph name="OE" xMin="-6" yMin="-16" xMax="2073" yMax="1780">
      <contour>
        <pt x="1759" y="1389" on="1"/>
        <pt x="1715" y="1454" on="0"/>
        <pt x="1673" y="1454" on="1"/>
        <pt x="1376" y="1452" on="1"/>
        <pt x="1361" y="1452" on="0"/>
        <pt x="1340" y="1376" on="0"/>
        <pt x="1340" y="1317" on="1"/>
        <pt x="1346" y="1294" on="1"/>
        <pt x="1346" y="1292" on="0"/>
        <pt x="1368" y="1262" on="0"/>
        <pt x="1368" y="1200" on="1"/>
        <pt x="1358" y="1055" on="1"/>
        <pt x="1358" y="1012" on="0"/>
        <pt x="1384" y="913" on="0"/>
        <pt x="1407" y="913" on="1"/>
        <pt x="1411" y="913" on="0"/>
        <pt x="1497" y="950" on="0"/>
        <pt x="1559" y="950" on="0"/>
        <pt x="1575" y="948" on="1"/>
        <pt x="1610" y="948" on="0"/>
        <pt x="1610" y="981" on="1"/>
        <pt x="1610" y="1118" on="1"/>
        <pt x="1610" y="1136" on="0"/>
        <pt x="1573" y="1160" on="0"/>
        <pt x="1540" y="1174" on="1"/>
        <pt x="1546" y="1186" on="1"/>
        <pt x="1585" y="1161" on="0"/>
        <pt x="1623" y="1161" on="0"/>
        <pt x="1635" y="1169" on="1"/>
        <pt x="1649" y="1182" on="0"/>
        <pt x="1671" y="1260" on="1"/>
        <pt x="1680" y="1257" on="1"/>
        <pt x="1661" y="1197" on="0"/>
        <pt x="1661" y="1149" on="0"/>
        <pt x="1718" y="1087" on="0"/>
        <pt x="1760" y="1087" on="0"/>
        <pt x="1819" y="1114" on="1"/>
        <pt x="1829" y="1096" on="1"/>
        <pt x="1783" y="1069" on="0"/>
        <pt x="1759" y="1041" on="0"/>
        <pt x="1759" y="1018" on="1"/>
        <pt x="1759" y="1014" on="1"/>
        <pt x="1758" y="1005" on="0"/>
        <pt x="1816" y="939" on="0"/>
        <pt x="1815" y="909" on="1"/>
        <pt x="1813" y="854" on="1"/>
        <pt x="1813" y="840" on="0"/>
        <pt x="1834" y="825" on="0"/>
        <pt x="1891" y="803" on="1"/>
        <pt x="1882" y="774" on="1"/>
        <pt x="1821" y="799" on="1"/>
        <pt x="1803" y="799" on="0"/>
        <pt x="1784" y="780" on="1"/>
        <pt x="1764" y="752" on="1"/>
        <pt x="1759" y="745" on="0"/>
        <pt x="1759" y="737" on="1"/>
        <pt x="1764" y="698" on="1"/>
        <pt x="1764" y="625" on="0"/>
        <pt x="1729" y="590" on="1"/>
        <pt x="1702" y="563" on="0"/>
        <pt x="1700" y="481" on="1"/>
        <pt x="1684" y="481" on="1"/>
        <pt x="1684" y="502" on="1"/>
        <pt x="1684" y="565" on="0"/>
        <pt x="1659" y="592" on="1"/>
        <pt x="1592" y="661" on="0"/>
        <pt x="1585" y="803" on="1"/>
        <pt x="1585" y="827" on="0"/>
        <pt x="1565" y="827" on="1"/>
        <pt x="1475" y="813" on="1"/>
        <pt x="1415" y="817" on="1"/>
        <pt x="1393" y="817" on="0"/>
        <pt x="1358" y="726" on="0"/>
        <pt x="1358" y="694" on="1"/>
        <pt x="1358" y="653" on="1"/>
        <pt x="1358" y="496" on="0"/>
        <pt x="1362" y="496" on="1"/>
        <pt x="1384" y="496" on="0"/>
        <pt x="1413" y="504" on="1"/>
        <pt x="1422" y="475" on="1"/>
        <pt x="1371" y="463" on="0"/>
        <pt x="1346" y="436" on="0"/>
        <pt x="1346" y="410" on="1"/>
        <pt x="1346" y="369" on="1"/>
        <pt x="1346" y="338" on="0"/>
        <pt x="1376" y="338" on="1"/>
        <pt x="1532" y="338" on="1"/>
        <pt x="1558" y="338" on="0"/>
        <pt x="1584" y="364" on="0"/>
        <pt x="1596" y="414" on="1"/>
        <pt x="1624" y="408" on="1"/>
        <pt x="1616" y="377" on="0"/>
        <pt x="1616" y="356" on="1"/>
        <pt x="1616" y="323" on="0"/>
        <pt x="1738" y="274" on="0"/>
        <pt x="1767" y="274" on="1"/>
        <pt x="1815" y="274" on="0"/>
        <pt x="1817" y="303" on="1"/>
        <pt x="1825" y="350" on="1"/>
        <pt x="1837" y="424" on="0"/>
        <pt x="1966" y="438" on="1"/>
        <pt x="1999" y="442" on="0"/>
        <pt x="2063" y="498" on="1"/>
        <pt x="2073" y="487" on="1"/>
        <pt x="2008" y="430" on="0"/>
        <pt x="1995" y="363" on="0"/>
        <pt x="1959" y="149" on="0"/>
        <pt x="1940" y="84" on="0"/>
        <pt x="1940" y="72" on="1"/>
        <pt x="1968" y="-10" on="1"/>
        <pt x="1946" y="-16" on="1"/>
        <pt x="1906" y="82" on="0"/>
        <pt x="1898" y="89" on="0"/>
        <pt x="1877" y="94" on="0"/>
        <pt x="1854" y="102" on="0"/>
        <pt x="1841" y="102" on="1"/>
        <pt x="1809" y="102" on="0"/>
        <pt x="1786" y="45" on="1"/>
        <pt x="1768" y="53" on="1"/>
        <pt x="1784" y="94" on="0"/>
        <pt x="1784" y="125" on="0"/>
        <pt x="1787" y="125" on="0"/>
        <pt x="1789" y="124" on="0"/>
        <pt x="1792" y="123" on="1"/>
        <pt x="1760" y="138" on="0"/>
        <pt x="1643" y="171" on="0"/>
        <pt x="1612" y="188" on="0"/>
        <pt x="1604" y="188" on="1"/>
        <pt x="1147" y="188" on="1"/>
        <pt x="1048" y="188" on="0"/>
        <pt x="1036" y="139" on="1"/>
        <pt x="998" y="53" on="1"/>
        <pt x="965" y="68" on="1"/>
        <pt x="1008" y="158" on="1"/>
        <pt x="1018" y="202" on="0"/>
        <pt x="1018" y="258" on="1"/>
        <pt x="1018" y="289" on="1"/>
        <pt x="1008" y="279" on="0"/>
        <pt x="968" y="242" on="1"/>
        <pt x="881" y="165" on="0"/>
        <pt x="881" y="124" on="0"/>
        <pt x="897" y="80" on="1"/>
        <pt x="877" y="72" on="1"/>
        <pt x="859" y="120" on="0"/>
        <pt x="836" y="145" on="0"/>
        <pt x="815" y="145" on="1"/>
        <pt x="809" y="145" on="1"/>
        <pt x="781" y="145" on="0"/>
        <pt x="748" y="118" on="0"/>
        <pt x="731" y="70" on="1"/>
        <pt x="701" y="82" on="1"/>
        <pt x="715" y="123" on="0"/>
        <pt x="715" y="173" on="0"/>
        <pt x="669" y="199" on="0"/>
        <pt x="640" y="201" on="1"/>
        <pt x="559" y="207" on="0"/>
        <pt x="531" y="262" on="1"/>
        <pt x="529" y="267" on="0"/>
        <pt x="520" y="282" on="1"/>
        <pt x="504" y="309" on="0"/>
        <pt x="498" y="336" on="1"/>
        <pt x="463" y="341" on="0"/>
        <pt x="301" y="403" on="0"/>
        <pt x="266" y="416" on="1"/>
        <pt x="305" y="403" on="1"/>
        <pt x="317" y="399" on="0"/>
        <pt x="342" y="399" on="0"/>
        <pt x="367" y="423" on="0"/>
        <pt x="367" y="462" on="0"/>
        <pt x="296" y="535" on="0"/>
        <pt x="262" y="535" on="0"/>
        <pt x="209" y="514" on="1"/>
        <pt x="201" y="530" on="1"/>
        <pt x="270" y="562" on="0"/>
        <pt x="273" y="584" on="1"/>
        <pt x="271" y="591" on="0"/>
        <pt x="258" y="604" on="1"/>
        <pt x="203" y="646" on="0"/>
        <pt x="199" y="748" on="1"/>
        <pt x="199" y="758" on="0"/>
        <pt x="193" y="764" on="1"/>
        <pt x="142" y="803" on="0"/>
        <pt x="111" y="889" on="0"/>
        <pt x="106" y="925" on="1"/>
        <pt x="99" y="975" on="0"/>
        <pt x="99" y="1044" on="1"/>
        <pt x="99" y="1270" on="0"/>
        <pt x="-6" y="1337" on="1"/>
        <pt x="80" y="1468" on="1"/>
        <pt x="113" y="1442" on="0"/>
        <pt x="250" y="1442" on="0"/>
        <pt x="299" y="1460" on="1"/>
        <pt x="301" y="1529" on="0"/>
        <pt x="362" y="1558" on="1"/>
        <pt x="391" y="1571" on="0"/>
        <pt x="421" y="1579" on="1"/>
        <pt x="518" y="1605" on="0"/>
        <pt x="623" y="1653" on="0"/>
        <pt x="689" y="1653" on="0"/>
        <pt x="719" y="1647" on="1"/>
        <pt x="721" y="1653" on="0"/>
        <pt x="721" y="1665" on="1"/>
        <pt x="721" y="1688" on="1"/>
        <pt x="721" y="1707" on="0"/>
        <pt x="666" y="1759" on="1"/>
        <pt x="672" y="1765" on="1"/>
        <pt x="727" y="1710" on="0"/>
        <pt x="744" y="1710" on="1"/>
        <pt x="748" y="1710" on="1"/>
        <pt x="761" y="1710" on="0"/>
        <pt x="782" y="1747" on="0"/>
        <pt x="797" y="1780" on="1"/>
        <pt x="805" y="1776" on="1"/>
        <pt x="780" y="1722" on="0"/>
        <pt x="780" y="1698" on="0"/>
        <pt x="798" y="1677" on="0"/>
        <pt x="805" y="1677" on="1"/>
        <pt x="811" y="1677" on="1"/>
        <pt x="834" y="1681" on="0"/>
        <pt x="854" y="1751" on="1"/>
        <pt x="875" y="1745" on="1"/>
        <pt x="864" y="1705" on="0"/>
        <pt x="864" y="1686" on="1"/>
        <pt x="864" y="1661" on="0"/>
        <pt x="965" y="1612" on="0"/>
        <pt x="993" y="1612" on="1"/>
        <pt x="1014" y="1612" on="0"/>
        <pt x="1045" y="1675" on="1"/>
        <pt x="1063" y="1667" on="1"/>
        <pt x="1039" y="1614" on="0"/>
        <pt x="1039" y="1602" on="1"/>
        <pt x="1039" y="1579" on="0"/>
        <pt x="1138" y="1532" on="0"/>
        <pt x="1181" y="1532" on="0"/>
        <pt x="1203" y="1556" on="0"/>
        <pt x="1221" y="1595" on="1"/>
        <pt x="1241" y="1587" on="1"/>
        <pt x="1221" y="1543" on="0"/>
        <pt x="1221" y="1526" on="1"/>
        <pt x="1225" y="1538" on="0"/>
        <pt x="1350" y="1556" on="0"/>
        <pt x="1410" y="1556" on="0"/>
        <pt x="1435" y="1583" on="0"/>
        <pt x="1452" y="1626" on="1"/>
        <pt x="1473" y="1616" on="1"/>
        <pt x="1452" y="1570" on="0"/>
        <pt x="1452" y="1529" on="0"/>
        <pt x="1469" y="1520" on="1"/>
        <pt x="1482" y="1505" on="0"/>
        <pt x="1495" y="1505" on="1"/>
        <pt x="1721" y="1505" on="1"/>
        <pt x="1725" y="1509" on="1"/>
        <pt x="1729" y="1505" on="1"/>
        <pt x="1737" y="1505" on="0"/>
        <pt x="1765" y="1533" on="0"/>
        <pt x="1842" y="1563" on="0"/>
        <pt x="1913" y="1582" on="0"/>
        <pt x="1998" y="1643" on="0"/>
        <pt x="2028" y="1692" on="1"/>
        <pt x="2038" y="1683" on="1"/>
        <pt x="1993" y="1616" on="0"/>
        <pt x="1993" y="1581" on="1"/>
        <pt x="1993" y="1229" on="1"/>
        <pt x="1993" y="1193" on="0"/>
        <pt x="2028" y="1116" on="1"/>
        <pt x="2020" y="1112" on="1"/>
        <pt x="1988" y="1182" on="0"/>
        <pt x="1958" y="1212" on="1"/>
        <pt x="1860" y="1296" on="1"/>
        <pt x="1852" y="1300" on="0"/>
        <pt x="1850" y="1305" on="1"/>
        <pt x="1835" y="1303" on="0"/>
        <pt x="1811" y="1278" on="0"/>
        <pt x="1788" y="1239" on="1"/>
        <pt x="1774" y="1247" on="1"/>
        <pt x="1802" y="1299" on="0"/>
        <pt x="1802" y="1348" on="0"/>
        <pt x="1747" y="1399" on="1"/>
      </contour>
      <contour>
        <pt x="398" y="1149" on="1"/>
        <pt x="379" y="1149" on="0"/>
        <pt x="379" y="1124" on="1"/>
        <pt x="379" y="1034" on="1"/>
        <pt x="379" y="999" on="0"/>
        <pt x="414" y="911" on="1"/>
        <pt x="523" y="642" on="0"/>
        <pt x="527" y="557" on="1"/>
        <pt x="527" y="551" on="0"/>
        <pt x="531" y="543" on="1"/>
        <pt x="553" y="514" on="1"/>
        <pt x="569" y="492" on="0"/>
        <pt x="606" y="492" on="0"/>
        <pt x="645" y="514" on="1"/>
        <pt x="664" y="487" on="1"/>
        <pt x="611" y="456" on="0"/>
        <pt x="611" y="432" on="1"/>
        <pt x="611" y="419" on="0"/>
        <pt x="620" y="404" on="0"/>
        <pt x="624" y="392" on="0"/>
        <pt x="625" y="387" on="0"/>
        <pt x="630" y="379" on="0"/>
        <pt x="633" y="378" on="1"/>
        <pt x="642" y="373" on="0"/>
        <pt x="651" y="373" on="1"/>
        <pt x="664" y="373" on="1"/>
        <pt x="686" y="373" on="0"/>
        <pt x="716" y="348" on="0"/>
        <pt x="719" y="348" on="1"/>
        <pt x="774" y="348" on="1"/>
        <pt x="783" y="348" on="0"/>
        <pt x="785" y="350" on="1"/>
        <pt x="817" y="367" on="1"/>
        <pt x="819" y="368" on="0"/>
        <pt x="833" y="396" on="1"/>
        <pt x="881" y="493" on="0"/>
        <pt x="909" y="525" on="0"/>
        <pt x="914" y="585" on="0"/>
        <pt x="924" y="592" on="1"/>
        <pt x="931" y="606" on="0"/>
        <pt x="942" y="682" on="0"/>
        <pt x="961" y="708" on="0"/>
        <pt x="961" y="715" on="1"/>
        <pt x="961" y="942" on="1"/>
        <pt x="961" y="1067" on="0"/>
        <pt x="895" y="1067" on="1"/>
        <pt x="873" y="1067" on="0"/>
        <pt x="858" y="1065" on="1"/>
        <pt x="854" y="1090" on="1"/>
        <pt x="901" y="1097" on="0"/>
        <pt x="928" y="1116" on="0"/>
        <pt x="930" y="1135" on="1"/>
        <pt x="928" y="1140" on="0"/>
        <pt x="905" y="1166" on="0"/>
        <pt x="905" y="1184" on="1"/>
        <pt x="907" y="1212" on="1"/>
        <pt x="907" y="1221" on="0"/>
        <pt x="876" y="1254" on="0"/>
        <pt x="811" y="1387" on="0"/>
        <pt x="787" y="1415" on="1"/>
        <pt x="765" y="1403" on="0"/>
        <pt x="760" y="1348" on="1"/>
        <pt x="717" y="1352" on="1"/>
        <pt x="719" y="1362" on="0"/>
        <pt x="719" y="1384" on="1"/>
        <pt x="719" y="1448" on="0"/>
        <pt x="639" y="1448" on="1"/>
        <pt x="630" y="1448" on="0"/>
        <pt x="547" y="1415" on="0"/>
        <pt x="542" y="1409" on="0"/>
        <pt x="533" y="1393" on="1"/>
        <pt x="520" y="1369" on="1"/>
        <pt x="506" y="1345" on="0"/>
        <pt x="506" y="1305" on="0"/>
        <pt x="565" y="1272" on="1"/>
        <pt x="555" y="1255" on="1"/>
        <pt x="505" y="1282" on="0"/>
        <pt x="476" y="1282" on="0"/>
        <pt x="451" y="1245" on="0"/>
        <pt x="444" y="1222" on="1"/>
        <pt x="422" y="1160" on="0"/>
      </contour>
      <contour>
        <pt x="260" y="418" on="1"/>
        <pt x="264" y="418" on="0"/>
        <pt x="266" y="416" on="1"/>
      </contour>
    </TTGlyph>
    <TTGlyph name="Oacute" xMin="-1" yMin="70" xMax="1441" yMax="2351">
      <component glyphName="acute" x="92" y="1593" flags="0x1004"/>
      <component glyphName="O" x="0" y="0" flags="0x1204"/>
    </TTGlyph>
    <TTGlyph name="Obreve" xMin="-1" yMin="70" xMax="1322" yMax="2148">
      <component glyphName="breve" x="175" y="267" flags="0x1004"/>
      <component glyphName="O" x="0" y="0" flags="0x1204"/>
    </TTGlyph>
    <TTGlyph name="Ocircumflex" xMin="-1" yMin="70" xMax="1322" yMax="2381">
      <component glyphName="circumflex" x="182" y="825" flags="0x1004"/>
      <component glyphName="O" x="0" y="0" flags="0x1204"/>
    </TTGlyph>
    <TTGlyph name="Odieresis" xMin="-1" yMin="70" xMax="1322" yMax="2088">
      <component glyphName="dieresis" x="184" y="630" flags="0x1004"/>
      <component glyphName="O" x="0" y="0" flags="0x1204"/>
    </TTGlyph>
    <TTGlyph name="Ograve" xMin="-257" yMin="70" xMax="1322" yMax="2633">
      <component glyphName="grave" x="-379" y="1267" flags="0x1004"/>
      <component glyphName="O" x="0" y="0" flags="0x1204"/>
    </TTGlyph>
    <TTGlyph name="Ohungarumlaut" xMin="-1" yMin="70" xMax="1663" yMax="2741">
      <component glyphName="hungarumlaut" x="327" y="1291" flags="0x1004"/>
      <component glyphName="O" x="0" y="0" flags="0x1204"/>
    </TTGlyph>
    <TTGlyph name="Omacron" xMin="-1" yMin="70" xMax="1322" yMax="1972">
      <component glyphName="macron" x="148" y="594" flags="0x1004"/>
      <component glyphName="O" x="0" y="0" flags="0x1204"/>
    </TTGlyph>
</ttFont>
